{"glyphs":{"0":{"ha":833,"x_min":99,"x_max":735,"o":"m 417 -17 q 281 12 340 -17 q 181 101 222 40 q 119 256 140 161 q 99 485 99 351 q 119 713 99 618 q 181 869 140 808 q 281 958 222 929 q 417 986 340 986 q 552 958 493 986 q 651 869 611 929 q 713 713 692 808 q 735 485 735 618 q 713 256 735 351 q 651 101 692 161 q 552 12 611 40 q 417 -17 493 -17 m 417 11 q 628 118 556 11 q 701 440 701 225 l 701 529 q 628 851 701 744 q 417 958 556 958 q 205 851 278 958 q 132 529 132 744 l 132 440 q 205 118 132 225 q 417 11 278 11 m 417 450 q 390 458 397 450 q 382 479 382 467 l 382 490 q 390 511 382 503 q 417 519 397 519 q 444 511 436 519 q 451 490 451 503 l 451 479 q 444 458 451 467 q 417 450 436 450 z "},"1":{"ha":833,"x_min":118,"x_max":764,"o":"m 136 0 l 136 28 l 440 28 l 440 947 l 436 947 l 136 696 l 118 718 l 418 969 l 471 969 l 471 28 l 764 28 l 764 0 l 136 0 z "},"2":{"ha":833,"x_min":121,"x_max":724,"o":"m 724 0 l 121 0 l 121 31 l 494 408 q 603 549 565 479 q 642 697 642 619 l 642 739 q 627 826 642 786 q 583 896 613 867 q 510 942 554 925 q 408 958 467 958 q 238 906 300 958 q 149 765 176 854 l 121 771 q 218 926 147 865 q 408 986 289 986 q 607 915 539 986 q 675 717 675 843 q 634 545 675 624 q 514 388 593 467 l 156 28 l 724 28 l 724 0 z "},"3":{"ha":833,"x_min":97,"x_max":681,"o":"m 389 522 q 485 537 442 522 q 560 578 529 551 q 609 643 592 606 q 626 725 626 681 l 626 758 q 610 840 626 803 q 563 903 593 876 q 491 944 533 929 q 399 958 449 958 q 245 921 301 958 q 157 821 189 883 l 132 832 q 228 943 161 900 q 399 986 294 986 q 589 921 518 986 q 660 744 660 856 q 645 653 660 693 q 605 585 631 614 q 544 538 579 556 q 465 511 508 519 l 465 507 q 622 431 564 494 q 681 260 681 368 q 603 57 681 131 q 393 -17 526 -17 q 219 19 292 -17 q 97 132 146 56 l 122 147 q 233 44 167 76 q 393 11 299 11 q 496 27 449 11 q 576 73 543 43 q 628 144 610 103 q 647 236 647 186 l 647 275 q 578 435 647 375 q 392 494 510 494 l 258 494 l 258 522 l 389 522 z "},"4":{"ha":833,"x_min":65,"x_max":764,"o":"m 572 0 l 572 222 l 65 222 l 65 251 l 565 969 l 601 969 l 601 249 l 764 249 l 764 222 l 601 222 l 601 0 l 572 0 m 96 249 l 572 249 l 572 931 l 569 931 l 96 249 z "},"5":{"ha":833,"x_min":117,"x_max":701,"o":"m 668 942 l 219 942 l 186 478 l 190 476 q 288 552 232 531 q 422 574 343 574 q 628 497 556 574 q 701 282 701 419 q 681 157 701 213 q 624 63 661 101 q 533 4 586 25 q 413 -17 479 -17 q 238 19 311 -17 q 117 132 165 56 l 142 147 q 252 44 186 76 q 413 11 318 11 q 521 30 474 11 q 601 82 568 49 q 651 161 633 115 q 668 261 668 207 l 668 300 q 606 478 668 410 q 422 546 543 546 q 344 540 378 546 q 283 522 310 535 q 233 492 256 510 q 190 449 211 474 l 158 453 l 194 969 l 668 969 l 668 942 z "},"6":{"ha":833,"x_min":121,"x_max":710,"o":"m 417 -17 q 281 9 338 -17 q 190 79 225 35 q 138 184 154 124 q 121 314 121 244 q 150 531 121 432 q 230 710 179 629 q 350 856 281 792 q 500 969 419 919 l 544 969 q 281 735 375 864 q 157 432 186 606 l 161 431 q 263 542 197 506 q 415 579 329 579 q 537 559 482 579 q 630 501 592 539 q 689 408 668 463 q 710 285 710 353 q 689 161 710 217 q 630 66 668 106 q 538 5 592 26 q 417 -17 483 -17 m 415 11 q 525 30 476 11 q 607 82 574 49 q 658 161 640 115 q 676 260 676 207 l 676 303 q 658 401 676 356 q 607 479 640 446 q 525 532 574 513 q 415 551 476 551 q 304 532 353 551 q 222 479 256 513 q 172 401 189 446 q 154 303 154 356 l 154 264 q 172 163 154 210 q 224 83 190 117 q 306 31 258 50 q 415 11 354 11 z "},"7":{"ha":833,"x_min":107,"x_max":711,"o":"m 260 0 l 679 942 l 138 942 l 138 711 l 107 711 l 107 969 l 711 969 l 711 942 l 293 0 l 260 0 z "},"8":{"ha":833,"x_min":100,"x_max":733,"o":"m 417 -17 q 285 2 343 -17 q 185 56 226 21 q 122 140 144 92 q 100 250 100 189 q 157 422 100 354 q 314 506 214 489 l 314 511 q 182 588 231 528 q 133 743 133 649 q 210 921 133 856 q 417 986 286 986 q 624 921 547 986 q 700 743 700 856 q 651 588 700 649 q 519 511 603 528 l 519 506 q 676 422 619 489 q 733 250 733 354 q 711 140 733 189 q 648 56 689 92 q 548 2 607 21 q 417 -17 489 -17 m 417 11 q 533 28 481 11 q 623 74 586 44 q 680 144 660 103 q 700 235 700 185 l 700 271 q 680 362 700 321 q 623 432 660 403 q 533 478 586 461 q 417 494 481 494 q 299 478 351 494 q 210 432 247 461 q 153 362 174 403 q 133 271 133 321 l 133 235 q 153 144 133 185 q 210 74 174 103 q 299 28 247 44 q 417 11 351 11 m 417 522 q 599 577 531 522 q 667 724 667 632 l 667 757 q 599 903 667 849 q 417 958 531 958 q 235 903 303 958 q 167 757 167 849 l 167 724 q 235 577 167 632 q 417 522 303 522 z "},"9":{"ha":833,"x_min":128,"x_max":717,"o":"m 717 656 q 688 439 717 538 q 607 259 658 340 q 487 114 556 178 q 338 0 418 50 l 293 0 q 557 235 463 106 q 681 538 651 364 l 676 539 q 574 427 640 464 q 422 390 508 390 q 301 410 356 390 q 208 469 246 431 q 149 562 169 507 q 128 685 128 617 q 149 808 128 753 q 208 903 169 864 q 300 965 246 943 q 421 986 354 986 q 556 960 500 986 q 648 890 613 935 q 700 785 683 846 q 717 656 717 725 m 422 418 q 533 438 485 418 q 615 490 582 457 q 666 569 649 524 q 683 667 683 614 l 683 706 q 665 806 683 760 q 613 886 647 853 q 531 939 579 919 q 422 958 482 958 q 313 940 361 958 q 231 888 264 921 q 179 808 197 854 q 161 710 161 763 l 161 667 q 179 569 161 614 q 231 490 197 524 q 313 438 264 457 q 422 418 361 418 z "},"a":{"ha":833,"x_min":108,"x_max":738,"o":"m 631 0 q 590 40 590 0 l 590 107 l 586 107 q 503 20 560 57 q 346 -17 447 -17 q 169 34 231 -17 q 108 181 108 85 q 122 261 108 224 q 166 325 135 299 q 250 367 197 351 q 382 382 303 382 l 590 382 l 590 494 q 535 655 590 603 q 382 707 479 707 q 246 674 306 707 q 156 569 186 642 l 132 583 q 224 693 163 653 q 382 733 286 733 q 557 672 494 733 q 619 499 619 611 l 619 26 l 738 26 l 738 0 l 631 0 m 346 10 q 439 22 394 10 q 517 59 483 35 q 570 120 550 83 q 590 206 590 157 l 590 357 l 383 357 q 196 314 251 357 q 140 203 140 271 l 140 158 q 197 48 140 86 q 346 10 254 10 z "},"b":{"ha":833,"x_min":174,"x_max":722,"o":"m 174 1028 l 203 1028 l 203 608 l 207 608 q 238 653 218 631 q 285 694 257 676 q 349 722 313 711 q 431 733 385 733 q 646 640 569 733 q 722 358 722 546 q 646 77 722 171 q 431 -17 569 -17 q 349 -6 385 -17 q 285 23 313 6 q 238 63 257 40 q 207 108 218 85 l 203 108 l 203 0 l 174 0 l 174 1028 m 431 10 q 624 94 557 10 q 690 325 690 178 l 690 392 q 624 623 690 539 q 431 707 557 707 q 344 693 386 707 q 272 654 303 679 q 222 594 240 629 q 203 518 203 560 l 203 199 q 222 122 203 157 q 272 63 240 88 q 344 24 303 38 q 431 10 386 10 z "},"c":{"ha":833,"x_min":153,"x_max":699,"o":"m 447 -17 q 231 77 308 -17 q 153 358 153 171 q 231 640 153 546 q 447 733 308 733 q 603 690 542 733 q 689 578 665 646 l 663 569 q 581 672 636 636 q 447 707 526 707 q 253 623 321 707 q 185 392 185 539 l 185 325 q 253 94 185 178 q 447 10 321 10 q 588 49 531 10 q 674 153 644 88 l 699 142 q 662 81 685 110 q 608 30 639 51 q 536 -4 576 8 q 447 -17 496 -17 z "},"d":{"ha":833,"x_min":111,"x_max":660,"o":"m 631 108 l 626 108 q 596 63 615 85 q 549 23 576 40 q 485 -6 521 6 q 403 -17 449 -17 q 188 77 264 -17 q 111 358 111 171 q 188 640 111 546 q 403 733 264 733 q 485 722 449 733 q 549 694 521 711 q 596 653 576 676 q 626 608 615 631 l 631 608 l 631 1028 l 660 1028 l 660 0 l 631 0 l 631 108 m 403 10 q 489 24 447 10 q 562 63 531 38 q 612 122 593 88 q 631 199 631 157 l 631 518 q 612 594 631 560 q 562 654 593 629 q 489 693 531 679 q 403 707 447 707 q 210 623 276 707 q 143 392 143 539 l 143 325 q 210 94 143 178 q 403 10 276 10 z "},"e":{"ha":833,"x_min":128,"x_max":710,"o":"m 425 -17 q 206 77 283 -17 q 128 358 128 171 q 204 640 128 546 q 419 733 281 733 q 545 708 490 733 q 636 635 600 682 q 691 521 672 588 q 710 371 710 454 l 710 361 l 160 361 l 160 325 q 228 94 160 178 q 425 10 296 10 q 578 52 515 10 q 674 182 642 94 l 699 172 q 598 34 667 85 q 425 -17 529 -17 m 419 707 q 226 623 293 707 q 160 392 160 539 l 160 386 l 679 386 l 679 392 q 613 623 679 539 q 419 707 546 707 z "},"f":{"ha":833,"x_min":117,"x_max":740,"o":"m 131 26 l 399 26 l 399 690 l 117 690 l 117 717 l 399 717 l 399 988 q 439 1028 399 1028 l 740 1028 l 740 1001 l 426 1001 l 426 717 l 740 717 l 740 690 l 426 690 l 426 26 l 708 26 l 708 0 l 131 0 l 131 26 z "},"g":{"ha":833,"x_min":125,"x_max":772,"o":"m 754 -87 q 668 -244 754 -194 q 422 -294 582 -294 q 195 -244 265 -294 q 125 -112 125 -194 q 162 -7 125 -49 q 265 56 199 35 l 265 60 q 209 95 226 71 q 192 153 192 119 q 228 231 192 201 q 310 275 264 261 l 310 279 q 217 360 250 306 q 183 494 183 414 q 247 668 183 603 q 424 733 311 733 q 578 686 515 733 l 578 742 q 618 779 578 779 l 772 779 l 772 753 l 604 753 l 604 663 q 648 590 632 632 q 664 494 664 547 q 647 396 664 440 q 597 320 629 351 q 522 272 565 289 q 424 256 478 256 q 385 258 403 256 q 346 265 367 261 q 219 154 219 232 q 224 125 219 139 q 243 101 229 111 q 281 83 257 90 q 340 76 304 76 l 528 76 q 701 32 649 76 q 754 -87 754 -12 m 724 -89 q 680 13 724 -24 q 524 49 636 49 l 308 49 q 200 -7 242 32 q 158 -114 158 -46 q 220 -228 158 -187 q 388 -268 282 -268 l 456 -268 q 565 -258 515 -268 q 649 -225 614 -247 q 704 -169 685 -203 q 724 -89 724 -135 m 424 282 q 577 335 524 282 q 631 468 631 389 l 631 521 q 577 653 631 600 q 424 707 524 707 q 270 653 324 707 q 217 521 217 600 l 217 468 q 272 335 217 389 q 424 282 326 282 z "},"h":{"ha":833,"x_min":176,"x_max":671,"o":"m 176 1028 l 206 1028 l 206 614 l 210 614 q 281 697 228 660 q 429 733 335 733 q 610 665 549 733 q 671 467 671 597 l 671 0 l 642 0 l 642 463 q 585 649 642 592 q 425 707 529 707 q 342 695 382 707 q 272 660 303 683 q 224 600 242 636 q 206 517 206 564 l 206 0 l 176 0 l 176 1028 z "},"i":{"ha":833,"x_min":163,"x_max":743,"o":"m 461 960 q 430 969 439 960 q 421 992 421 978 l 421 1003 q 430 1026 421 1017 q 461 1035 439 1035 q 492 1026 483 1035 q 501 1003 501 1017 l 501 992 q 492 969 501 978 q 461 960 483 960 m 163 26 l 447 26 l 447 690 l 163 690 l 163 717 l 476 717 l 476 26 l 743 26 l 743 0 l 163 0 l 163 26 z "},"j":{"ha":833,"x_min":133,"x_max":619,"o":"m 154 -251 l 564 -251 l 564 690 l 133 690 l 133 717 l 593 717 l 593 -237 q 553 -278 593 -278 l 154 -278 l 154 -251 m 579 960 q 548 969 557 960 q 539 992 539 978 l 539 1003 q 548 1026 539 1017 q 579 1035 557 1035 q 610 1026 601 1035 q 619 1003 619 1017 l 619 992 q 610 969 619 978 q 579 960 601 960 z "},"k":{"ha":833,"x_min":193,"x_max":779,"o":"m 193 1028 l 222 1028 l 222 304 l 226 304 l 390 447 l 701 717 l 740 717 l 418 436 l 779 0 l 743 0 l 396 417 l 222 267 l 222 0 l 193 0 l 193 1028 z "},"l":{"ha":833,"x_min":126,"x_max":708,"o":"m 126 26 l 403 26 l 403 1001 l 126 1001 l 126 1028 l 432 1028 l 432 26 l 708 26 l 708 0 l 126 0 l 126 26 z "},"m":{"ha":833,"x_min":101,"x_max":733,"o":"m 101 0 l 101 717 l 131 717 l 131 632 l 135 632 q 185 705 150 676 q 282 733 221 733 q 425 619 404 733 l 428 619 q 481 701 443 668 q 583 733 518 733 q 696 688 658 733 q 733 556 733 643 l 733 0 l 704 0 l 704 551 q 672 669 704 632 q 581 707 640 707 q 476 664 521 707 q 432 533 432 621 l 432 0 l 403 0 l 403 551 q 371 669 403 632 q 279 707 339 707 q 223 697 250 707 q 176 664 196 686 q 143 609 156 642 q 131 533 131 576 l 131 0 l 101 0 z "},"n":{"ha":833,"x_min":176,"x_max":671,"o":"m 176 0 l 176 717 l 206 717 l 206 614 l 210 614 q 281 697 228 660 q 429 733 335 733 q 610 665 549 733 q 671 467 671 597 l 671 0 l 642 0 l 642 463 q 585 649 642 592 q 425 707 529 707 q 342 695 382 707 q 272 660 303 683 q 224 600 242 636 q 206 517 206 564 l 206 0 l 176 0 z "},"o":{"ha":833,"x_min":125,"x_max":708,"o":"m 417 -17 q 201 77 278 -17 q 125 358 125 171 q 201 640 125 546 q 417 733 278 733 q 632 640 556 733 q 708 358 708 546 q 632 77 708 171 q 417 -17 556 -17 m 417 10 q 610 94 543 10 q 676 325 676 178 l 676 392 q 610 623 676 539 q 417 707 543 707 q 224 623 290 707 q 157 392 157 539 l 157 325 q 224 94 157 178 q 417 10 290 10 z "},"p":{"ha":833,"x_min":174,"x_max":722,"o":"m 174 717 l 203 717 l 203 608 l 207 608 q 238 653 218 631 q 285 694 257 676 q 349 722 313 711 q 431 733 385 733 q 646 640 569 733 q 722 358 722 546 q 646 77 722 171 q 431 -17 569 -17 q 349 -6 385 -17 q 285 23 313 6 q 238 63 257 40 q 207 108 218 85 l 203 108 l 203 -278 l 174 -278 l 174 717 m 431 10 q 624 94 557 10 q 690 325 690 178 l 690 392 q 624 623 690 539 q 431 707 557 707 q 344 693 386 707 q 272 654 303 679 q 222 594 240 629 q 203 518 203 560 l 203 199 q 222 122 203 157 q 272 63 240 88 q 344 24 303 38 q 431 10 386 10 z "},"q":{"ha":833,"x_min":111,"x_max":660,"o":"m 631 108 l 626 108 q 596 63 615 85 q 549 23 576 40 q 485 -6 521 6 q 403 -17 449 -17 q 188 77 264 -17 q 111 358 111 171 q 188 640 111 546 q 403 733 264 733 q 485 722 449 733 q 549 694 521 711 q 596 653 576 676 q 626 608 615 631 l 631 608 l 631 717 l 660 717 l 660 -278 l 631 -278 l 631 108 m 403 10 q 489 24 447 10 q 562 63 531 38 q 612 122 593 88 q 631 199 631 157 l 631 518 q 612 594 631 560 q 562 654 593 629 q 489 693 531 679 q 403 707 447 707 q 210 623 276 707 q 143 392 143 539 l 143 325 q 210 94 143 178 q 403 10 276 10 z "},"r":{"ha":833,"x_min":111,"x_max":772,"o":"m 111 26 l 358 26 l 358 690 l 111 690 l 111 717 l 388 717 l 388 578 l 392 578 q 422 632 404 607 q 465 676 439 657 q 528 706 492 694 q 613 717 564 717 l 772 717 l 772 690 l 607 690 q 524 676 564 690 q 454 634 485 663 q 406 563 424 606 q 388 460 388 519 l 388 26 l 701 26 l 701 0 l 111 0 l 111 26 z "},"s":{"ha":833,"x_min":126,"x_max":718,"o":"m 442 -17 q 126 125 239 -17 l 147 143 q 274 41 203 72 q 440 10 344 10 q 621 54 553 10 q 689 192 689 99 q 676 258 689 232 q 637 302 663 285 q 575 329 611 319 q 493 346 539 339 l 382 361 q 292 379 333 368 q 222 410 251 390 q 176 462 193 431 q 160 542 160 493 q 180 631 160 594 q 235 690 200 667 q 315 723 269 713 q 414 733 361 733 q 509 724 467 733 q 584 699 551 714 q 642 663 617 683 q 688 621 668 642 l 668 600 q 626 640 649 621 q 572 674 603 660 q 503 698 542 689 q 413 707 464 707 q 250 668 311 707 q 189 543 189 629 q 202 476 189 503 q 241 433 215 450 q 303 405 267 415 q 385 389 339 394 l 496 374 q 585 356 544 367 q 656 324 626 344 q 701 272 685 304 q 718 193 718 240 q 697 99 718 139 q 638 34 675 60 q 551 -4 601 8 q 442 -17 500 -17 z "},"t":{"ha":833,"x_min":50,"x_max":725,"o":"m 369 0 q 329 40 329 0 l 329 690 l 50 690 l 50 717 l 289 717 q 329 757 329 717 l 329 969 l 358 969 l 358 717 l 725 717 l 725 690 l 358 690 l 358 26 l 725 26 l 725 0 l 369 0 z "},"u":{"ha":833,"x_min":163,"x_max":657,"o":"m 628 103 l 624 103 q 597 58 614 79 q 552 19 579 36 q 488 -7 525 3 q 404 -17 451 -17 q 224 51 285 -17 q 163 250 163 119 l 163 717 l 192 717 l 192 254 q 248 67 192 125 q 408 10 304 10 q 491 22 451 10 q 561 57 531 33 q 610 116 592 81 q 628 200 628 151 l 628 717 l 657 717 l 657 0 l 628 0 l 628 103 z "},"v":{"ha":833,"x_min":129,"x_max":704,"o":"m 399 0 l 129 717 l 160 717 l 415 33 l 419 33 l 675 717 l 704 717 l 435 0 l 399 0 z "},"w":{"ha":833,"x_min":53,"x_max":781,"o":"m 53 717 l 81 717 l 211 26 l 215 26 l 396 717 l 439 717 l 619 26 l 624 26 l 754 717 l 781 717 l 646 0 l 599 0 l 419 689 l 415 689 l 235 0 l 188 0 l 53 717 z "},"x":{"ha":833,"x_min":124,"x_max":710,"o":"m 124 0 l 399 360 l 128 717 l 164 717 l 415 385 l 418 385 l 671 717 l 706 717 l 435 361 l 710 0 l 674 0 l 418 338 l 415 338 l 158 0 l 124 0 z "},"y":{"ha":833,"x_min":115,"x_max":718,"o":"m 688 717 l 718 717 l 315 -251 q 272 -278 303 -278 l 131 -278 l 131 -251 l 285 -251 l 401 26 l 115 717 l 147 717 l 415 68 l 419 68 l 688 717 z "},"z":{"ha":833,"x_min":142,"x_max":692,"o":"m 142 0 l 142 29 l 646 690 l 156 690 l 156 717 l 678 717 l 678 688 l 174 26 l 692 26 l 692 0 l 142 0 z "},"A":{"ha":833,"x_min":72,"x_max":761,"o":"m 729 0 l 621 325 l 213 325 l 104 0 l 72 0 l 396 969 l 438 969 l 761 0 l 729 0 m 418 935 l 414 935 l 221 351 l 613 351 l 418 935 z "},"B":{"ha":833,"x_min":136,"x_max":717,"o":"m 136 969 l 444 969 q 613 908 553 969 q 672 724 672 846 q 637 574 672 628 q 538 499 601 519 l 538 496 q 672 416 628 479 q 717 253 717 353 q 656 69 717 138 q 475 0 594 0 l 136 0 l 136 969 m 475 28 q 568 44 529 28 q 633 88 607 61 q 671 151 658 115 q 683 224 683 186 l 683 282 q 671 355 683 319 q 633 417 658 390 q 568 461 607 444 q 475 478 529 478 l 167 478 l 167 28 l 475 28 m 444 506 q 531 521 494 506 q 592 563 568 536 q 627 623 615 589 q 639 694 639 657 l 639 753 q 627 824 639 790 q 592 885 615 858 q 531 926 568 911 q 444 942 494 942 l 167 942 l 167 506 l 444 506 z "},"C":{"ha":833,"x_min":110,"x_max":719,"o":"m 451 -17 q 306 12 369 -17 q 198 101 242 40 q 132 256 154 161 q 110 485 110 351 q 132 713 110 618 q 198 869 154 808 q 306 958 242 929 q 451 986 369 986 q 619 933 550 986 q 719 790 688 881 l 693 781 q 603 911 665 864 q 451 958 540 958 q 222 851 300 958 q 143 529 143 744 l 143 440 q 222 118 143 225 q 451 11 300 11 q 603 58 540 11 q 693 189 665 106 l 719 179 q 619 36 688 89 q 451 -17 550 -17 z "},"D":{"ha":833,"x_min":150,"x_max":733,"o":"m 150 969 l 403 969 q 656 848 578 969 q 733 485 733 726 q 656 122 733 243 q 403 0 578 0 l 150 0 l 150 969 m 404 28 q 538 56 482 28 q 629 138 593 85 q 683 267 665 190 q 700 440 700 344 l 700 529 q 683 702 700 625 q 629 832 665 779 q 538 913 593 885 q 404 942 482 942 l 181 942 l 181 28 l 404 28 z "},"E":{"ha":833,"x_min":150,"x_max":714,"o":"m 150 0 l 150 969 l 714 969 l 714 942 l 181 942 l 181 506 l 694 506 l 694 478 l 181 478 l 181 28 l 714 28 l 714 0 l 150 0 z "},"F":{"ha":833,"x_min":150,"x_max":719,"o":"m 150 0 l 150 969 l 719 969 l 719 942 l 181 942 l 181 506 l 681 506 l 681 478 l 181 478 l 181 0 l 150 0 z "},"G":{"ha":833,"x_min":104,"x_max":713,"o":"m 682 143 l 678 143 q 644 81 664 110 q 597 30 625 51 q 528 -4 568 8 q 435 -17 489 -17 q 294 12 356 -17 q 190 101 232 40 q 126 256 149 161 q 104 485 104 351 q 126 713 104 618 q 190 869 149 808 q 294 958 232 929 q 435 986 356 986 q 599 933 531 986 q 699 790 668 881 l 672 781 q 583 911 644 864 q 435 958 522 958 q 213 851 289 958 q 138 529 138 744 l 138 440 q 213 118 138 225 q 435 11 289 11 q 539 31 493 11 q 617 84 585 50 q 665 166 649 118 q 682 271 682 214 l 682 410 l 435 410 l 435 438 l 713 438 l 713 0 l 682 0 l 682 143 z "},"H":{"ha":833,"x_min":136,"x_max":697,"o":"m 667 478 l 167 478 l 167 0 l 136 0 l 136 969 l 167 969 l 167 506 l 667 506 l 667 969 l 697 969 l 697 0 l 667 0 l 667 478 z "},"I":{"ha":833,"x_min":128,"x_max":706,"o":"m 128 0 l 128 26 l 401 26 l 401 943 l 128 943 l 128 969 l 706 969 l 706 943 l 432 943 l 432 26 l 706 26 l 706 0 l 128 0 z "},"J":{"ha":833,"x_min":133,"x_max":640,"o":"m 640 969 l 640 263 q 572 56 640 128 q 385 -17 503 -17 q 219 31 285 -17 q 133 165 153 79 l 163 172 q 235 54 181 97 q 385 11 290 11 q 551 76 492 11 q 610 265 610 142 l 610 942 l 218 942 l 218 969 l 640 969 z "},"K":{"ha":833,"x_min":150,"x_max":761,"o":"m 367 538 l 181 332 l 181 0 l 150 0 l 150 969 l 181 969 l 181 374 l 183 374 l 374 585 l 721 969 l 757 969 l 389 560 l 761 0 l 725 0 l 367 538 z "},"L":{"ha":833,"x_min":203,"x_max":733,"o":"m 203 0 l 203 969 l 233 969 l 233 28 l 733 28 l 733 0 l 203 0 z "},"M":{"ha":833,"x_min":118,"x_max":715,"o":"m 686 926 l 682 926 l 417 340 l 151 926 l 147 926 l 147 0 l 118 0 l 118 969 l 163 969 l 415 410 l 419 410 l 671 969 l 715 969 l 715 0 l 686 0 l 686 926 z "},"N":{"ha":833,"x_min":136,"x_max":697,"o":"m 169 928 l 165 928 l 165 0 l 136 0 l 136 969 l 181 969 l 664 42 l 668 42 l 668 969 l 697 969 l 697 0 l 653 0 l 169 928 z "},"O":{"ha":833,"x_min":99,"x_max":735,"o":"m 417 -17 q 281 12 340 -17 q 181 101 222 40 q 119 256 140 161 q 99 485 99 351 q 119 713 99 618 q 181 869 140 808 q 281 958 222 929 q 417 986 340 986 q 552 958 493 986 q 651 869 611 929 q 713 713 692 808 q 735 485 735 618 q 713 256 735 351 q 651 101 692 161 q 552 12 611 40 q 417 -17 493 -17 m 417 11 q 628 118 556 11 q 701 440 701 225 l 701 529 q 628 851 701 744 q 417 958 556 958 q 205 851 278 958 q 132 529 132 744 l 132 440 q 205 118 132 225 q 417 11 278 11 z "},"P":{"ha":833,"x_min":150,"x_max":731,"o":"m 150 0 l 150 969 l 489 969 q 669 899 608 969 q 731 708 731 828 q 669 518 731 589 q 489 447 608 447 l 181 447 l 181 0 l 150 0 m 181 475 l 489 475 q 582 492 543 475 q 647 538 621 510 q 685 602 672 565 q 697 679 697 639 l 697 738 q 685 814 697 776 q 647 879 672 851 q 582 924 621 907 q 489 942 543 942 l 181 942 l 181 475 z "},"Q":{"ha":833,"x_min":99,"x_max":735,"o":"m 660 -189 l 443 -189 q 401 -149 401 -189 l 401 -17 q 272 16 328 -14 q 177 107 215 46 q 119 261 139 168 q 99 485 99 354 q 119 713 99 618 q 181 869 140 808 q 281 958 222 929 q 417 986 340 986 q 552 958 493 986 q 651 869 611 929 q 713 713 692 808 q 735 485 735 618 q 715 261 735 354 q 656 107 694 168 q 560 16 617 46 q 432 -17 504 -14 l 432 -161 l 660 -161 l 660 -189 m 417 11 q 628 118 556 11 q 701 440 701 225 l 701 529 q 628 851 701 744 q 417 958 556 958 q 205 851 278 958 q 132 529 132 744 l 132 440 q 205 118 132 225 q 417 11 278 11 z "},"R":{"ha":833,"x_min":150,"x_max":731,"o":"m 181 0 l 150 0 l 150 969 l 489 969 q 669 899 608 969 q 731 708 731 828 q 669 518 731 589 q 489 447 608 447 l 436 447 l 724 0 l 688 0 l 401 447 l 181 447 l 181 0 m 489 475 q 582 492 543 475 q 647 538 621 510 q 685 602 672 565 q 697 679 697 639 l 697 738 q 685 814 697 776 q 647 879 672 851 q 582 924 621 907 q 489 942 543 942 l 181 942 l 181 475 l 489 475 z "},"S":{"ha":833,"x_min":92,"x_max":732,"o":"m 422 -17 q 308 -5 358 -17 q 219 28 258 7 q 149 78 179 49 q 92 142 118 107 l 117 160 q 171 99 142 126 q 236 52 200 72 q 317 22 272 32 q 422 11 363 11 q 628 70 556 11 q 701 244 701 129 q 683 345 701 304 q 633 412 664 386 q 560 452 601 438 q 474 474 518 467 l 363 492 q 241 528 289 504 q 165 586 193 553 q 125 660 136 619 q 114 743 114 700 q 135 850 114 804 q 197 926 157 896 q 292 971 236 956 q 415 986 347 986 q 605 949 533 986 q 717 851 676 911 l 693 832 q 583 926 650 894 q 413 958 517 958 q 215 905 286 958 q 144 743 144 851 q 163 647 144 686 q 211 583 181 608 q 282 542 242 557 q 368 521 322 528 l 479 503 q 605 465 556 490 q 682 404 654 439 q 721 329 710 369 q 732 246 732 289 q 648 49 732 115 q 422 -17 564 -17 z "},"T":{"ha":833,"x_min":57,"x_max":776,"o":"m 432 942 l 432 0 l 401 0 l 401 942 l 57 942 l 57 969 l 776 969 l 776 942 l 432 942 z "},"U":{"ha":833,"x_min":136,"x_max":697,"o":"m 167 969 l 167 379 q 178 201 167 272 q 219 88 190 131 q 295 28 247 46 q 417 11 343 11 q 538 28 489 11 q 615 88 586 46 q 655 201 643 131 q 667 379 667 272 l 667 969 l 697 969 l 697 379 q 683 189 697 265 q 637 67 669 113 q 550 2 604 21 q 417 -17 496 -17 q 283 2 338 -17 q 197 67 229 21 q 150 189 164 113 q 136 379 136 265 l 136 969 l 167 969 z "},"V":{"ha":833,"x_min":76,"x_max":757,"o":"m 396 0 l 76 969 l 110 969 l 415 35 l 419 35 l 726 969 l 757 969 l 438 0 l 396 0 z "},"W":{"ha":833,"x_min":81,"x_max":753,"o":"m 175 0 l 81 969 l 110 969 l 201 31 l 207 31 l 399 672 l 436 672 l 628 31 l 633 31 l 725 969 l 753 969 l 658 0 l 606 0 l 419 631 l 415 631 l 228 0 l 175 0 z "},"X":{"ha":833,"x_min":68,"x_max":765,"o":"m 765 0 l 728 0 l 419 467 l 415 467 l 104 0 l 68 0 l 399 492 l 81 969 l 118 969 l 415 521 l 419 521 l 717 969 l 753 969 l 436 496 l 765 0 z "},"Y":{"ha":833,"x_min":39,"x_max":794,"o":"m 401 0 l 401 408 l 39 969 l 74 969 l 415 442 l 419 442 l 761 969 l 794 969 l 432 408 l 432 0 l 401 0 z "},"Z":{"ha":833,"x_min":67,"x_max":767,"o":"m 767 0 l 67 0 l 67 31 l 701 942 l 99 942 l 99 969 l 735 969 l 735 939 l 100 28 l 767 28 l 767 0 z "},"&":{"ha":833,"x_min":58,"x_max":756,"o":"m 318 -17 q 208 2 257 -17 q 126 55 160 21 q 76 137 93 89 q 58 242 58 185 q 67 324 58 283 q 99 403 76 365 q 158 476 121 442 q 251 538 194 510 q 183 640 211 583 q 154 767 154 697 q 213 926 154 865 q 368 986 271 986 q 503 947 450 986 q 581 851 556 907 l 554 839 q 484 923 529 888 q 368 958 439 958 q 235 909 283 958 q 186 772 186 860 l 186 753 q 213 648 186 700 q 279 550 239 596 l 572 207 l 576 207 q 590 256 585 229 q 600 317 596 282 q 608 396 604 351 q 614 497 611 440 l 756 497 l 756 469 l 642 469 q 625 296 635 363 q 597 182 615 229 l 753 0 l 717 0 l 588 150 l 583 150 q 478 28 546 74 q 318 -17 411 -17 m 319 11 q 468 55 406 11 q 564 174 531 99 l 268 517 q 181 459 215 490 q 127 394 147 428 q 99 326 107 361 q 90 257 90 292 l 90 225 q 106 142 90 181 q 150 74 121 103 q 222 28 179 44 q 319 11 265 11 z "},"@":{"ha":833,"x_min":129,"x_max":683,"o":"m 654 -147 l 447 -147 q 285 -108 347 -147 q 189 3 224 -69 q 142 178 154 75 q 129 407 129 281 q 145 671 129 561 q 195 851 161 781 q 284 953 229 921 q 418 986 339 986 q 546 958 494 986 q 628 882 597 929 q 671 772 658 835 q 683 643 683 710 l 683 132 l 656 132 l 656 214 l 651 214 q 597 147 632 172 q 503 121 563 121 q 359 188 410 121 q 308 407 308 254 q 359 626 308 560 q 503 693 410 693 q 597 667 563 693 q 651 600 632 642 l 656 600 l 656 643 q 644 767 656 710 q 604 868 632 825 q 531 935 576 911 q 419 960 486 960 q 301 931 350 960 q 220 838 251 901 q 174 676 189 775 q 160 440 160 578 l 160 378 q 172 174 160 267 q 215 17 183 82 q 302 -85 246 -49 q 447 -121 358 -121 l 654 -121 l 654 -147 m 507 146 q 616 189 576 146 q 656 307 656 232 l 656 507 q 616 625 656 582 q 507 668 576 668 q 438 656 469 668 q 385 615 407 643 q 351 541 364 586 q 339 429 339 496 l 339 385 q 351 273 339 318 q 385 199 364 228 q 438 158 407 171 q 507 146 469 146 z "},"-":{"ha":833,"x_min":233,"x_max":600,"o":"m 233 410 l 233 438 l 600 438 l 600 410 l 233 410 z "},"­":{"ha":833,"x_min":233,"x_max":600,"o":"m 233 410 l 233 438 l 600 438 l 600 410 l 233 410 z "},"–":{"ha":833,"x_min":83,"x_max":750,"o":"m 83 411 l 83 438 l 750 438 l 750 411 l 83 411 z "},"—":{"ha":833,"x_min":0,"x_max":833,"o":"m 0 411 l 0 438 l 833 438 l 833 411 l 0 411 z "},"_":{"ha":833,"x_min":83,"x_max":750,"o":"m 83 -196 l 83 -169 l 750 -169 l 750 -196 l 83 -196 z "},".":{"ha":833,"x_min":369,"x_max":464,"o":"m 417 -7 q 369 31 369 -7 l 369 42 q 417 79 369 79 q 464 42 464 79 l 464 31 q 417 -7 464 -7 z "},"…":{"ha":833,"x_min":133,"x_max":700,"o":"m 181 -7 q 144 4 154 -7 q 133 31 133 15 l 133 42 q 144 68 133 57 q 181 79 154 79 q 217 68 207 79 q 228 42 228 57 l 228 31 q 217 4 228 15 q 181 -7 207 -7 m 417 -7 q 380 4 390 -7 q 369 31 369 15 l 369 42 q 380 68 369 57 q 417 79 390 79 q 453 68 443 79 q 464 42 464 57 l 464 31 q 453 4 464 15 q 417 -7 443 -7 m 653 -7 q 616 4 626 -7 q 606 31 606 15 l 606 42 q 616 68 606 57 q 653 79 626 79 q 690 68 679 79 q 700 42 700 57 l 700 31 q 690 4 700 15 q 653 -7 679 -7 z "},":":{"ha":833,"x_min":369,"x_max":464,"o":"m 417 -7 q 369 31 369 -7 l 369 42 q 417 79 369 79 q 464 42 464 79 l 464 31 q 417 -7 464 -7 m 417 638 q 369 675 369 638 l 369 686 q 417 724 369 724 q 464 686 464 724 l 464 675 q 417 638 464 638 z "},",":{"ha":833,"x_min":319,"x_max":453,"o":"m 393 108 l 453 108 l 343 -239 l 319 -239 l 393 108 z "},";":{"ha":833,"x_min":319,"x_max":464,"o":"m 393 108 l 453 108 l 343 -239 l 319 -239 l 393 108 m 417 638 q 369 675 369 638 l 369 686 q 417 724 369 724 q 464 686 464 724 l 464 675 q 417 638 464 638 z "},"'":{"ha":833,"x_min":400,"x_max":433,"o":"m 400 681 l 400 1028 l 433 1028 l 433 681 l 400 681 z "},"\"":{"ha":833,"x_min":310,"x_max":525,"o":"m 310 681 l 310 1028 l 343 1028 l 343 681 l 310 681 m 492 681 l 492 1028 l 525 1028 l 525 681 l 492 681 z "},"‘":{"ha":833,"x_min":336,"x_max":469,"o":"m 446 1028 l 469 1028 l 396 681 l 336 681 l 446 1028 z "},"’":{"ha":833,"x_min":364,"x_max":497,"o":"m 438 1028 l 497 1028 l 388 681 l 364 681 l 438 1028 z "},"“":{"ha":833,"x_min":224,"x_max":583,"o":"m 333 1028 l 357 1028 l 283 681 l 224 681 l 333 1028 m 560 1028 l 583 1028 l 510 681 l 450 681 l 560 1028 z "},"”":{"ha":833,"x_min":251,"x_max":611,"o":"m 325 1028 l 385 1028 l 275 681 l 251 681 l 325 1028 m 551 1028 l 611 1028 l 501 681 l 478 681 l 551 1028 z "},"‚":{"ha":833,"x_min":319,"x_max":453,"o":"m 393 108 l 453 108 l 343 -239 l 319 -239 l 393 108 z "},"„":{"ha":833,"x_min":207,"x_max":567,"o":"m 281 108 l 340 108 l 231 -239 l 207 -239 l 281 108 m 507 108 l 567 108 l 457 -239 l 433 -239 l 507 108 z "},"‹":{"ha":833,"x_min":233,"x_max":543,"o":"m 531 106 l 233 358 l 233 386 l 531 639 l 543 618 l 265 372 l 543 126 l 531 106 z "},"›":{"ha":833,"x_min":290,"x_max":600,"o":"m 290 126 l 568 372 l 290 618 l 303 639 l 600 386 l 600 358 l 303 106 l 290 126 z "},"«":{"ha":833,"x_min":118,"x_max":725,"o":"m 415 106 l 118 358 l 118 386 l 415 639 l 428 618 l 150 372 l 428 126 l 415 106 m 713 106 l 415 358 l 415 386 l 713 639 l 725 618 l 447 372 l 725 126 l 713 106 z "},"»":{"ha":833,"x_min":110,"x_max":717,"o":"m 110 126 l 388 372 l 110 618 l 122 639 l 419 386 l 419 358 l 122 106 l 110 126 m 407 126 l 685 372 l 407 618 l 419 639 l 717 386 l 717 358 l 419 106 l 407 126 z "},"¡":{"ha":833,"x_min":369,"x_max":464,"o":"m 401 -253 l 401 140 l 408 472 l 425 472 l 432 140 l 432 -253 l 401 -253 m 417 638 q 369 675 369 638 l 369 686 q 417 724 369 724 q 464 686 464 724 l 464 675 q 417 638 464 638 z "},"!":{"ha":833,"x_min":369,"x_max":464,"o":"m 408 244 l 401 576 l 401 969 l 432 969 l 432 576 l 425 244 l 408 244 m 417 -7 q 369 31 369 -7 l 369 42 q 417 79 369 79 q 464 42 464 79 l 464 31 q 417 -7 464 -7 z "},"¿":{"ha":833,"x_min":143,"x_max":700,"o":"m 404 -269 q 294 -251 343 -269 q 213 -201 246 -233 q 161 -122 179 -168 q 143 -21 143 -76 q 219 170 143 97 q 431 258 296 243 l 431 472 l 461 472 l 461 232 q 250 160 325 225 q 175 -8 175 96 l 175 -33 q 235 -185 175 -128 q 404 -243 296 -243 q 574 -190 504 -243 q 672 -36 643 -137 l 700 -44 q 591 -211 668 -153 q 404 -269 514 -269 m 446 638 q 399 675 399 638 l 399 686 q 446 724 399 724 q 493 686 493 724 l 493 675 q 446 638 493 638 z "},"?":{"ha":833,"x_min":140,"x_max":690,"o":"m 372 244 l 372 485 q 584 551 510 488 q 658 717 658 615 l 658 753 q 597 902 658 844 q 425 960 536 960 q 256 910 318 960 q 168 769 194 861 l 140 776 q 239 931 168 876 q 425 986 310 986 q 620 918 550 986 q 690 738 690 850 q 616 543 690 615 q 403 458 542 471 l 403 244 l 372 244 m 388 -7 q 340 31 340 -7 l 340 42 q 388 79 340 79 q 435 42 435 79 l 435 31 q 388 -7 435 -7 z "},"(":{"ha":833,"x_min":331,"x_max":646,"o":"m 331 432 q 352 631 331 538 q 412 803 374 725 q 501 945 450 882 q 610 1056 551 1008 l 646 1056 q 532 943 585 1007 q 441 803 479 879 q 381 639 403 726 q 360 456 360 551 l 360 408 q 381 225 360 313 q 441 61 403 138 q 532 -80 479 -15 q 646 -192 585 -144 l 610 -192 q 501 -81 551 -144 q 412 60 450 -18 q 352 232 374 139 q 331 432 331 325 z "},")":{"ha":833,"x_min":188,"x_max":503,"o":"m 503 432 q 481 232 503 325 q 422 60 460 139 q 333 -81 383 -18 q 224 -192 282 -144 l 188 -192 q 301 -80 249 -144 q 392 61 354 -15 q 452 225 431 138 q 474 408 474 313 l 474 456 q 452 639 474 551 q 392 803 431 726 q 301 943 354 879 q 188 1056 249 1007 l 224 1056 q 333 945 282 1008 q 422 803 383 882 q 481 631 460 725 q 503 432 503 538 z "},"[":{"ha":833,"x_min":368,"x_max":699,"o":"m 368 -192 l 368 1056 l 699 1056 l 699 1031 l 396 1031 l 396 -167 l 699 -167 l 699 -192 l 368 -192 z "},"]":{"ha":833,"x_min":135,"x_max":465,"o":"m 465 1056 l 465 -192 l 135 -192 l 135 -167 l 438 -167 l 438 1031 l 135 1031 l 135 1056 l 465 1056 z "},"{":{"ha":833,"x_min":161,"x_max":672,"o":"m 408 -192 q 368 -151 368 -192 l 368 -3 q 375 67 368 38 q 392 119 382 97 q 414 155 403 140 q 433 179 425 169 q 477 244 467 221 q 488 292 488 268 q 428 389 488 358 q 256 419 368 419 l 161 419 l 161 444 l 256 444 q 428 475 368 444 q 488 572 488 506 q 477 619 488 596 q 433 685 467 643 q 414 709 425 694 q 392 745 403 724 q 375 797 382 767 q 368 867 368 826 l 368 1015 q 408 1056 368 1056 l 672 1056 l 672 1031 l 396 1031 l 396 867 q 402 799 396 826 q 418 751 408 771 q 438 719 428 732 q 456 697 449 707 q 503 626 492 653 q 515 571 515 599 q 469 474 515 508 q 350 433 422 439 l 350 431 q 469 390 422 425 q 515 293 515 356 q 503 238 515 265 q 456 167 492 211 q 438 144 449 157 q 418 113 428 132 q 402 65 408 93 q 396 -3 396 36 l 396 -167 l 672 -167 l 672 -192 l 408 -192 z "},"}":{"ha":833,"x_min":161,"x_max":672,"o":"m 425 1056 q 465 1015 465 1056 l 465 867 q 458 797 465 826 q 441 745 451 767 q 419 709 431 724 q 400 685 408 694 q 356 619 367 643 q 346 572 346 596 q 406 475 346 506 q 578 444 465 444 l 672 444 l 672 419 l 578 419 q 406 389 465 419 q 346 292 346 358 q 356 244 346 268 q 400 179 367 221 q 419 155 408 169 q 441 119 431 140 q 458 67 451 97 q 465 -3 465 38 l 465 -151 q 425 -192 465 -192 l 161 -192 l 161 -167 l 438 -167 l 438 -3 q 431 65 438 36 q 415 113 424 93 q 395 144 406 132 q 378 167 385 157 q 330 238 342 211 q 318 293 318 265 q 365 390 318 356 q 483 431 411 425 l 483 433 q 365 474 411 439 q 318 571 318 508 q 330 626 318 599 q 378 697 342 653 q 395 719 385 707 q 415 751 406 732 q 431 799 424 771 q 438 867 438 826 l 438 1031 l 161 1031 l 161 1056 l 425 1056 z "},"/":{"ha":833,"x_min":146,"x_max":688,"o":"m 146 -192 l 661 1056 l 688 1056 l 172 -192 l 146 -192 z "},"\\":{"ha":833,"x_min":146,"x_max":688,"o":"m 661 -192 l 146 1056 l 172 1056 l 688 -192 l 661 -192 z "},"⁄":{"ha":833,"x_min":39,"x_max":794,"o":"m 765 969 l 794 969 l 532 553 l 503 553 l 765 969 m 301 417 l 331 417 l 68 0 l 39 0 l 301 417 z "},"∕":{"ha":833,"x_min":39,"x_max":794,"o":"m 765 969 l 794 969 l 532 553 l 503 553 l 765 969 m 301 417 l 331 417 l 68 0 l 39 0 l 301 417 z "},"%":{"ha":833,"x_min":39,"x_max":794,"o":"m 240 522 q 167 535 201 522 q 106 576 132 549 q 64 648 79 604 q 49 754 49 692 q 64 860 49 817 q 106 932 79 904 q 167 973 132 960 q 240 986 201 986 q 314 973 279 986 q 375 932 349 960 q 417 860 401 904 q 432 754 432 817 q 417 648 432 692 q 375 576 401 604 q 314 535 349 549 q 240 522 279 522 m 240 546 q 300 556 271 546 q 352 590 329 567 q 388 649 375 613 q 401 735 401 685 l 401 774 q 388 860 401 824 q 352 919 375 896 q 300 952 329 942 q 240 963 271 963 q 180 952 208 963 q 128 919 151 942 q 92 860 106 896 q 79 774 79 824 l 79 735 q 92 649 79 685 q 128 590 106 613 q 180 556 151 567 q 240 546 208 546 m 765 969 l 794 969 l 546 553 l 517 553 l 765 969 m 288 417 l 317 417 l 68 0 l 39 0 l 288 417 m 593 -17 q 519 -3 554 -17 q 458 38 485 10 q 417 109 432 65 q 401 215 401 153 q 417 322 401 278 q 458 393 432 365 q 519 434 485 421 q 593 447 554 447 q 667 434 632 447 q 728 393 701 421 q 769 322 754 365 q 785 215 785 278 q 769 109 785 153 q 728 38 754 65 q 667 -3 701 10 q 593 -17 632 -17 m 593 7 q 653 17 624 7 q 705 51 682 28 q 741 110 728 74 q 754 196 754 146 l 754 235 q 741 321 754 285 q 705 380 728 357 q 653 413 682 403 q 593 424 624 424 q 533 413 561 424 q 481 380 504 403 q 445 321 458 357 q 432 235 432 285 l 432 196 q 445 110 432 146 q 481 51 458 74 q 533 17 504 28 q 593 7 561 7 z "},"‰":{"ha":833,"x_min":6,"x_max":839,"o":"m 183 556 q 115 567 147 556 q 58 606 82 579 q 19 672 33 632 q 6 771 6 713 q 19 869 6 829 q 58 936 33 910 q 115 974 82 963 q 183 986 147 986 q 252 974 219 986 q 309 936 285 963 q 347 869 333 910 q 361 771 361 829 q 347 672 361 713 q 309 606 333 632 q 252 567 285 579 q 183 556 219 556 m 183 579 q 239 589 213 579 q 285 619 265 599 q 318 673 306 640 q 331 751 331 706 l 331 790 q 318 869 331 836 q 285 922 306 901 q 239 953 265 943 q 183 963 213 963 q 128 953 154 963 q 81 922 101 943 q 49 869 61 901 q 36 790 36 836 l 36 751 q 49 673 36 706 q 81 619 61 640 q 128 589 101 599 q 183 579 154 579 m 104 432 l 721 690 l 731 668 l 114 410 l 104 432 m 336 -17 q 267 -5 300 -17 q 210 33 235 7 q 172 100 186 60 q 158 199 158 140 q 172 297 158 257 q 210 364 186 338 q 267 402 235 390 q 336 414 300 414 q 433 387 389 414 q 497 301 476 360 l 500 301 q 565 387 521 360 q 661 414 608 414 q 730 402 697 414 q 787 364 763 390 q 825 297 811 338 q 839 199 839 257 q 825 100 839 140 q 787 33 811 60 q 730 -5 763 7 q 661 -17 697 -17 q 565 10 608 -17 q 500 96 521 38 l 497 96 q 433 10 476 38 q 336 -17 389 -17 m 336 7 q 392 17 365 7 q 438 47 418 26 q 471 101 458 68 q 483 179 483 133 l 483 218 q 471 297 483 264 q 438 350 458 329 q 392 381 418 371 q 336 390 365 390 q 281 381 307 390 q 234 350 254 371 q 201 297 214 329 q 189 218 189 264 l 189 179 q 201 101 189 133 q 234 47 214 68 q 281 17 254 26 q 336 7 307 7 m 661 7 q 717 17 690 7 q 763 47 743 26 q 796 101 783 68 q 808 179 808 133 l 808 218 q 796 297 808 264 q 763 350 783 329 q 717 381 743 371 q 661 390 690 390 q 606 381 632 390 q 559 350 579 371 q 526 297 539 329 q 514 218 514 264 l 514 179 q 526 101 514 133 q 559 47 539 68 q 606 17 579 26 q 661 7 632 7 z "},"|":{"ha":833,"x_min":403,"x_max":431,"o":"m 403 -192 l 403 1056 l 431 1056 l 431 -192 l 403 -192 z "},"¦":{"ha":833,"x_min":403,"x_max":431,"o":"m 403 557 l 403 1056 l 431 1056 l 431 557 l 403 557 m 403 -192 l 403 307 l 431 307 l 431 -192 l 403 -192 z "},"§":{"ha":833,"x_min":138,"x_max":696,"o":"m 639 -18 q 620 -106 639 -68 q 569 -167 601 -143 q 492 -202 536 -190 q 399 -214 449 -214 q 274 -192 328 -214 q 185 -136 219 -169 l 203 -115 q 282 -167 235 -146 q 400 -187 329 -187 q 554 -144 499 -187 q 610 -18 610 -101 q 596 50 610 21 q 558 100 582 79 q 502 135 533 121 q 438 160 471 149 l 344 190 q 259 224 297 206 q 194 269 221 243 q 152 329 167 294 q 138 411 138 364 q 181 541 138 490 q 297 619 225 592 l 297 624 q 222 694 249 653 q 194 790 194 736 q 213 878 194 840 q 265 939 232 915 q 341 974 297 963 q 435 986 385 986 q 562 964 510 986 q 649 908 614 942 l 631 888 q 551 939 599 918 q 433 960 504 960 q 279 917 335 960 q 224 790 224 874 q 238 722 224 750 q 276 672 251 693 q 331 638 300 651 q 396 613 363 624 l 489 582 q 575 548 536 567 q 640 503 614 529 q 681 443 667 478 q 696 361 696 408 q 653 231 696 282 q 536 153 610 181 l 536 149 q 612 78 585 119 q 639 -18 639 36 m 667 360 q 619 485 667 442 q 478 557 571 529 l 386 586 q 354 598 369 592 q 322 611 339 604 q 209 535 251 582 q 167 413 167 488 q 215 287 167 331 q 356 215 263 243 l 447 186 q 479 174 464 181 q 511 161 494 168 q 624 238 582 190 q 667 360 667 285 z "},"¶":{"ha":833,"x_min":93,"x_max":656,"o":"m 419 342 q 284 365 344 342 q 181 431 224 389 q 116 530 139 472 q 93 656 93 588 q 116 781 93 724 q 180 881 139 839 q 278 946 221 922 q 406 969 336 969 l 656 969 l 656 -207 l 625 -207 l 625 942 l 450 942 l 450 -207 l 419 -207 l 419 342 z "},"©":{"ha":833,"x_min":7,"x_max":826,"o":"m 417 25 q 256 57 331 25 q 126 149 182 89 q 39 293 71 208 q 7 485 7 378 q 39 676 7 590 q 126 821 71 761 q 256 913 182 881 q 417 944 331 944 q 576 913 501 944 q 707 821 651 881 q 794 676 763 761 q 826 485 826 590 q 794 293 826 378 q 707 149 763 208 q 576 57 651 89 q 417 25 501 25 m 417 49 q 569 80 499 49 q 690 166 639 111 q 769 297 740 221 q 799 461 799 372 l 799 508 q 769 672 799 597 q 690 803 740 747 q 569 890 639 858 q 417 921 499 921 q 265 890 335 921 q 144 803 194 858 q 64 672 93 747 q 35 508 35 597 l 35 461 q 64 297 35 372 q 144 166 93 221 q 265 80 194 111 q 417 49 335 49 m 418 261 q 289 318 338 261 q 240 485 240 375 q 289 651 240 594 q 419 708 338 708 q 512 684 476 708 q 561 621 547 660 l 539 614 q 494 666 525 647 q 419 685 464 685 q 309 638 350 685 q 268 499 268 590 l 268 471 q 310 330 268 375 q 419 285 351 285 q 497 306 465 285 q 546 363 529 326 l 567 351 q 512 288 550 314 q 418 261 474 261 z "},"®":{"ha":833,"x_min":165,"x_max":668,"o":"m 417 481 q 318 499 364 481 q 238 552 272 518 q 185 633 204 586 q 165 733 165 679 q 185 834 165 788 q 238 915 204 881 q 318 967 272 949 q 417 986 364 986 q 515 967 469 986 q 595 915 561 949 q 649 834 629 881 q 668 733 668 788 q 649 633 668 679 q 595 552 629 586 q 515 499 561 518 q 417 481 469 481 m 417 501 q 505 519 464 501 q 576 566 546 536 q 624 636 607 596 q 642 722 642 676 l 642 744 q 624 831 642 790 q 576 901 607 871 q 505 948 546 931 q 417 965 464 965 q 328 948 369 965 q 257 901 288 931 q 209 831 226 871 q 192 744 192 790 l 192 722 q 209 636 192 676 q 257 566 226 596 q 328 519 288 536 q 417 501 369 501 m 365 606 l 344 606 l 344 863 l 438 863 q 494 844 474 863 q 515 786 515 826 q 497 735 515 753 q 449 715 478 717 l 522 606 l 497 606 l 426 714 l 365 714 l 365 606 m 436 732 q 481 744 468 732 q 493 783 493 756 l 493 793 q 481 833 493 821 q 436 844 468 844 l 365 844 l 365 732 l 436 732 z "},"™":{"ha":833,"x_min":22,"x_max":739,"o":"m 164 597 l 164 947 l 22 947 l 22 969 l 332 969 l 332 947 l 190 947 l 190 597 l 164 597 m 428 597 l 428 969 l 460 969 l 582 735 l 585 735 l 708 969 l 739 969 l 739 597 l 715 597 l 715 931 l 713 931 l 583 686 l 454 931 l 451 931 l 451 597 l 428 597 z "},"ª":{"ha":833,"x_min":218,"x_max":619,"o":"m 619 519 l 553 519 q 528 546 528 519 l 528 586 l 525 586 q 473 533 510 557 q 369 510 436 510 q 256 544 294 510 q 218 636 218 578 q 227 687 218 664 q 257 726 236 710 q 312 752 278 743 q 394 761 346 761 l 528 761 l 528 839 q 492 932 528 901 q 390 963 456 963 q 308 944 344 963 q 253 882 272 925 l 232 893 q 290 961 251 936 q 390 986 328 986 q 512 949 469 986 q 554 843 554 911 l 554 543 l 619 543 l 619 519 m 393 738 q 281 712 314 738 q 247 646 247 686 l 247 628 q 281 558 247 582 q 369 533 315 533 q 430 541 401 533 q 481 565 458 549 q 515 603 503 581 q 528 657 528 626 l 528 738 l 393 738 z "},"º":{"ha":833,"x_min":221,"x_max":613,"o":"m 417 510 q 272 574 322 510 q 221 750 221 638 q 272 922 221 858 q 417 986 324 986 q 561 922 510 986 q 613 750 613 858 q 561 574 613 638 q 417 510 510 510 m 417 533 q 490 549 458 533 q 542 590 521 564 q 573 651 563 617 q 583 725 583 686 l 583 772 q 573 844 583 810 q 542 906 563 879 q 490 947 521 932 q 417 963 458 963 q 344 947 375 963 q 292 906 313 932 q 260 844 271 879 q 250 772 250 810 l 250 725 q 260 651 250 686 q 292 590 271 617 q 344 549 313 564 q 417 533 375 533 z "},"°":{"ha":833,"x_min":204,"x_max":629,"o":"m 417 561 q 332 577 371 561 q 265 622 293 593 q 220 689 236 650 q 204 774 204 728 q 220 858 204 819 q 265 926 236 897 q 332 970 293 954 q 417 986 371 986 q 501 970 463 986 q 569 926 540 954 q 613 858 597 897 q 629 774 629 819 q 613 689 629 728 q 569 622 597 650 q 501 577 540 593 q 417 561 463 561 m 417 588 q 491 601 457 588 q 549 640 525 615 q 587 699 574 665 q 600 774 600 733 q 587 847 600 813 q 549 906 574 881 q 491 945 525 931 q 417 960 457 960 q 342 945 376 960 q 284 906 308 931 q 247 847 260 881 q 233 774 233 813 q 247 699 233 733 q 284 640 260 665 q 342 601 308 615 q 417 588 376 588 z "},"′":{"ha":833,"x_min":367,"x_max":465,"o":"m 367 578 l 438 969 l 465 969 l 394 578 l 367 578 z "},"″":{"ha":833,"x_min":263,"x_max":572,"o":"m 263 578 l 333 969 l 361 969 l 290 578 l 263 578 m 474 578 l 544 969 l 572 969 l 501 578 l 474 578 z "},"*":{"ha":833,"x_min":67,"x_max":768,"o":"m 197 71 l 174 88 l 393 388 l 67 490 l 75 517 l 403 414 l 403 763 l 432 763 l 432 414 l 760 517 l 768 490 l 442 388 l 661 88 l 638 71 l 417 374 l 197 71 z "},"†":{"ha":833,"x_min":108,"x_max":726,"o":"m 403 -278 l 403 690 l 108 690 l 108 717 l 403 717 l 403 1028 l 432 1028 l 432 717 l 726 717 l 726 690 l 432 690 l 432 -278 l 403 -278 z "},"‡":{"ha":833,"x_min":108,"x_max":726,"o":"m 403 -278 l 403 33 l 108 33 l 108 60 l 403 60 l 403 690 l 108 690 l 108 717 l 403 717 l 403 1028 l 432 1028 l 432 717 l 726 717 l 726 690 l 432 690 l 432 60 l 726 60 l 726 33 l 432 33 l 432 -278 l 403 -278 z "},"#":{"ha":833,"x_min":31,"x_max":803,"o":"m 253 332 l 31 332 l 31 358 l 258 358 l 303 611 l 79 611 l 79 638 l 307 638 l 365 969 l 396 969 l 225 0 l 194 0 l 253 332 m 608 969 l 639 969 l 581 638 l 803 638 l 803 611 l 575 611 l 531 358 l 754 358 l 754 332 l 526 332 l 468 0 l 438 0 l 608 969 z "},"^":{"ha":833,"x_min":94,"x_max":739,"o":"m 714 447 l 418 939 l 415 939 l 119 447 l 94 461 l 401 969 l 432 969 l 739 461 l 714 447 z "},"~":{"ha":833,"x_min":81,"x_max":753,"o":"m 576 301 q 498 326 536 301 q 406 414 460 351 q 356 465 371 451 q 327 489 340 479 q 295 507 314 499 q 256 515 276 515 q 163 466 201 515 q 106 310 125 417 l 81 315 q 146 487 100 431 q 257 543 192 543 q 335 518 297 543 q 428 431 374 493 q 478 379 463 393 q 506 356 493 365 q 538 338 519 346 q 578 329 557 329 q 670 378 632 329 q 728 535 708 428 l 753 529 q 688 358 733 414 q 576 301 642 301 z "},"+":{"ha":833,"x_min":86,"x_max":749,"o":"m 403 86 l 403 411 l 86 411 l 86 438 l 403 438 l 403 763 l 432 763 l 432 438 l 749 438 l 749 411 l 432 411 l 432 86 l 403 86 z "},"−":{"ha":833,"x_min":86,"x_max":747,"o":"m 86 411 l 86 438 l 747 438 l 747 411 l 86 411 z "},"±":{"ha":833,"x_min":86,"x_max":749,"o":"m 403 160 l 403 485 l 86 485 l 86 511 l 403 511 l 403 836 l 432 836 l 432 511 l 749 511 l 749 485 l 432 485 l 432 160 l 403 160 m 86 0 l 86 26 l 747 26 l 747 0 l 86 0 z "},"×":{"ha":833,"x_min":146,"x_max":688,"o":"m 417 406 l 165 153 l 146 171 l 399 424 l 146 676 l 165 694 l 417 442 l 668 694 l 688 676 l 435 424 l 688 171 l 668 153 l 417 406 z "},"÷":{"ha":833,"x_min":86,"x_max":747,"o":"m 86 411 l 86 438 l 747 438 l 747 411 l 86 411 m 417 113 q 369 150 369 113 l 369 161 q 417 199 369 199 q 464 161 464 199 l 464 150 q 417 113 464 113 m 417 650 q 369 688 369 650 l 369 699 q 417 736 369 736 q 464 699 464 736 l 464 688 q 417 650 464 650 z "},"=":{"ha":833,"x_min":86,"x_max":747,"o":"m 86 535 l 86 561 l 747 561 l 747 535 l 86 535 m 86 288 l 86 314 l 747 314 l 747 288 l 86 288 z "},"≈":{"ha":833,"x_min":81,"x_max":753,"o":"m 585 471 q 508 485 546 471 q 410 525 469 499 q 355 549 378 539 q 314 565 332 558 q 281 574 296 571 q 249 576 265 576 q 168 551 199 576 q 104 471 138 526 l 81 483 q 151 574 113 543 q 249 604 190 604 q 326 590 288 604 q 424 550 364 576 q 478 526 456 536 q 519 510 501 517 q 553 501 538 504 q 585 499 568 499 q 665 524 635 499 q 729 604 696 549 l 753 592 q 682 501 721 532 q 585 471 643 471 m 585 240 q 508 254 546 240 q 410 294 469 268 q 355 318 378 308 q 314 334 332 328 q 281 343 296 340 q 249 346 265 346 q 168 321 199 346 q 104 240 138 296 l 81 253 q 151 343 113 313 q 249 374 190 374 q 326 360 288 374 q 424 319 364 346 q 478 296 456 306 q 519 280 501 286 q 553 271 538 274 q 585 268 568 268 q 665 293 635 268 q 729 374 696 318 l 753 361 q 682 271 721 301 q 585 240 643 240 z "},"≠":{"ha":833,"x_min":86,"x_max":747,"o":"m 222 128 l 319 288 l 86 288 l 86 314 l 335 314 l 469 535 l 86 535 l 86 561 l 485 561 l 582 721 l 611 721 l 514 561 l 747 561 l 747 535 l 499 535 l 364 314 l 747 314 l 747 288 l 349 288 l 251 128 l 222 128 z "},"<":{"ha":833,"x_min":118,"x_max":715,"o":"m 118 411 l 118 436 l 715 794 l 715 763 l 150 425 l 150 422 l 715 85 l 715 53 l 118 411 z "},">":{"ha":833,"x_min":118,"x_max":715,"o":"m 118 85 l 683 422 l 683 425 l 118 763 l 118 794 l 715 436 l 715 411 l 118 53 l 118 85 z "},"≤":{"ha":833,"x_min":118,"x_max":715,"o":"m 118 0 l 118 26 l 715 26 l 715 0 l 118 0 m 715 792 l 150 481 l 150 478 l 715 167 l 715 136 l 118 467 l 118 492 l 715 822 l 715 792 z "},"≥":{"ha":833,"x_min":118,"x_max":715,"o":"m 118 167 l 683 478 l 683 481 l 118 792 l 118 822 l 715 492 l 715 467 l 118 136 l 118 167 m 118 26 l 715 26 l 715 0 l 118 0 l 118 26 z "},"·":{"ha":833,"x_min":369,"x_max":464,"o":"m 417 379 q 369 417 369 379 l 369 428 q 417 465 369 465 q 464 428 464 465 l 464 417 q 417 379 464 379 z "},"•":{"ha":833,"x_min":297,"x_max":536,"o":"m 417 303 q 324 333 351 303 q 297 407 297 363 l 297 438 q 324 512 297 482 q 417 542 351 542 q 509 512 482 542 q 536 438 536 482 l 536 407 q 509 333 536 363 q 417 303 482 303 z "},"◊":{"ha":833,"x_min":82,"x_max":756,"o":"m 403 0 l 82 485 l 403 969 l 433 969 l 756 485 l 433 0 l 403 0 m 421 28 l 724 485 l 421 942 l 415 942 l 114 485 l 415 28 l 421 28 z "},"¬":{"ha":833,"x_min":86,"x_max":725,"o":"m 696 144 l 696 411 l 86 411 l 86 438 l 725 438 l 725 144 l 696 144 z "},"√":{"ha":833,"x_min":35,"x_max":743,"o":"m 401 0 l 203 690 l 35 690 l 35 717 l 225 717 l 419 38 l 424 38 l 714 969 l 743 969 l 439 0 l 401 0 z "},"∫":{"ha":833,"x_min":57,"x_max":740,"o":"m 57 -251 l 385 -251 l 385 988 q 425 1028 385 1028 l 740 1028 l 740 1001 l 414 1001 l 414 -237 q 372 -278 414 -278 l 57 -278 l 57 -251 z "},"∞":{"ha":833,"x_min":11,"x_max":822,"o":"m 206 175 q 60 240 110 175 q 11 424 11 306 q 60 607 11 542 q 206 672 110 672 q 338 614 281 672 q 418 456 394 556 l 422 456 q 501 614 446 556 q 628 672 557 672 q 773 607 724 672 q 822 424 822 542 q 773 240 822 306 q 628 175 724 175 q 496 233 553 175 q 415 392 439 292 l 411 392 q 332 233 388 292 q 206 175 276 175 m 203 201 q 318 258 267 201 q 401 424 369 314 q 318 594 369 542 q 203 646 267 646 q 87 595 132 646 q 42 449 42 544 l 42 399 q 87 252 42 303 q 203 201 132 201 m 631 201 q 747 252 701 201 q 792 399 792 303 l 792 449 q 747 595 792 544 q 631 646 701 646 q 515 590 567 646 q 432 424 464 533 q 515 253 464 306 q 631 201 567 201 z "},"℮":{"ha":833,"x_min":36,"x_max":797,"o":"m 97 279 q 145 172 115 221 q 215 87 175 122 q 306 31 256 51 q 417 11 357 11 q 522 26 475 11 q 606 67 568 40 q 673 131 643 94 q 728 213 703 168 l 754 199 q 699 115 731 154 q 625 47 667 76 q 532 1 583 18 q 417 -17 481 -17 q 260 22 331 -17 q 140 126 190 60 q 63 285 90 193 q 36 485 36 376 q 63 685 36 593 q 140 843 90 776 q 260 948 190 910 q 417 986 331 986 q 573 948 503 986 q 693 843 643 910 q 770 685 743 776 q 797 485 797 593 l 97 485 l 97 279 m 736 513 l 736 690 q 688 798 718 749 q 618 883 658 847 q 527 938 578 918 q 417 958 476 958 q 306 938 357 958 q 215 883 256 918 q 145 798 175 847 q 97 690 115 749 l 97 513 l 736 513 z "},"ℓ":{"ha":833,"x_min":143,"x_max":672,"o":"m 435 -17 q 351 1 385 -17 q 296 50 317 18 q 266 127 275 82 q 257 228 257 172 l 257 278 q 157 208 204 236 l 143 231 q 200 267 171 247 q 257 313 229 288 l 257 794 q 414 1044 257 1044 q 561 849 561 1044 q 540 697 561 774 q 481 549 518 621 q 393 413 443 478 q 286 297 343 349 l 286 228 q 320 65 286 119 q 435 10 354 10 q 507 23 475 10 q 564 58 539 36 q 609 108 589 79 q 647 169 629 138 l 672 157 q 633 94 654 125 q 583 38 611 63 q 518 -1 554 14 q 435 -17 482 -17 m 414 1018 q 361 1006 385 1018 q 321 969 338 994 q 295 900 304 943 q 286 794 286 857 l 286 332 q 383 444 338 383 q 461 572 428 506 q 513 708 494 639 q 532 844 532 776 l 532 861 q 500 981 532 943 q 414 1018 468 1018 z "},"№":{"ha":833,"x_min":88,"x_max":815,"o":"m 675 508 q 567 565 600 508 q 535 743 535 621 q 567 922 535 865 q 675 978 600 978 q 783 922 750 978 q 815 743 815 865 q 783 565 815 621 q 675 508 750 508 m 88 0 l 88 969 l 138 969 l 418 42 l 422 42 l 422 969 l 451 969 l 451 0 l 401 0 l 121 928 l 117 928 l 117 0 l 88 0 m 675 533 q 761 583 738 533 q 785 707 785 632 l 785 779 q 761 903 785 854 q 675 953 738 953 q 589 903 613 953 q 565 779 565 854 l 565 707 q 589 583 565 632 q 675 533 613 533 m 544 411 l 544 438 l 810 438 l 810 411 l 544 411 z "},"∂":{"ha":833,"x_min":125,"x_max":708,"o":"m 708 344 q 688 191 708 258 q 628 78 667 124 q 535 8 589 32 q 417 -17 482 -17 q 298 8 351 -17 q 206 78 244 32 q 146 191 167 124 q 125 344 125 258 q 146 498 125 431 q 206 611 167 565 q 298 681 244 657 q 417 706 351 706 q 543 675 488 706 q 636 588 599 644 l 640 590 q 577 706 617 651 q 485 808 538 761 q 372 896 433 856 q 242 969 310 936 l 296 969 q 383 918 336 947 q 475 851 429 889 q 563 765 521 814 q 638 655 606 717 q 689 516 669 593 q 708 344 708 439 m 417 10 q 522 31 474 10 q 603 91 569 51 q 657 187 638 131 q 676 314 676 243 l 676 375 q 657 502 676 446 q 603 598 638 558 q 522 658 569 638 q 417 679 474 679 q 312 658 360 679 q 230 598 264 638 q 176 502 196 558 q 157 375 157 446 l 157 314 q 176 187 157 243 q 230 91 196 131 q 312 31 264 51 q 417 10 360 10 z "},"¤":{"ha":833,"x_min":111,"x_max":722,"o":"m 417 179 q 263 225 325 179 l 136 65 l 111 83 l 239 246 q 163 485 163 322 q 239 724 163 647 l 111 886 l 136 904 l 263 744 q 417 790 325 790 q 571 744 508 790 l 697 904 l 722 886 l 594 724 q 671 485 671 647 q 594 246 671 322 l 722 83 l 697 65 l 571 225 q 417 179 508 179 m 417 206 q 581 273 524 206 q 639 458 639 340 l 639 511 q 581 697 639 629 q 417 764 524 764 q 252 697 310 764 q 194 511 194 629 l 194 458 q 252 273 194 340 q 417 206 310 206 z "},"¢":{"ha":833,"x_min":153,"x_max":699,"o":"m 419 -158 l 419 -15 q 223 88 293 -6 q 153 358 153 181 q 223 629 153 536 q 419 732 293 722 l 419 875 l 447 875 l 447 733 q 603 690 542 733 q 689 578 665 646 l 663 569 q 581 672 636 636 q 447 707 526 707 l 447 10 q 588 49 531 10 q 674 153 644 88 l 699 142 q 662 81 685 110 q 608 30 639 51 q 536 -4 576 8 q 447 -17 496 -17 l 447 -158 l 419 -158 m 185 325 q 245 103 185 186 q 419 11 306 21 l 419 706 q 245 613 306 696 q 185 392 185 531 l 185 325 z "},"€":{"ha":833,"x_min":110,"x_max":719,"o":"m 451 -17 q 306 12 369 -17 q 198 101 242 40 q 132 256 154 161 q 110 485 110 351 q 132 713 110 618 q 198 869 154 808 q 306 958 242 929 q 451 986 369 986 q 619 933 550 986 q 719 790 688 881 l 693 781 q 603 911 665 864 q 451 958 540 958 q 235 869 313 958 q 146 597 157 779 l 507 597 l 507 571 l 144 571 q 143 550 143 560 q 143 529 143 540 l 143 440 q 143 415 143 428 q 144 392 143 403 l 507 392 l 507 365 l 146 365 q 451 11 174 11 q 603 58 540 11 q 693 189 665 106 l 719 179 q 619 36 688 89 q 451 -17 550 -17 z "},"ƒ":{"ha":833,"x_min":-36,"x_max":825,"o":"m -32 -250 l 279 -250 l 413 547 l 161 547 l 165 575 l 417 575 l 476 929 q 524 969 482 969 l 825 969 l 821 942 l 510 942 l 449 575 l 713 575 l 708 547 l 443 547 l 313 -237 q 265 -278 307 -278 l -36 -278 l -32 -250 z "},"£":{"ha":833,"x_min":93,"x_max":731,"o":"m 111 0 l 111 35 q 207 147 169 79 q 244 306 244 215 q 239 372 244 340 q 225 432 233 403 l 93 432 l 93 460 l 215 460 q 194 518 206 489 q 174 578 183 547 q 158 640 164 608 q 151 708 151 672 q 173 825 151 774 q 233 913 194 876 q 326 967 272 949 q 446 986 381 986 q 610 948 538 986 q 731 829 683 910 l 704 815 q 594 925 660 892 q 447 958 529 958 q 253 892 325 958 q 182 708 182 826 q 204 578 182 638 q 247 460 226 519 l 557 460 l 557 432 l 256 432 q 269 372 264 403 q 275 307 275 342 q 242 151 275 224 q 144 31 208 79 l 144 28 l 729 28 l 729 0 l 111 0 z "},"$":{"ha":833,"x_min":92,"x_max":732,"o":"m 411 -17 q 302 -3 350 -15 q 216 29 254 8 q 147 79 178 50 q 92 142 117 108 l 117 160 q 169 100 142 126 q 232 54 197 74 q 310 24 267 35 q 411 11 354 13 l 411 483 l 361 492 q 240 529 288 504 q 164 588 192 554 q 125 660 136 621 q 114 743 114 700 q 194 925 114 865 q 411 986 275 985 l 411 1126 l 439 1126 l 439 986 q 613 945 547 982 q 717 851 678 908 l 693 832 q 592 922 653 890 q 439 958 532 954 l 439 510 l 481 503 q 606 465 557 490 q 683 404 654 439 q 722 329 711 369 q 732 246 732 289 q 653 53 732 118 q 439 -17 574 -12 l 439 -157 l 411 -157 l 411 -17 m 144 743 q 163 647 144 686 q 211 583 181 608 q 282 542 242 557 q 368 521 322 528 l 411 514 l 411 958 q 215 904 285 957 q 144 743 144 851 m 701 244 q 683 345 701 304 q 633 412 664 386 q 560 452 601 438 q 474 474 518 467 l 439 479 l 439 11 q 633 73 564 14 q 701 244 701 132 z "},"¥":{"ha":833,"x_min":39,"x_max":794,"o":"m 126 26 l 401 26 l 401 408 l 126 408 l 126 435 l 385 435 l 39 969 l 74 969 l 415 440 l 419 440 l 761 969 l 794 969 l 449 435 l 707 435 l 707 408 l 432 408 l 432 26 l 707 26 l 707 0 l 126 0 l 126 26 z "},"฿":{"ha":833,"x_min":136,"x_max":717,"o":"m 406 -157 l 378 -157 l 378 0 l 136 0 l 136 969 l 378 969 l 378 1126 l 406 1126 l 406 969 l 444 969 q 613 908 553 969 q 672 724 672 846 q 637 574 672 628 q 538 499 601 519 l 538 496 q 672 416 628 479 q 717 253 717 353 q 656 69 717 138 q 475 0 594 0 l 406 0 l 406 -157 m 378 506 l 378 942 l 167 942 l 167 506 l 378 506 m 406 506 l 444 506 q 531 521 494 506 q 592 563 568 536 q 627 623 615 589 q 639 694 639 657 l 639 753 q 627 824 639 790 q 592 885 615 858 q 531 926 568 911 q 444 942 494 942 l 406 942 l 406 506 m 378 28 l 378 478 l 167 478 l 167 28 l 378 28 m 406 28 l 475 28 q 568 44 529 28 q 633 88 607 61 q 671 151 658 115 q 683 224 683 186 l 683 282 q 671 355 683 319 q 633 417 658 390 q 568 461 607 444 q 475 478 529 478 l 406 478 l 406 28 z "},"₡":{"ha":833,"x_min":110,"x_max":719,"o":"m 429 -17 q 281 24 347 -12 l 258 -157 l 232 -157 l 257 40 q 147 203 185 94 q 110 485 110 311 q 178 837 110 718 q 375 979 247 956 l 393 1126 l 419 1126 l 401 983 q 426 985 414 985 q 451 986 439 986 q 553 969 507 986 l 572 1126 l 599 1126 l 578 958 q 663 892 626 935 q 719 790 700 849 l 693 781 q 574 929 660 882 l 458 11 q 606 61 546 14 q 693 189 665 108 l 719 179 q 619 36 688 89 q 456 -17 551 -17 l 438 -157 l 411 -157 l 429 -17 m 451 958 q 397 954 424 958 l 285 57 q 432 11 347 15 l 549 940 q 451 958 507 958 m 143 440 q 261 75 143 178 l 371 950 q 201 818 258 922 q 143 529 143 714 l 143 440 z "},"₤":{"ha":833,"x_min":82,"x_max":738,"o":"m 729 0 l 111 0 l 111 35 q 207 148 169 79 q 244 307 244 217 l 244 324 l 82 324 l 82 350 l 242 350 q 220 443 235 400 q 190 529 206 486 l 82 529 l 82 556 l 181 556 q 160 628 169 590 q 151 708 151 665 q 173 825 151 774 q 233 913 194 876 q 326 967 272 949 q 446 986 381 986 q 614 946 539 986 q 738 822 689 906 l 711 808 q 597 923 664 888 q 447 958 531 958 q 253 892 325 958 q 182 708 182 826 q 190 628 182 665 q 211 556 199 592 l 560 556 l 560 529 l 222 529 q 252 443 238 486 q 272 350 267 400 l 560 350 l 560 324 l 275 324 l 275 308 q 242 152 275 225 q 144 31 208 79 l 144 28 l 729 28 l 729 0 z "},"₦":{"ha":833,"x_min":38,"x_max":796,"o":"m 697 396 l 796 396 l 796 369 l 697 369 l 697 0 l 653 0 l 461 369 l 165 369 l 165 0 l 136 0 l 136 369 l 38 369 l 38 396 l 136 396 l 136 575 l 38 575 l 38 601 l 136 601 l 136 969 l 181 969 l 372 601 l 668 601 l 668 969 l 697 969 l 697 601 l 796 601 l 796 575 l 697 575 l 697 396 m 479 396 l 668 396 l 668 575 l 386 575 l 479 396 m 447 396 l 353 575 l 165 575 l 165 396 l 447 396 m 668 42 l 668 369 l 493 369 l 664 42 l 668 42 m 165 601 l 340 601 l 169 928 l 165 928 l 165 601 z "},"₨":{"ha":833,"x_min":101,"x_max":804,"o":"m 101 0 l 101 969 l 225 969 q 331 952 288 969 q 402 902 375 935 q 442 822 429 869 q 454 715 454 775 q 418 551 454 615 q 296 468 382 486 l 474 128 q 540 40 504 69 q 636 11 575 11 q 733 42 693 11 q 774 136 774 74 q 749 222 774 189 q 685 294 725 254 l 629 350 q 553 437 579 400 q 528 526 528 474 q 537 574 528 550 q 563 616 546 597 q 607 646 581 635 q 667 657 633 657 q 792 610 740 657 l 772 588 q 725 618 750 607 q 668 629 700 629 q 588 600 618 629 q 558 526 558 571 q 565 481 558 501 q 583 444 571 461 q 611 410 594 426 q 649 372 628 393 l 704 317 q 748 270 729 292 q 779 228 767 249 q 798 185 792 207 q 804 136 804 163 q 760 26 804 69 q 636 -17 715 -17 q 528 12 569 -17 q 450 108 486 40 l 265 463 q 242 461 251 461 q 225 461 232 461 l 132 461 l 132 0 l 101 0 m 225 489 q 372 539 324 489 q 421 685 421 589 l 421 746 q 372 892 421 842 q 225 942 324 942 l 132 942 l 132 489 l 225 489 z "},"₩":{"ha":833,"x_min":57,"x_max":776,"o":"m 226 0 l 175 0 l 156 361 l 57 361 l 57 388 l 154 388 l 144 567 l 57 567 l 57 593 l 143 593 l 122 969 l 151 969 l 172 593 l 663 593 l 683 969 l 711 969 l 690 593 l 776 593 l 776 567 l 689 567 l 679 388 l 776 388 l 776 361 l 678 361 l 658 0 l 607 0 l 488 361 l 346 361 l 226 0 m 174 567 l 183 388 l 328 388 l 388 567 l 174 567 m 447 567 l 507 388 l 651 388 l 661 567 l 447 567 m 632 31 l 650 361 l 517 361 l 628 31 l 632 31 m 207 31 l 318 361 l 185 361 l 203 31 l 207 31 m 479 388 l 419 567 l 415 567 l 356 388 l 479 388 z "},"₪":{"ha":833,"x_min":121,"x_max":718,"o":"m 310 794 l 340 794 l 340 28 l 522 28 q 644 77 601 28 q 688 217 688 126 l 688 969 l 718 969 l 718 217 q 667 56 718 113 q 522 0 615 0 l 310 0 l 310 794 m 121 0 l 121 969 l 333 969 q 478 914 426 969 q 529 754 529 858 l 529 175 l 499 175 l 499 753 q 456 892 499 843 q 333 942 413 942 l 151 942 l 151 0 l 121 0 z "},"₫":{"ha":833,"x_min":113,"x_max":742,"o":"m 613 254 l 608 254 q 580 211 599 232 q 534 174 561 190 q 471 147 507 157 q 390 136 435 136 q 185 215 258 136 q 113 449 113 293 q 185 683 113 604 q 390 761 258 761 q 471 751 435 761 q 534 724 507 740 q 580 685 561 707 q 608 642 599 664 l 613 642 l 613 896 l 383 896 l 383 922 l 613 922 l 613 1028 l 642 1028 l 642 922 l 742 922 l 742 896 l 642 896 l 642 153 l 613 153 l 613 254 m 393 163 q 476 176 436 163 q 547 213 517 189 q 594 270 576 236 q 613 344 613 304 l 613 551 q 594 626 613 593 q 547 684 576 660 q 476 722 517 708 q 393 735 436 735 q 210 667 275 735 q 144 483 144 600 l 144 414 q 210 230 144 297 q 393 163 275 163 m 113 0 l 113 28 l 690 28 l 690 0 l 113 0 z "},"₭":{"ha":833,"x_min":50,"x_max":756,"o":"m 210 0 l 179 0 l 179 497 l 50 497 l 50 525 l 179 525 l 179 969 l 210 969 l 210 525 l 329 525 l 697 969 l 733 969 l 365 525 l 715 525 l 715 497 l 367 497 l 756 0 l 719 0 l 329 497 l 210 497 l 210 0 z "},"₮":{"ha":833,"x_min":57,"x_max":776,"o":"m 432 350 l 432 0 l 401 0 l 401 338 l 185 232 l 185 261 l 401 367 l 401 546 l 185 440 l 185 469 l 401 575 l 401 942 l 57 942 l 57 969 l 776 969 l 776 942 l 432 942 l 432 588 l 649 693 l 649 664 l 432 558 l 432 379 l 649 486 l 649 457 l 432 350 z "},"₱":{"ha":833,"x_min":88,"x_max":781,"o":"m 203 0 l 172 0 l 172 547 l 88 547 l 88 574 l 172 574 l 172 753 l 88 753 l 88 779 l 172 779 l 172 969 l 456 969 q 615 918 556 969 q 690 779 674 867 l 781 779 l 781 753 l 693 753 l 693 661 l 693 574 l 781 574 l 781 547 l 690 547 q 615 408 674 460 q 456 357 556 357 l 203 357 l 203 0 m 203 779 l 660 779 q 639 842 654 813 q 598 893 624 871 q 537 928 572 915 q 456 942 501 942 l 203 942 l 203 779 m 663 574 l 663 753 l 203 753 l 203 574 l 663 574 m 456 385 q 537 398 501 385 q 598 433 572 411 q 639 485 624 456 q 660 547 654 514 l 203 547 l 203 385 l 456 385 z "},"₲":{"ha":833,"x_min":111,"x_max":708,"o":"m 322 -1 q 166 154 221 38 q 111 485 111 271 q 133 713 111 618 q 197 869 156 808 q 301 958 239 929 q 442 986 363 986 q 504 979 472 986 l 532 1126 l 561 1126 l 532 972 q 638 904 594 951 q 706 790 682 857 l 679 781 q 621 883 660 842 q 528 944 582 925 l 432 438 l 708 438 l 708 375 q 687 186 708 261 q 626 66 665 111 q 532 2 586 21 q 413 -17 478 -17 q 377 -14 394 -17 q 349 -8 360 -11 l 321 -157 l 292 -157 l 322 -1 m 500 953 q 472 957 486 956 q 442 958 457 958 q 220 851 296 958 q 144 529 144 744 l 144 440 q 191 168 144 271 q 328 28 238 65 l 500 953 m 413 11 q 522 28 472 11 q 606 88 571 46 q 659 197 640 129 q 678 365 678 265 l 678 410 l 426 410 l 354 19 q 381 14 365 17 q 413 11 396 11 z "},"₴":{"ha":833,"x_min":63,"x_max":771,"o":"m 431 -17 q 234 46 307 -17 q 161 221 161 108 q 177 309 161 272 q 215 375 193 346 l 63 375 l 63 401 l 239 401 l 551 590 l 551 593 l 63 593 l 63 619 l 588 619 q 626 683 615 649 q 638 763 638 718 q 578 906 638 854 q 418 958 519 958 q 297 933 356 958 q 181 844 239 907 l 158 865 q 284 958 217 929 q 419 986 351 986 q 521 971 475 986 q 599 926 567 956 q 650 856 632 897 q 668 761 668 814 q 656 678 668 713 q 624 619 644 644 l 771 619 l 771 593 l 603 593 l 290 404 l 290 401 l 771 401 l 771 375 l 253 375 q 208 307 224 343 q 192 221 192 271 q 255 66 192 121 q 431 11 318 11 q 561 42 497 11 q 688 140 625 72 l 710 119 q 574 16 646 49 q 431 -17 501 -17 z "},"₵":{"ha":833,"x_min":110,"x_max":719,"o":"m 324 4 q 165 159 221 43 q 110 485 110 275 q 132 713 110 618 q 198 869 154 808 q 306 958 242 929 q 451 986 369 986 q 481 985 465 986 q 507 981 496 983 l 533 1126 l 563 1126 l 535 975 q 648 908 601 956 q 719 790 694 860 l 693 781 q 629 886 671 843 q 529 947 588 929 l 356 24 q 451 11 399 11 q 603 58 540 11 q 693 189 665 106 l 719 179 q 619 36 688 89 q 451 -17 550 -17 q 351 -4 397 -17 l 322 -157 l 293 -157 l 324 4 m 501 954 q 451 958 476 958 q 222 851 300 958 q 143 529 143 744 l 143 440 q 190 173 143 274 q 329 33 238 72 l 501 954 z "},"₸":{"ha":833,"x_min":57,"x_max":776,"o":"m 57 942 l 57 969 l 776 969 l 776 942 l 57 942 m 432 735 l 432 0 l 401 0 l 401 735 l 57 735 l 57 763 l 776 763 l 776 735 l 432 735 z "},"₹":{"ha":833,"x_min":97,"x_max":764,"o":"m 638 0 l 297 447 l 97 447 l 97 475 l 365 475 q 457 492 418 475 q 522 536 496 508 q 561 602 549 564 q 574 685 574 640 l 574 707 l 97 707 l 97 735 l 574 735 q 560 813 574 775 q 521 878 547 850 q 455 924 494 907 q 365 942 415 942 l 97 942 l 97 969 l 764 969 l 764 942 l 476 942 l 476 939 q 568 862 533 915 q 604 733 603 808 l 764 735 l 764 707 l 606 707 l 606 703 q 544 517 606 588 q 365 447 483 447 l 335 447 l 675 0 l 638 0 z "},"₺":{"ha":833,"x_min":54,"x_max":733,"o":"m 236 421 l 54 333 l 54 363 l 236 450 l 236 629 l 54 542 l 54 571 l 236 658 l 236 969 l 267 969 l 267 671 l 556 811 l 556 782 l 267 642 l 267 463 l 556 603 l 556 574 l 267 433 l 267 28 l 407 28 q 533 58 478 28 q 626 142 589 89 q 683 268 664 196 q 703 424 703 340 l 733 424 q 713 256 733 333 q 651 122 692 179 q 549 33 610 65 q 410 0 489 0 l 236 0 l 236 421 z "},"₽":{"ha":833,"x_min":64,"x_max":776,"o":"m 240 240 l 240 0 l 210 0 l 210 240 l 64 240 l 64 268 l 210 268 l 210 447 l 64 447 l 64 475 l 210 475 l 210 969 l 535 969 q 715 899 654 969 q 776 708 776 828 q 715 519 776 590 q 535 447 654 447 l 240 447 l 240 268 l 583 268 l 583 240 l 240 240 m 240 475 l 535 475 q 628 492 589 475 q 692 537 667 508 q 731 601 718 565 q 743 676 743 638 l 743 740 q 731 815 743 779 q 692 880 718 851 q 628 925 667 908 q 535 942 589 942 l 240 942 l 240 475 z "},"₿":{"ha":833,"x_min":136,"x_max":717,"o":"m 447 0 l 313 0 l 313 -157 l 285 -157 l 285 0 l 136 0 l 136 969 l 285 969 l 285 1126 l 313 1126 l 313 969 l 447 969 l 447 1126 l 475 1126 l 475 968 q 621 898 569 960 q 672 724 672 836 q 637 574 672 628 q 538 499 601 519 l 538 496 q 672 416 628 479 q 717 253 717 353 q 656 69 717 138 q 475 0 594 0 l 475 -157 l 447 -157 l 447 0 m 167 506 l 444 506 q 531 521 494 506 q 592 563 568 536 q 627 623 615 589 q 639 694 639 657 l 639 753 q 627 824 639 790 q 592 885 615 858 q 531 926 568 911 q 444 942 494 942 l 167 942 l 167 506 m 167 28 l 475 28 q 568 44 529 28 q 633 88 607 61 q 671 151 658 115 q 683 224 683 186 l 683 282 q 671 355 683 319 q 633 417 658 390 q 568 461 607 444 q 475 478 529 478 l 167 478 l 167 28 z "},"ﬁ":{"ha":833,"x_min":61,"x_max":683,"o":"m 190 690 l 61 690 l 61 717 l 190 717 l 190 988 q 231 1028 190 1028 l 472 1028 l 472 1001 l 219 1001 l 219 717 l 657 717 l 657 0 l 628 0 l 628 690 l 219 690 l 219 0 l 190 0 l 190 690 m 643 960 q 603 992 603 960 l 603 1003 q 643 1035 603 1035 q 683 1003 683 1035 l 683 992 q 643 960 683 960 z "},"ﬂ":{"ha":833,"x_min":61,"x_max":657,"o":"m 190 690 l 61 690 l 61 717 l 190 717 l 190 988 q 231 1028 190 1028 l 497 1028 l 497 1001 l 219 1001 l 219 717 l 496 717 l 496 690 l 219 690 l 219 0 l 190 0 l 190 690 m 628 1028 l 657 1028 l 657 0 l 628 0 l 628 1028 z "},"á":{"ha":833,"x_min":108,"x_max":738,"o":"m 631 0 q 590 40 590 0 l 590 107 l 586 107 q 503 20 560 57 q 346 -17 447 -17 q 169 34 231 -17 q 108 181 108 85 q 122 261 108 224 q 166 325 135 299 q 250 367 197 351 q 382 382 303 382 l 590 382 l 590 494 q 535 655 590 603 q 382 707 479 707 q 246 674 306 707 q 156 569 186 642 l 132 583 q 224 693 163 653 q 382 733 286 733 q 557 672 494 733 q 619 499 619 611 l 619 26 l 738 26 l 738 0 l 631 0 m 346 10 q 439 22 394 10 q 517 59 483 35 q 570 120 550 83 q 590 206 590 157 l 590 357 l 383 357 q 196 314 251 357 q 140 203 140 271 l 140 158 q 197 48 140 86 q 346 10 254 10 m 358 829 l 338 843 l 492 1057 l 518 1040 l 358 829 z "},"ă":{"ha":833,"x_min":108,"x_max":738,"o":"m 631 0 q 590 40 590 0 l 590 107 l 586 107 q 503 20 560 57 q 346 -17 447 -17 q 169 34 231 -17 q 108 181 108 85 q 122 261 108 224 q 166 325 135 299 q 250 367 197 351 q 382 382 303 382 l 590 382 l 590 494 q 535 655 590 603 q 382 707 479 707 q 246 674 306 707 q 156 569 186 642 l 132 583 q 224 693 163 653 q 382 733 286 733 q 557 672 494 733 q 619 499 619 611 l 619 26 l 738 26 l 738 0 l 631 0 m 346 10 q 439 22 394 10 q 517 59 483 35 q 570 120 550 83 q 590 206 590 157 l 590 357 l 383 357 q 196 314 251 357 q 140 203 140 271 l 140 158 q 197 48 140 86 q 346 10 254 10 m 383 849 q 319 860 346 849 q 272 894 293 871 q 231 950 250 917 q 192 1028 213 983 l 213 1038 l 251 969 q 311 895 283 915 q 383 875 339 875 q 456 895 428 875 q 515 969 483 915 l 554 1038 l 575 1028 q 535 950 554 983 q 495 894 517 917 q 447 860 474 871 q 383 849 421 849 z "},"ǎ":{"ha":833,"x_min":108,"x_max":738,"o":"m 631 0 q 590 40 590 0 l 590 107 l 586 107 q 503 20 560 57 q 346 -17 447 -17 q 169 34 231 -17 q 108 181 108 85 q 122 261 108 224 q 166 325 135 299 q 250 367 197 351 q 382 382 303 382 l 590 382 l 590 494 q 535 655 590 603 q 382 707 479 707 q 246 674 306 707 q 156 569 186 642 l 132 583 q 224 693 163 653 q 382 733 286 733 q 557 672 494 733 q 619 499 619 611 l 619 26 l 738 26 l 738 0 l 631 0 m 346 10 q 439 22 394 10 q 517 59 483 35 q 570 120 550 83 q 590 206 590 157 l 590 357 l 383 357 q 196 314 251 357 q 140 203 140 271 l 140 158 q 197 48 140 86 q 346 10 254 10 m 367 851 l 189 1036 l 208 1051 l 383 875 l 558 1051 l 578 1036 l 400 851 l 367 851 z "},"â":{"ha":833,"x_min":108,"x_max":738,"o":"m 631 0 q 590 40 590 0 l 590 107 l 586 107 q 503 20 560 57 q 346 -17 447 -17 q 169 34 231 -17 q 108 181 108 85 q 122 261 108 224 q 166 325 135 299 q 250 367 197 351 q 382 382 303 382 l 590 382 l 590 494 q 535 655 590 603 q 382 707 479 707 q 246 674 306 707 q 156 569 186 642 l 132 583 q 224 693 163 653 q 382 733 286 733 q 557 672 494 733 q 619 499 619 611 l 619 26 l 738 26 l 738 0 l 631 0 m 346 10 q 439 22 394 10 q 517 59 483 35 q 570 120 550 83 q 590 206 590 157 l 590 357 l 383 357 q 196 314 251 357 q 140 203 140 271 l 140 158 q 197 48 140 86 q 346 10 254 10 m 400 1046 l 578 861 l 558 846 l 383 1022 l 208 846 l 189 861 l 367 1046 l 400 1046 z "},"ä":{"ha":833,"x_min":108,"x_max":738,"o":"m 631 0 q 590 40 590 0 l 590 107 l 586 107 q 503 20 560 57 q 346 -17 447 -17 q 169 34 231 -17 q 108 181 108 85 q 122 261 108 224 q 166 325 135 299 q 250 367 197 351 q 382 382 303 382 l 590 382 l 590 494 q 535 655 590 603 q 382 707 479 707 q 246 674 306 707 q 156 569 186 642 l 132 583 q 224 693 163 653 q 382 733 286 733 q 557 672 494 733 q 619 499 619 611 l 619 26 l 738 26 l 738 0 l 631 0 m 346 10 q 439 22 394 10 q 517 59 483 35 q 570 120 550 83 q 590 206 590 157 l 590 357 l 383 357 q 196 314 251 357 q 140 203 140 271 l 140 158 q 197 48 140 86 q 346 10 254 10 m 257 901 q 226 910 235 901 q 217 933 217 919 l 217 944 q 226 967 217 958 q 257 976 235 976 q 288 967 279 976 q 297 944 297 958 l 297 933 q 288 910 297 919 q 257 901 279 901 m 510 901 q 478 910 488 901 q 469 933 469 919 l 469 944 q 478 967 469 958 q 510 976 488 976 q 541 967 532 976 q 550 944 550 958 l 550 933 q 541 910 550 919 q 510 901 532 901 z "},"ạ":{"ha":833,"x_min":108,"x_max":738,"o":"m 631 0 q 590 40 590 0 l 590 107 l 586 107 q 503 20 560 57 q 346 -17 447 -17 q 169 34 231 -17 q 108 181 108 85 q 122 261 108 224 q 166 325 135 299 q 250 367 197 351 q 382 382 303 382 l 590 382 l 590 494 q 535 655 590 603 q 382 707 479 707 q 246 674 306 707 q 156 569 186 642 l 132 583 q 224 693 163 653 q 382 733 286 733 q 557 672 494 733 q 619 499 619 611 l 619 26 l 738 26 l 738 0 l 631 0 m 346 10 q 439 22 394 10 q 517 59 483 35 q 570 120 550 83 q 590 206 590 157 l 590 357 l 383 357 q 196 314 251 357 q 140 203 140 271 l 140 158 q 197 48 140 86 q 346 10 254 10 m 382 -190 q 351 -181 360 -190 q 342 -158 342 -172 l 342 -147 q 351 -124 342 -133 q 382 -115 360 -115 q 413 -124 404 -115 q 422 -147 422 -133 l 422 -158 q 413 -181 422 -172 q 382 -190 404 -190 z "},"à":{"ha":833,"x_min":108,"x_max":738,"o":"m 631 0 q 590 40 590 0 l 590 107 l 586 107 q 503 20 560 57 q 346 -17 447 -17 q 169 34 231 -17 q 108 181 108 85 q 122 261 108 224 q 166 325 135 299 q 250 367 197 351 q 382 382 303 382 l 590 382 l 590 494 q 535 655 590 603 q 382 707 479 707 q 246 674 306 707 q 156 569 186 642 l 132 583 q 224 693 163 653 q 382 733 286 733 q 557 672 494 733 q 619 499 619 611 l 619 26 l 738 26 l 738 0 l 631 0 m 346 10 q 439 22 394 10 q 517 59 483 35 q 570 120 550 83 q 590 206 590 157 l 590 357 l 383 357 q 196 314 251 357 q 140 203 140 271 l 140 158 q 197 48 140 86 q 346 10 254 10 m 247 1040 l 274 1057 l 428 843 l 407 829 l 247 1040 z "},"ả":{"ha":833,"x_min":108,"x_max":738,"o":"m 631 0 q 590 40 590 0 l 590 107 l 586 107 q 503 20 560 57 q 346 -17 447 -17 q 169 34 231 -17 q 108 181 108 85 q 122 261 108 224 q 166 325 135 299 q 250 367 197 351 q 382 382 303 382 l 590 382 l 590 494 q 535 655 590 603 q 382 707 479 707 q 246 674 306 707 q 156 569 186 642 l 132 583 q 224 693 163 653 q 382 733 286 733 q 557 672 494 733 q 619 499 619 611 l 619 26 l 738 26 l 738 0 l 631 0 m 346 10 q 439 22 394 10 q 517 59 483 35 q 570 120 550 83 q 590 206 590 157 l 590 357 l 383 357 q 196 314 251 357 q 140 203 140 271 l 140 158 q 197 48 140 86 q 346 10 254 10 m 279 1038 l 469 1038 q 501 1013 501 1038 q 494 989 501 1004 q 458 932 486 974 l 390 826 l 368 838 l 475 1013 l 279 1013 l 279 1038 z "},"ā":{"ha":833,"x_min":108,"x_max":738,"o":"m 631 0 q 590 40 590 0 l 590 107 l 586 107 q 503 20 560 57 q 346 -17 447 -17 q 169 34 231 -17 q 108 181 108 85 q 122 261 108 224 q 166 325 135 299 q 250 367 197 351 q 382 382 303 382 l 590 382 l 590 494 q 535 655 590 603 q 382 707 479 707 q 246 674 306 707 q 156 569 186 642 l 132 583 q 224 693 163 653 q 382 733 286 733 q 557 672 494 733 q 619 499 619 611 l 619 26 l 738 26 l 738 0 l 631 0 m 346 10 q 439 22 394 10 q 517 59 483 35 q 570 120 550 83 q 590 206 590 157 l 590 357 l 383 357 q 196 314 251 357 q 140 203 140 271 l 140 158 q 197 48 140 86 q 346 10 254 10 m 204 953 l 563 953 l 563 928 l 204 928 l 204 953 z "},"ą":{"ha":833,"x_min":108,"x_max":757,"o":"m 738 0 q 670 -45 700 -24 q 618 -89 640 -67 q 584 -134 596 -111 q 572 -185 572 -157 q 594 -240 572 -224 q 653 -256 617 -256 q 707 -244 688 -256 q 738 -221 726 -233 l 757 -236 q 717 -268 743 -256 q 653 -281 690 -281 q 574 -257 606 -281 q 543 -186 543 -233 q 576 -100 543 -146 q 700 -3 610 -54 l 699 0 l 631 0 q 590 40 590 0 l 590 107 l 586 107 q 503 20 560 57 q 346 -17 447 -17 q 169 34 231 -17 q 108 181 108 85 q 122 261 108 224 q 166 325 135 299 q 250 367 197 351 q 382 382 303 382 l 590 382 l 590 494 q 535 655 590 603 q 382 707 479 707 q 246 674 306 707 q 156 569 186 642 l 132 583 q 224 693 163 653 q 382 733 286 733 q 557 672 494 733 q 619 499 619 611 l 619 26 l 738 26 l 738 0 m 383 357 q 196 314 251 357 q 140 203 140 271 l 140 158 q 197 48 140 86 q 346 10 254 10 q 439 22 394 10 q 517 59 483 35 q 570 120 550 83 q 590 206 590 157 l 590 357 l 383 357 z "},"å":{"ha":833,"x_min":108,"x_max":738,"o":"m 631 0 q 590 40 590 0 l 590 107 l 586 107 q 503 20 560 57 q 346 -17 447 -17 q 169 34 231 -17 q 108 181 108 85 q 122 261 108 224 q 166 325 135 299 q 250 367 197 351 q 382 382 303 382 l 590 382 l 590 494 q 535 655 590 603 q 382 707 479 707 q 246 674 306 707 q 156 569 186 642 l 132 583 q 224 693 163 653 q 382 733 286 733 q 557 672 494 733 q 619 499 619 611 l 619 26 l 738 26 l 738 0 l 631 0 m 346 10 q 439 22 394 10 q 517 59 483 35 q 570 120 550 83 q 590 206 590 157 l 590 357 l 383 357 q 196 314 251 357 q 140 203 140 271 l 140 158 q 197 48 140 86 q 346 10 254 10 m 383 832 q 292 867 326 832 q 258 958 258 901 q 292 1050 258 1015 q 383 1085 326 1085 q 474 1050 440 1085 q 508 958 508 1015 q 474 867 508 901 q 383 832 440 832 m 383 857 q 454 883 428 857 q 481 951 481 908 l 481 965 q 454 1034 481 1008 q 383 1060 428 1060 q 313 1034 339 1060 q 286 965 286 1008 l 286 951 q 313 883 286 908 q 383 857 339 857 z "},"ǻ":{"ha":833,"x_min":108,"x_max":738,"o":"m 631 0 q 590 40 590 0 l 590 107 l 586 107 q 503 20 560 57 q 346 -17 447 -17 q 169 34 231 -17 q 108 181 108 85 q 122 261 108 224 q 166 325 135 299 q 250 367 197 351 q 382 382 303 382 l 590 382 l 590 494 q 535 655 590 603 q 382 707 479 707 q 246 674 306 707 q 156 569 186 642 l 132 583 q 224 693 163 653 q 382 733 286 733 q 557 672 494 733 q 619 499 619 611 l 619 26 l 738 26 l 738 0 l 631 0 m 346 10 q 439 22 394 10 q 517 59 483 35 q 570 120 550 83 q 590 206 590 157 l 590 357 l 383 357 q 196 314 251 357 q 140 203 140 271 l 140 158 q 197 48 140 86 q 346 10 254 10 m 383 1124 l 363 1136 l 474 1279 l 500 1261 l 383 1124 m 383 832 q 292 867 326 832 q 258 958 258 901 q 292 1050 258 1015 q 383 1085 326 1085 q 474 1050 440 1085 q 508 958 508 1015 q 474 867 508 901 q 383 832 440 832 m 383 857 q 454 883 428 857 q 481 951 481 908 l 481 965 q 454 1034 481 1008 q 383 1060 428 1060 q 313 1034 339 1060 q 286 965 286 1008 l 286 951 q 313 883 286 908 q 383 857 339 857 z "},"ã":{"ha":833,"x_min":108,"x_max":738,"o":"m 631 0 q 590 40 590 0 l 590 107 l 586 107 q 503 20 560 57 q 346 -17 447 -17 q 169 34 231 -17 q 108 181 108 85 q 122 261 108 224 q 166 325 135 299 q 250 367 197 351 q 382 382 303 382 l 590 382 l 590 494 q 535 655 590 603 q 382 707 479 707 q 246 674 306 707 q 156 569 186 642 l 132 583 q 224 693 163 653 q 382 733 286 733 q 557 672 494 733 q 619 499 619 611 l 619 26 l 738 26 l 738 0 l 631 0 m 346 10 q 439 22 394 10 q 517 59 483 35 q 570 120 550 83 q 590 206 590 157 l 590 357 l 383 357 q 196 314 251 357 q 140 203 140 271 l 140 158 q 197 48 140 86 q 346 10 254 10 m 482 886 q 435 895 458 886 q 375 928 411 904 q 324 956 344 947 q 283 964 303 964 q 193 918 236 964 l 176 935 q 285 989 225 989 q 332 980 308 989 q 392 947 356 971 q 443 919 422 928 q 483 911 464 911 q 530 922 508 911 q 574 957 551 933 l 590 940 q 482 886 542 886 z "},"ắ":{"ha":833,"x_min":108,"x_max":738,"o":"m 631 0 q 590 40 590 0 l 590 107 l 586 107 q 503 20 560 57 q 346 -17 447 -17 q 169 34 231 -17 q 108 181 108 85 q 122 261 108 224 q 166 325 135 299 q 250 367 197 351 q 382 382 303 382 l 590 382 l 590 494 q 535 655 590 603 q 382 707 479 707 q 246 674 306 707 q 156 569 186 642 l 132 583 q 224 693 163 653 q 382 733 286 733 q 557 672 494 733 q 619 499 619 611 l 619 26 l 738 26 l 738 0 l 631 0 m 346 10 q 439 22 394 10 q 517 59 483 35 q 570 120 550 83 q 590 206 590 157 l 590 357 l 383 357 q 196 314 251 357 q 140 203 140 271 l 140 158 q 197 48 140 86 q 346 10 254 10 m 382 838 q 318 849 344 838 q 270 883 292 860 q 230 939 249 906 q 190 1017 211 972 l 211 1026 l 250 958 q 310 884 282 904 q 382 864 338 864 q 454 884 426 864 q 514 958 482 904 l 553 1026 l 574 1017 q 534 939 553 972 q 494 883 515 906 q 446 849 472 860 q 382 838 419 838 m 369 982 l 349 996 l 503 1210 l 529 1193 l 369 982 z "},"ặ":{"ha":833,"x_min":108,"x_max":738,"o":"m 631 0 q 590 40 590 0 l 590 107 l 586 107 q 503 20 560 57 q 346 -17 447 -17 q 169 34 231 -17 q 108 181 108 85 q 122 261 108 224 q 166 325 135 299 q 250 367 197 351 q 382 382 303 382 l 590 382 l 590 494 q 535 655 590 603 q 382 707 479 707 q 246 674 306 707 q 156 569 186 642 l 132 583 q 224 693 163 653 q 382 733 286 733 q 557 672 494 733 q 619 499 619 611 l 619 26 l 738 26 l 738 0 l 631 0 m 346 10 q 439 22 394 10 q 517 59 483 35 q 570 120 550 83 q 590 206 590 157 l 590 357 l 383 357 q 196 314 251 357 q 140 203 140 271 l 140 158 q 197 48 140 86 q 346 10 254 10 m 383 849 q 319 860 346 849 q 272 894 293 871 q 231 950 250 917 q 192 1028 213 983 l 213 1038 l 251 969 q 311 895 283 915 q 383 875 339 875 q 456 895 428 875 q 515 969 483 915 l 554 1038 l 575 1028 q 535 950 554 983 q 495 894 517 917 q 447 860 474 871 q 383 849 421 849 m 382 -190 q 351 -181 360 -190 q 342 -158 342 -172 l 342 -147 q 351 -124 342 -133 q 382 -115 360 -115 q 413 -124 404 -115 q 422 -147 422 -133 l 422 -158 q 413 -181 422 -172 q 382 -190 404 -190 z "},"ằ":{"ha":833,"x_min":108,"x_max":738,"o":"m 631 0 q 590 40 590 0 l 590 107 l 586 107 q 503 20 560 57 q 346 -17 447 -17 q 169 34 231 -17 q 108 181 108 85 q 122 261 108 224 q 166 325 135 299 q 250 367 197 351 q 382 382 303 382 l 590 382 l 590 494 q 535 655 590 603 q 382 707 479 707 q 246 674 306 707 q 156 569 186 642 l 132 583 q 224 693 163 653 q 382 733 286 733 q 557 672 494 733 q 619 499 619 611 l 619 26 l 738 26 l 738 0 l 631 0 m 346 10 q 439 22 394 10 q 517 59 483 35 q 570 120 550 83 q 590 206 590 157 l 590 357 l 383 357 q 196 314 251 357 q 140 203 140 271 l 140 158 q 197 48 140 86 q 346 10 254 10 m 382 838 q 318 849 344 838 q 270 883 292 860 q 230 939 249 906 q 190 1017 211 972 l 211 1026 l 250 958 q 310 884 282 904 q 382 864 338 864 q 454 884 426 864 q 514 958 482 904 l 553 1026 l 574 1017 q 534 939 553 972 q 494 883 515 906 q 446 849 472 860 q 382 838 419 838 m 235 1193 l 261 1210 l 415 996 l 394 982 l 235 1193 z "},"ẳ":{"ha":833,"x_min":108,"x_max":738,"o":"m 631 0 q 590 40 590 0 l 590 107 l 586 107 q 503 20 560 57 q 346 -17 447 -17 q 169 34 231 -17 q 108 181 108 85 q 122 261 108 224 q 166 325 135 299 q 250 367 197 351 q 382 382 303 382 l 590 382 l 590 494 q 535 655 590 603 q 382 707 479 707 q 246 674 306 707 q 156 569 186 642 l 132 583 q 224 693 163 653 q 382 733 286 733 q 557 672 494 733 q 619 499 619 611 l 619 26 l 738 26 l 738 0 l 631 0 m 346 10 q 439 22 394 10 q 517 59 483 35 q 570 120 550 83 q 590 206 590 157 l 590 357 l 383 357 q 196 314 251 357 q 140 203 140 271 l 140 158 q 197 48 140 86 q 346 10 254 10 m 382 838 q 318 849 344 838 q 270 883 292 860 q 230 939 249 906 q 190 1017 211 972 l 211 1026 l 250 958 q 310 884 282 904 q 382 864 338 864 q 454 884 426 864 q 514 958 482 904 l 553 1026 l 574 1017 q 534 939 553 972 q 494 883 515 906 q 446 849 472 860 q 382 838 419 838 m 279 1190 l 469 1190 q 501 1165 501 1190 q 494 1142 501 1157 q 458 1085 486 1126 l 390 979 l 368 990 l 475 1165 l 279 1165 l 279 1190 z "},"ẵ":{"ha":833,"x_min":108,"x_max":738,"o":"m 631 0 q 590 40 590 0 l 590 107 l 586 107 q 503 20 560 57 q 346 -17 447 -17 q 169 34 231 -17 q 108 181 108 85 q 122 261 108 224 q 166 325 135 299 q 250 367 197 351 q 382 382 303 382 l 590 382 l 590 494 q 535 655 590 603 q 382 707 479 707 q 246 674 306 707 q 156 569 186 642 l 132 583 q 224 693 163 653 q 382 733 286 733 q 557 672 494 733 q 619 499 619 611 l 619 26 l 738 26 l 738 0 l 631 0 m 346 10 q 439 22 394 10 q 517 59 483 35 q 570 120 550 83 q 590 206 590 157 l 590 357 l 383 357 q 196 314 251 357 q 140 203 140 271 l 140 158 q 197 48 140 86 q 346 10 254 10 m 382 838 q 318 849 344 838 q 270 883 292 860 q 230 939 249 906 q 190 1017 211 972 l 211 1026 l 250 958 q 310 884 282 904 q 382 864 338 864 q 454 884 426 864 q 514 958 482 904 l 553 1026 l 574 1017 q 534 939 553 972 q 494 883 515 906 q 446 849 472 860 q 382 838 419 838 m 481 1074 q 433 1083 457 1074 q 374 1115 410 1092 q 322 1143 343 1135 q 282 1151 301 1151 q 192 1106 235 1151 l 175 1122 q 283 1176 224 1176 q 331 1167 307 1176 q 390 1135 354 1158 q 442 1107 421 1115 q 482 1099 463 1099 q 528 1110 507 1099 q 572 1144 550 1121 l 589 1128 q 481 1074 540 1074 z "},"ấ":{"ha":833,"x_min":108,"x_max":738,"o":"m 631 0 q 590 40 590 0 l 590 107 l 586 107 q 503 20 560 57 q 346 -17 447 -17 q 169 34 231 -17 q 108 181 108 85 q 122 261 108 224 q 166 325 135 299 q 250 367 197 351 q 382 382 303 382 l 590 382 l 590 494 q 535 655 590 603 q 382 707 479 707 q 246 674 306 707 q 156 569 186 642 l 132 583 q 224 693 163 653 q 382 733 286 733 q 557 672 494 733 q 619 499 619 611 l 619 26 l 738 26 l 738 0 l 631 0 m 346 10 q 439 22 394 10 q 517 59 483 35 q 570 120 550 83 q 590 206 590 157 l 590 357 l 383 357 q 196 314 251 357 q 140 203 140 271 l 140 158 q 197 48 140 86 q 346 10 254 10 m 540 982 l 519 996 l 674 1210 l 700 1193 l 540 982 m 399 1035 l 576 850 l 557 835 l 382 1011 l 207 835 l 188 850 l 365 1035 l 399 1035 z "},"ậ":{"ha":833,"x_min":108,"x_max":738,"o":"m 631 0 q 590 40 590 0 l 590 107 l 586 107 q 503 20 560 57 q 346 -17 447 -17 q 169 34 231 -17 q 108 181 108 85 q 122 261 108 224 q 166 325 135 299 q 250 367 197 351 q 382 382 303 382 l 590 382 l 590 494 q 535 655 590 603 q 382 707 479 707 q 246 674 306 707 q 156 569 186 642 l 132 583 q 224 693 163 653 q 382 733 286 733 q 557 672 494 733 q 619 499 619 611 l 619 26 l 738 26 l 738 0 l 631 0 m 346 10 q 439 22 394 10 q 517 59 483 35 q 570 120 550 83 q 590 206 590 157 l 590 357 l 383 357 q 196 314 251 357 q 140 203 140 271 l 140 158 q 197 48 140 86 q 346 10 254 10 m 400 1046 l 578 861 l 558 846 l 383 1022 l 208 846 l 189 861 l 367 1046 l 400 1046 m 382 -190 q 351 -181 360 -190 q 342 -158 342 -172 l 342 -147 q 351 -124 342 -133 q 382 -115 360 -115 q 413 -124 404 -115 q 422 -147 422 -133 l 422 -158 q 413 -181 422 -172 q 382 -190 404 -190 z "},"ầ":{"ha":833,"x_min":64,"x_max":738,"o":"m 631 0 q 590 40 590 0 l 590 107 l 586 107 q 503 20 560 57 q 346 -17 447 -17 q 169 34 231 -17 q 108 181 108 85 q 122 261 108 224 q 166 325 135 299 q 250 367 197 351 q 382 382 303 382 l 590 382 l 590 494 q 535 655 590 603 q 382 707 479 707 q 246 674 306 707 q 156 569 186 642 l 132 583 q 224 693 163 653 q 382 733 286 733 q 557 672 494 733 q 619 499 619 611 l 619 26 l 738 26 l 738 0 l 631 0 m 346 10 q 439 22 394 10 q 517 59 483 35 q 570 120 550 83 q 590 206 590 157 l 590 357 l 383 357 q 196 314 251 357 q 140 203 140 271 l 140 158 q 197 48 140 86 q 346 10 254 10 m 64 1193 l 90 1210 l 244 996 l 224 982 l 64 1193 m 399 1035 l 576 850 l 557 835 l 382 1011 l 207 835 l 188 850 l 365 1035 l 399 1035 z "},"ẩ":{"ha":833,"x_min":108,"x_max":738,"o":"m 631 0 q 590 40 590 0 l 590 107 l 586 107 q 503 20 560 57 q 346 -17 447 -17 q 169 34 231 -17 q 108 181 108 85 q 122 261 108 224 q 166 325 135 299 q 250 367 197 351 q 382 382 303 382 l 590 382 l 590 494 q 535 655 590 603 q 382 707 479 707 q 246 674 306 707 q 156 569 186 642 l 132 583 q 224 693 163 653 q 382 733 286 733 q 557 672 494 733 q 619 499 619 611 l 619 26 l 738 26 l 738 0 l 631 0 m 346 10 q 439 22 394 10 q 517 59 483 35 q 570 120 550 83 q 590 206 590 157 l 590 357 l 383 357 q 196 314 251 357 q 140 203 140 271 l 140 158 q 197 48 140 86 q 346 10 254 10 m 436 1190 l 626 1190 q 658 1165 658 1190 q 651 1142 658 1157 q 615 1085 643 1126 l 547 979 l 525 990 l 632 1165 l 436 1165 l 436 1190 m 399 1035 l 576 850 l 557 835 l 382 1011 l 207 835 l 188 850 l 365 1035 l 399 1035 z "},"ẫ":{"ha":833,"x_min":108,"x_max":738,"o":"m 631 0 q 590 40 590 0 l 590 107 l 586 107 q 503 20 560 57 q 346 -17 447 -17 q 169 34 231 -17 q 108 181 108 85 q 122 261 108 224 q 166 325 135 299 q 250 367 197 351 q 382 382 303 382 l 590 382 l 590 494 q 535 655 590 603 q 382 707 479 707 q 246 674 306 707 q 156 569 186 642 l 132 583 q 224 693 163 653 q 382 733 286 733 q 557 672 494 733 q 619 499 619 611 l 619 26 l 738 26 l 738 0 l 631 0 m 346 10 q 439 22 394 10 q 517 59 483 35 q 570 120 550 83 q 590 206 590 157 l 590 357 l 383 357 q 196 314 251 357 q 140 203 140 271 l 140 158 q 197 48 140 86 q 346 10 254 10 m 283 1190 q 331 1181 307 1190 q 390 1149 354 1172 q 442 1121 421 1129 q 482 1113 463 1113 q 528 1124 507 1113 q 572 1158 550 1135 l 589 1142 q 481 1088 540 1088 q 433 1097 457 1088 q 374 1129 410 1106 q 322 1157 343 1149 q 282 1165 301 1165 q 192 1119 235 1165 l 175 1136 q 283 1190 224 1190 m 399 1035 l 576 850 l 557 835 l 382 1011 l 207 835 l 188 850 l 365 1035 l 399 1035 z "},"æ":{"ha":833,"x_min":33,"x_max":799,"o":"m 218 -17 q 84 38 135 -17 q 33 188 33 92 q 98 338 33 293 q 285 382 163 382 l 397 382 l 397 504 q 385 599 397 560 q 353 661 374 638 q 304 696 332 685 q 243 707 276 707 q 179 696 207 707 q 130 667 151 685 q 93 628 108 650 q 68 585 78 606 l 44 596 q 74 647 57 622 q 117 691 92 672 q 173 722 142 710 q 244 733 204 733 q 358 696 311 733 q 419 571 406 658 l 424 571 q 494 696 449 658 q 606 733 539 733 q 745 663 692 733 q 799 435 799 593 l 799 358 l 425 358 l 425 333 q 439 180 425 242 q 476 80 453 118 q 530 26 499 42 q 597 10 561 10 q 698 49 656 10 q 764 169 740 89 l 790 163 q 762 92 779 125 q 721 35 744 60 q 666 -3 697 11 q 596 -17 635 -17 q 483 26 532 -17 q 415 168 435 69 l 411 168 q 349 33 400 83 q 218 -17 299 -17 m 219 10 q 294 26 261 10 q 349 71 326 42 q 385 140 372 100 q 397 228 397 179 l 397 358 l 285 358 q 118 322 172 358 q 64 197 64 285 l 64 172 q 106 55 64 100 q 219 10 149 10 m 606 707 q 474 638 522 707 q 425 414 425 568 l 425 382 l 769 382 l 769 435 q 757 566 769 514 q 722 649 744 618 q 670 694 700 681 q 606 707 640 707 z "},"ǽ":{"ha":833,"x_min":33,"x_max":799,"o":"m 218 -17 q 84 38 135 -17 q 33 188 33 92 q 98 338 33 293 q 285 382 163 382 l 397 382 l 397 504 q 385 599 397 560 q 353 661 374 638 q 304 696 332 685 q 243 707 276 707 q 179 696 207 707 q 130 667 151 685 q 93 628 108 650 q 68 585 78 606 l 44 596 q 74 647 57 622 q 117 691 92 672 q 173 722 142 710 q 244 733 204 733 q 358 696 311 733 q 419 571 406 658 l 424 571 q 494 696 449 658 q 606 733 539 733 q 745 663 692 733 q 799 435 799 593 l 799 358 l 425 358 l 425 333 q 439 180 425 242 q 476 80 453 118 q 530 26 499 42 q 597 10 561 10 q 698 49 656 10 q 764 169 740 89 l 790 163 q 762 92 779 125 q 721 35 744 60 q 666 -3 697 11 q 596 -17 635 -17 q 483 26 532 -17 q 415 168 435 69 l 411 168 q 349 33 400 83 q 218 -17 299 -17 m 219 10 q 294 26 261 10 q 349 71 326 42 q 385 140 372 100 q 397 228 397 179 l 397 358 l 285 358 q 118 322 172 358 q 64 197 64 285 l 64 172 q 106 55 64 100 q 219 10 149 10 m 606 707 q 474 638 522 707 q 425 414 425 568 l 425 382 l 769 382 l 769 435 q 757 566 769 514 q 722 649 744 618 q 670 694 700 681 q 606 707 640 707 m 390 829 l 369 843 l 524 1057 l 550 1040 l 390 829 z "},"ć":{"ha":833,"x_min":153,"x_max":699,"o":"m 447 -17 q 231 77 308 -17 q 153 358 153 171 q 231 640 153 546 q 447 733 308 733 q 603 690 542 733 q 689 578 665 646 l 663 569 q 581 672 636 636 q 447 707 526 707 q 253 623 321 707 q 185 392 185 539 l 185 325 q 253 94 185 178 q 447 10 321 10 q 588 49 531 10 q 674 153 644 88 l 699 142 q 662 81 685 110 q 608 30 639 51 q 536 -4 576 8 q 447 -17 496 -17 m 419 829 l 399 843 l 553 1057 l 579 1040 l 419 829 z "},"č":{"ha":833,"x_min":153,"x_max":699,"o":"m 447 -17 q 231 77 308 -17 q 153 358 153 171 q 231 640 153 546 q 447 733 308 733 q 603 690 542 733 q 689 578 665 646 l 663 569 q 581 672 636 636 q 447 707 526 707 q 253 623 321 707 q 185 392 185 539 l 185 325 q 253 94 185 178 q 447 10 321 10 q 588 49 531 10 q 674 153 644 88 l 699 142 q 662 81 685 110 q 608 30 639 51 q 536 -4 576 8 q 447 -17 496 -17 m 428 851 l 250 1036 l 269 1051 l 444 875 l 619 1051 l 639 1036 l 461 851 l 428 851 z "},"ç":{"ha":833,"x_min":153,"x_max":699,"o":"m 447 733 q 603 690 542 733 q 689 578 665 646 l 663 569 q 581 672 636 636 q 447 707 526 707 q 253 623 321 707 q 185 392 185 539 l 185 325 q 253 94 185 178 q 447 10 321 10 q 588 49 531 10 q 674 153 644 88 l 699 142 q 662 81 685 110 q 608 30 639 51 q 537 -4 576 8 q 450 -17 497 -17 l 429 -101 l 432 -104 q 453 -101 442 -101 q 474 -100 464 -100 q 540 -122 514 -100 q 567 -182 567 -144 q 536 -251 567 -222 q 453 -281 506 -281 q 383 -267 413 -281 q 340 -236 353 -254 l 358 -218 q 453 -256 389 -256 q 514 -237 490 -256 q 538 -183 538 -219 q 519 -140 538 -157 q 453 -119 500 -122 l 401 -117 l 425 -17 q 224 84 296 -10 q 153 358 153 178 q 231 640 153 546 q 447 733 308 733 z "},"ĉ":{"ha":833,"x_min":153,"x_max":699,"o":"m 447 -17 q 231 77 308 -17 q 153 358 153 171 q 231 640 153 546 q 447 733 308 733 q 603 690 542 733 q 689 578 665 646 l 663 569 q 581 672 636 636 q 447 707 526 707 q 253 623 321 707 q 185 392 185 539 l 185 325 q 253 94 185 178 q 447 10 321 10 q 588 49 531 10 q 674 153 644 88 l 699 142 q 662 81 685 110 q 608 30 639 51 q 536 -4 576 8 q 447 -17 496 -17 m 461 1046 l 639 861 l 619 846 l 444 1022 l 269 846 l 250 861 l 428 1046 l 461 1046 z "},"ċ":{"ha":833,"x_min":153,"x_max":699,"o":"m 447 -17 q 231 77 308 -17 q 153 358 153 171 q 231 640 153 546 q 447 733 308 733 q 603 690 542 733 q 689 578 665 646 l 663 569 q 581 672 636 636 q 447 707 526 707 q 253 623 321 707 q 185 392 185 539 l 185 325 q 253 94 185 178 q 447 10 321 10 q 588 49 531 10 q 674 153 644 88 l 699 142 q 662 81 685 110 q 608 30 639 51 q 536 -4 576 8 q 447 -17 496 -17 m 444 901 q 413 910 422 901 q 404 933 404 919 l 404 944 q 413 967 404 958 q 444 976 422 976 q 476 967 467 976 q 485 944 485 958 l 485 933 q 476 910 485 919 q 444 901 467 901 z "},"ď":{"ha":833,"x_min":111,"x_max":815,"o":"m 403 -17 q 188 77 264 -17 q 111 358 111 171 q 188 640 111 546 q 403 733 264 733 q 485 722 449 733 q 549 694 521 711 q 596 653 576 676 q 626 608 615 631 l 631 608 l 631 1028 l 660 1028 l 660 0 l 631 0 l 631 108 l 626 108 q 596 63 615 85 q 549 23 576 40 q 485 -6 521 6 q 403 -17 449 -17 m 403 10 q 489 24 447 10 q 562 63 531 38 q 612 122 593 88 q 631 199 631 157 l 631 518 q 612 594 631 560 q 562 654 593 629 q 489 693 531 679 q 403 707 447 707 q 210 623 276 707 q 143 392 143 539 l 143 325 q 210 94 143 178 q 403 10 276 10 m 781 1028 l 815 1028 l 781 783 l 758 783 l 781 1028 z "},"đ":{"ha":833,"x_min":111,"x_max":760,"o":"m 631 108 l 626 108 q 596 63 615 85 q 549 23 576 40 q 485 -6 521 6 q 403 -17 449 -17 q 188 77 264 -17 q 111 358 111 171 q 188 640 111 546 q 403 733 264 733 q 485 722 449 733 q 549 694 521 711 q 596 653 576 676 q 626 608 615 631 l 631 608 l 631 883 l 401 883 l 401 908 l 631 908 l 631 1028 l 660 1028 l 660 908 l 760 908 l 760 883 l 660 883 l 660 0 l 631 0 l 631 108 m 403 10 q 489 24 447 10 q 562 63 531 38 q 612 122 593 88 q 631 199 631 157 l 631 518 q 612 594 631 560 q 562 654 593 629 q 489 693 531 679 q 403 707 447 707 q 210 623 276 707 q 143 392 143 539 l 143 325 q 210 94 143 178 q 403 10 276 10 z "},"ð":{"ha":833,"x_min":125,"x_max":708,"o":"m 603 1025 l 450 914 q 547 813 500 869 q 629 685 593 756 q 687 529 665 614 q 708 344 708 444 q 688 191 708 258 q 628 78 667 124 q 535 8 589 32 q 417 -17 482 -17 q 298 8 351 -17 q 206 78 244 32 q 146 191 167 124 q 125 344 125 258 q 146 498 125 431 q 206 611 167 565 q 298 681 244 657 q 417 706 351 706 q 545 675 489 706 q 640 588 601 644 l 644 590 q 544 771 596 699 q 429 899 492 843 l 283 794 l 269 814 l 411 914 q 333 973 374 946 q 247 1028 292 1000 l 297 1028 q 363 985 328 1008 q 432 931 397 961 l 589 1044 l 603 1025 m 417 10 q 522 31 474 10 q 603 91 569 51 q 657 187 638 131 q 676 314 676 243 l 676 375 q 657 502 676 446 q 603 598 638 558 q 522 658 569 638 q 417 679 474 679 q 312 658 360 679 q 230 598 264 638 q 176 502 196 558 q 157 375 157 446 l 157 314 q 176 187 157 243 q 230 91 196 131 q 312 31 264 51 q 417 10 360 10 z "},"é":{"ha":833,"x_min":128,"x_max":710,"o":"m 425 -17 q 206 77 283 -17 q 128 358 128 171 q 204 640 128 546 q 419 733 281 733 q 545 708 490 733 q 636 635 600 682 q 691 521 672 588 q 710 371 710 454 l 710 361 l 160 361 l 160 325 q 228 94 160 178 q 425 10 296 10 q 578 52 515 10 q 674 182 642 94 l 699 172 q 598 34 667 85 q 425 -17 529 -17 m 419 707 q 226 623 293 707 q 160 392 160 539 l 160 386 l 679 386 l 679 392 q 613 623 679 539 q 419 707 546 707 m 394 829 l 374 843 l 528 1057 l 554 1040 l 394 829 z "},"ĕ":{"ha":833,"x_min":128,"x_max":710,"o":"m 425 -17 q 206 77 283 -17 q 128 358 128 171 q 204 640 128 546 q 419 733 281 733 q 545 708 490 733 q 636 635 600 682 q 691 521 672 588 q 710 371 710 454 l 710 361 l 160 361 l 160 325 q 228 94 160 178 q 425 10 296 10 q 578 52 515 10 q 674 182 642 94 l 699 172 q 598 34 667 85 q 425 -17 529 -17 m 419 707 q 226 623 293 707 q 160 392 160 539 l 160 386 l 679 386 l 679 392 q 613 623 679 539 q 419 707 546 707 m 419 849 q 356 860 382 849 q 308 894 329 871 q 267 950 286 917 q 228 1028 249 983 l 249 1038 l 288 969 q 347 895 319 915 q 419 875 375 875 q 492 895 464 875 q 551 969 519 915 l 590 1038 l 611 1028 q 572 950 590 983 q 531 894 553 917 q 483 860 510 871 q 419 849 457 849 z "},"ě":{"ha":833,"x_min":128,"x_max":710,"o":"m 425 -17 q 206 77 283 -17 q 128 358 128 171 q 204 640 128 546 q 419 733 281 733 q 545 708 490 733 q 636 635 600 682 q 691 521 672 588 q 710 371 710 454 l 710 361 l 160 361 l 160 325 q 228 94 160 178 q 425 10 296 10 q 578 52 515 10 q 674 182 642 94 l 699 172 q 598 34 667 85 q 425 -17 529 -17 m 419 707 q 226 623 293 707 q 160 392 160 539 l 160 386 l 679 386 l 679 392 q 613 623 679 539 q 419 707 546 707 m 403 851 l 225 1036 l 244 1051 l 419 875 l 594 1051 l 614 1036 l 436 851 l 403 851 z "},"ê":{"ha":833,"x_min":128,"x_max":710,"o":"m 425 -17 q 206 77 283 -17 q 128 358 128 171 q 204 640 128 546 q 419 733 281 733 q 545 708 490 733 q 636 635 600 682 q 691 521 672 588 q 710 371 710 454 l 710 361 l 160 361 l 160 325 q 228 94 160 178 q 425 10 296 10 q 578 52 515 10 q 674 182 642 94 l 699 172 q 598 34 667 85 q 425 -17 529 -17 m 419 707 q 226 623 293 707 q 160 392 160 539 l 160 386 l 679 386 l 679 392 q 613 623 679 539 q 419 707 546 707 m 436 1046 l 614 861 l 594 846 l 419 1022 l 244 846 l 225 861 l 403 1046 l 436 1046 z "},"ë":{"ha":833,"x_min":128,"x_max":710,"o":"m 425 -17 q 206 77 283 -17 q 128 358 128 171 q 204 640 128 546 q 419 733 281 733 q 545 708 490 733 q 636 635 600 682 q 691 521 672 588 q 710 371 710 454 l 710 361 l 160 361 l 160 325 q 228 94 160 178 q 425 10 296 10 q 578 52 515 10 q 674 182 642 94 l 699 172 q 598 34 667 85 q 425 -17 529 -17 m 419 707 q 226 623 293 707 q 160 392 160 539 l 160 386 l 679 386 l 679 392 q 613 623 679 539 q 419 707 546 707 m 293 901 q 262 910 271 901 q 253 933 253 919 l 253 944 q 262 967 253 958 q 293 976 271 976 q 324 967 315 976 q 333 944 333 958 l 333 933 q 324 910 333 919 q 293 901 315 901 m 546 901 q 515 910 524 901 q 506 933 506 919 l 506 944 q 515 967 506 958 q 546 976 524 976 q 577 967 568 976 q 586 944 586 958 l 586 933 q 577 910 586 919 q 546 901 568 901 z "},"ė":{"ha":833,"x_min":128,"x_max":710,"o":"m 425 -17 q 206 77 283 -17 q 128 358 128 171 q 204 640 128 546 q 419 733 281 733 q 545 708 490 733 q 636 635 600 682 q 691 521 672 588 q 710 371 710 454 l 710 361 l 160 361 l 160 325 q 228 94 160 178 q 425 10 296 10 q 578 52 515 10 q 674 182 642 94 l 699 172 q 598 34 667 85 q 425 -17 529 -17 m 419 707 q 226 623 293 707 q 160 392 160 539 l 160 386 l 679 386 l 679 392 q 613 623 679 539 q 419 707 546 707 m 419 901 q 388 910 397 901 q 379 933 379 919 l 379 944 q 388 967 379 958 q 419 976 397 976 q 451 967 442 976 q 460 944 460 958 l 460 933 q 451 910 460 919 q 419 901 442 901 z "},"ẹ":{"ha":833,"x_min":128,"x_max":710,"o":"m 425 -17 q 206 77 283 -17 q 128 358 128 171 q 204 640 128 546 q 419 733 281 733 q 545 708 490 733 q 636 635 600 682 q 691 521 672 588 q 710 371 710 454 l 710 361 l 160 361 l 160 325 q 228 94 160 178 q 425 10 296 10 q 578 52 515 10 q 674 182 642 94 l 699 172 q 598 34 667 85 q 425 -17 529 -17 m 419 707 q 226 623 293 707 q 160 392 160 539 l 160 386 l 679 386 l 679 392 q 613 623 679 539 q 419 707 546 707 m 425 -190 q 394 -181 403 -190 q 385 -158 385 -172 l 385 -147 q 394 -124 385 -133 q 425 -115 403 -115 q 456 -124 447 -115 q 465 -147 465 -133 l 465 -158 q 456 -181 465 -172 q 425 -190 447 -190 z "},"è":{"ha":833,"x_min":128,"x_max":710,"o":"m 425 -17 q 206 77 283 -17 q 128 358 128 171 q 204 640 128 546 q 419 733 281 733 q 545 708 490 733 q 636 635 600 682 q 691 521 672 588 q 710 371 710 454 l 710 361 l 160 361 l 160 325 q 228 94 160 178 q 425 10 296 10 q 578 52 515 10 q 674 182 642 94 l 699 172 q 598 34 667 85 q 425 -17 529 -17 m 419 707 q 226 623 293 707 q 160 392 160 539 l 160 386 l 679 386 l 679 392 q 613 623 679 539 q 419 707 546 707 m 283 1040 l 310 1057 l 464 843 l 443 829 l 283 1040 z "},"ẻ":{"ha":833,"x_min":128,"x_max":710,"o":"m 425 -17 q 206 77 283 -17 q 128 358 128 171 q 204 640 128 546 q 419 733 281 733 q 545 708 490 733 q 636 635 600 682 q 691 521 672 588 q 710 371 710 454 l 710 361 l 160 361 l 160 325 q 228 94 160 178 q 425 10 296 10 q 578 52 515 10 q 674 182 642 94 l 699 172 q 598 34 667 85 q 425 -17 529 -17 m 419 707 q 226 623 293 707 q 160 392 160 539 l 160 386 l 679 386 l 679 392 q 613 623 679 539 q 419 707 546 707 m 317 1038 l 507 1038 q 539 1013 539 1038 q 531 989 539 1004 q 496 932 524 974 l 428 826 l 406 838 l 513 1013 l 317 1013 l 317 1038 z "},"ē":{"ha":833,"x_min":128,"x_max":710,"o":"m 425 -17 q 206 77 283 -17 q 128 358 128 171 q 204 640 128 546 q 419 733 281 733 q 545 708 490 733 q 636 635 600 682 q 691 521 672 588 q 710 371 710 454 l 710 361 l 160 361 l 160 325 q 228 94 160 178 q 425 10 296 10 q 578 52 515 10 q 674 182 642 94 l 699 172 q 598 34 667 85 q 425 -17 529 -17 m 419 707 q 226 623 293 707 q 160 392 160 539 l 160 386 l 679 386 l 679 392 q 613 623 679 539 q 419 707 546 707 m 240 953 l 599 953 l 599 928 l 240 928 l 240 953 z "},"ę":{"ha":833,"x_min":128,"x_max":710,"o":"m 460 -281 q 381 -257 413 -281 q 350 -186 350 -233 q 357 -146 350 -167 q 382 -102 364 -125 q 431 -56 400 -79 q 508 -6 461 -32 l 507 -3 q 468 -13 488 -10 q 425 -17 449 -17 q 206 77 283 -17 q 128 358 128 171 q 204 640 128 546 q 419 733 281 733 q 545 708 490 733 q 636 635 600 682 q 691 521 672 588 q 710 371 710 454 l 710 361 l 160 361 l 160 325 q 228 94 160 178 q 425 10 296 10 q 578 52 515 10 q 674 182 642 94 l 699 172 q 649 82 679 122 q 556 6 619 42 q 428 -85 478 -39 q 379 -183 379 -131 q 401 -240 379 -224 q 460 -256 424 -256 q 514 -244 494 -256 q 544 -221 533 -233 l 564 -236 q 524 -268 550 -256 q 460 -281 497 -281 m 679 386 l 679 392 q 613 623 679 539 q 419 707 546 707 q 226 623 293 707 q 160 392 160 539 l 160 386 l 679 386 z "},"ẽ":{"ha":833,"x_min":128,"x_max":710,"o":"m 425 -17 q 206 77 283 -17 q 128 358 128 171 q 204 640 128 546 q 419 733 281 733 q 545 708 490 733 q 636 635 600 682 q 691 521 672 588 q 710 371 710 454 l 710 361 l 160 361 l 160 325 q 228 94 160 178 q 425 10 296 10 q 578 52 515 10 q 674 182 642 94 l 699 172 q 598 34 667 85 q 425 -17 529 -17 m 419 707 q 226 623 293 707 q 160 392 160 539 l 160 386 l 679 386 l 679 392 q 613 623 679 539 q 419 707 546 707 m 518 886 q 471 895 494 886 q 411 928 447 904 q 360 956 381 947 q 319 964 339 964 q 229 918 272 964 l 213 935 q 321 989 261 989 q 368 980 344 989 q 428 947 392 971 q 479 919 458 928 q 519 911 500 911 q 566 922 544 911 q 610 957 588 933 l 626 940 q 518 886 578 886 z "},"ế":{"ha":833,"x_min":128,"x_max":738,"o":"m 425 -17 q 206 77 283 -17 q 128 358 128 171 q 204 640 128 546 q 419 733 281 733 q 545 708 490 733 q 636 635 600 682 q 691 521 672 588 q 710 371 710 454 l 710 361 l 160 361 l 160 325 q 228 94 160 178 q 425 10 296 10 q 578 52 515 10 q 674 182 642 94 l 699 172 q 598 34 667 85 q 425 -17 529 -17 m 419 707 q 226 623 293 707 q 160 392 160 539 l 160 386 l 679 386 l 679 392 q 613 623 679 539 q 419 707 546 707 m 578 982 l 557 996 l 711 1210 l 738 1193 l 578 982 m 436 1035 l 614 850 l 594 835 l 419 1011 l 244 835 l 225 850 l 403 1035 l 436 1035 z "},"ệ":{"ha":833,"x_min":128,"x_max":710,"o":"m 425 -17 q 206 77 283 -17 q 128 358 128 171 q 204 640 128 546 q 419 733 281 733 q 545 708 490 733 q 636 635 600 682 q 691 521 672 588 q 710 371 710 454 l 710 361 l 160 361 l 160 325 q 228 94 160 178 q 425 10 296 10 q 578 52 515 10 q 674 182 642 94 l 699 172 q 598 34 667 85 q 425 -17 529 -17 m 419 707 q 226 623 293 707 q 160 392 160 539 l 160 386 l 679 386 l 679 392 q 613 623 679 539 q 419 707 546 707 m 436 1046 l 614 861 l 594 846 l 419 1022 l 244 846 l 225 861 l 403 1046 l 436 1046 m 425 -190 q 394 -181 403 -190 q 385 -158 385 -172 l 385 -147 q 394 -124 385 -133 q 425 -115 403 -115 q 456 -124 447 -115 q 465 -147 465 -133 l 465 -158 q 456 -181 465 -172 q 425 -190 447 -190 z "},"ề":{"ha":833,"x_min":101,"x_max":710,"o":"m 425 -17 q 206 77 283 -17 q 128 358 128 171 q 204 640 128 546 q 419 733 281 733 q 545 708 490 733 q 636 635 600 682 q 691 521 672 588 q 710 371 710 454 l 710 361 l 160 361 l 160 325 q 228 94 160 178 q 425 10 296 10 q 578 52 515 10 q 674 182 642 94 l 699 172 q 598 34 667 85 q 425 -17 529 -17 m 419 707 q 226 623 293 707 q 160 392 160 539 l 160 386 l 679 386 l 679 392 q 613 623 679 539 q 419 707 546 707 m 101 1193 l 128 1210 l 282 996 l 261 982 l 101 1193 m 436 1035 l 614 850 l 594 835 l 419 1011 l 244 835 l 225 850 l 403 1035 l 436 1035 z "},"ể":{"ha":833,"x_min":128,"x_max":710,"o":"m 425 -17 q 206 77 283 -17 q 128 358 128 171 q 204 640 128 546 q 419 733 281 733 q 545 708 490 733 q 636 635 600 682 q 691 521 672 588 q 710 371 710 454 l 710 361 l 160 361 l 160 325 q 228 94 160 178 q 425 10 296 10 q 578 52 515 10 q 674 182 642 94 l 699 172 q 598 34 667 85 q 425 -17 529 -17 m 419 707 q 226 623 293 707 q 160 392 160 539 l 160 386 l 679 386 l 679 392 q 613 623 679 539 q 419 707 546 707 m 474 1190 l 664 1190 q 696 1165 696 1190 q 688 1142 696 1157 q 653 1085 681 1126 l 585 979 l 563 990 l 669 1165 l 474 1165 l 474 1190 m 436 1035 l 614 850 l 594 835 l 419 1011 l 244 835 l 225 850 l 403 1035 l 436 1035 z "},"ễ":{"ha":833,"x_min":128,"x_max":710,"o":"m 425 -17 q 206 77 283 -17 q 128 358 128 171 q 204 640 128 546 q 419 733 281 733 q 545 708 490 733 q 636 635 600 682 q 691 521 672 588 q 710 371 710 454 l 710 361 l 160 361 l 160 325 q 228 94 160 178 q 425 10 296 10 q 578 52 515 10 q 674 182 642 94 l 699 172 q 598 34 667 85 q 425 -17 529 -17 m 419 707 q 226 623 293 707 q 160 392 160 539 l 160 386 l 679 386 l 679 392 q 613 623 679 539 q 419 707 546 707 m 321 1190 q 368 1181 344 1190 q 428 1149 392 1172 q 479 1121 458 1129 q 519 1113 500 1113 q 566 1124 544 1113 q 610 1158 588 1135 l 626 1142 q 518 1088 578 1088 q 471 1097 494 1088 q 411 1129 447 1106 q 360 1157 381 1149 q 319 1165 339 1165 q 229 1119 272 1165 l 213 1136 q 321 1190 261 1190 m 436 1035 l 614 850 l 594 835 l 419 1011 l 244 835 l 225 850 l 403 1035 l 436 1035 z "},"ə":{"ha":833,"x_min":124,"x_max":706,"o":"m 674 356 l 674 392 q 606 623 674 539 q 408 707 538 707 q 255 665 318 707 q 160 535 192 622 l 135 544 q 235 683 167 632 q 408 733 304 733 q 628 640 550 733 q 706 358 706 546 q 629 77 706 171 q 414 -17 553 -17 q 288 9 343 -17 q 197 82 233 35 q 142 196 161 129 q 124 346 124 263 l 124 356 l 674 356 m 154 325 q 221 94 154 178 q 414 10 288 10 q 607 94 540 10 q 674 325 674 178 l 674 331 l 154 331 l 154 325 z "},"ğ":{"ha":833,"x_min":125,"x_max":754,"o":"m 424 849 q 360 860 386 849 q 312 894 333 871 q 272 950 290 917 q 232 1028 253 983 l 253 1038 l 292 969 q 351 895 324 915 q 424 875 379 875 q 496 895 468 875 q 556 969 524 915 l 594 1038 l 615 1028 q 576 950 594 983 q 535 894 557 917 q 488 860 514 871 q 424 849 461 849 m 422 -294 q 195 -244 265 -294 q 125 -112 125 -194 q 162 -7 125 -49 q 265 56 199 35 l 265 60 q 209 95 226 71 q 192 153 192 119 q 228 231 192 201 q 310 275 264 261 l 310 279 q 217 360 250 306 q 183 494 183 414 q 247 668 183 603 q 424 733 311 733 q 524 717 479 733 l 754 717 l 754 690 l 571 690 q 640 610 615 660 q 664 494 664 560 q 647 396 664 440 q 597 320 629 351 q 522 272 565 289 q 424 256 478 256 q 385 258 403 256 q 346 265 367 261 q 219 154 219 232 q 224 125 219 139 q 243 101 229 111 q 281 83 257 90 q 340 76 304 76 l 528 76 q 701 32 649 76 q 754 -87 754 -12 q 668 -244 754 -194 q 422 -294 582 -294 m 424 282 q 577 335 524 282 q 631 468 631 389 l 631 521 q 577 653 631 600 q 424 707 524 707 q 270 653 324 707 q 217 521 217 600 l 217 468 q 272 335 217 389 q 424 282 326 282 m 724 -89 q 680 13 724 -24 q 524 49 636 49 l 308 49 q 200 -7 242 32 q 158 -114 158 -46 q 220 -228 158 -187 q 388 -268 282 -268 l 456 -268 q 565 -258 515 -268 q 649 -225 614 -247 q 704 -169 685 -203 q 724 -89 724 -135 z "},"ĝ":{"ha":833,"x_min":125,"x_max":754,"o":"m 440 1046 l 618 861 l 599 846 l 424 1022 l 249 846 l 229 861 l 407 1046 l 440 1046 m 422 -294 q 195 -244 265 -294 q 125 -112 125 -194 q 162 -7 125 -49 q 265 56 199 35 l 265 60 q 209 95 226 71 q 192 153 192 119 q 228 231 192 201 q 310 275 264 261 l 310 279 q 217 360 250 306 q 183 494 183 414 q 247 668 183 603 q 424 733 311 733 q 524 717 479 733 l 754 717 l 754 690 l 571 690 q 640 610 615 660 q 664 494 664 560 q 647 396 664 440 q 597 320 629 351 q 522 272 565 289 q 424 256 478 256 q 385 258 403 256 q 346 265 367 261 q 219 154 219 232 q 224 125 219 139 q 243 101 229 111 q 281 83 257 90 q 340 76 304 76 l 528 76 q 701 32 649 76 q 754 -87 754 -12 q 668 -244 754 -194 q 422 -294 582 -294 m 424 282 q 577 335 524 282 q 631 468 631 389 l 631 521 q 577 653 631 600 q 424 707 524 707 q 270 653 324 707 q 217 521 217 600 l 217 468 q 272 335 217 389 q 424 282 326 282 m 724 -89 q 680 13 724 -24 q 524 49 636 49 l 308 49 q 200 -7 242 32 q 158 -114 158 -46 q 220 -228 158 -187 q 388 -268 282 -268 l 456 -268 q 565 -258 515 -268 q 649 -225 614 -247 q 704 -169 685 -203 q 724 -89 724 -135 z "},"ģ":{"ha":833,"x_min":125,"x_max":772,"o":"m 754 -87 q 668 -244 754 -194 q 422 -294 582 -294 q 195 -244 265 -294 q 125 -112 125 -194 q 162 -7 125 -49 q 265 56 199 35 l 265 60 q 209 95 226 71 q 192 153 192 119 q 228 231 192 201 q 310 275 264 261 l 310 279 q 217 360 250 306 q 183 494 183 414 q 247 668 183 603 q 424 733 311 733 q 578 686 515 733 l 578 742 q 618 779 578 779 l 772 779 l 772 753 l 604 753 l 604 663 q 648 590 632 632 q 664 494 664 547 q 647 396 664 440 q 597 320 629 351 q 522 272 565 289 q 424 256 478 256 q 385 258 403 256 q 346 265 367 261 q 219 154 219 232 q 224 125 219 139 q 243 101 229 111 q 281 83 257 90 q 340 76 304 76 l 528 76 q 701 32 649 76 q 754 -87 754 -12 m 724 -89 q 680 13 724 -24 q 524 49 636 49 l 308 49 q 200 -7 242 32 q 158 -114 158 -46 q 220 -228 158 -187 q 388 -268 282 -268 l 456 -268 q 565 -258 515 -268 q 649 -225 614 -247 q 704 -169 685 -203 q 724 -89 724 -135 m 424 282 q 577 335 524 282 q 631 468 631 389 l 631 521 q 577 653 631 600 q 424 707 524 707 q 270 653 324 707 q 217 521 217 600 l 217 468 q 272 335 217 389 q 424 282 326 282 m 490 1068 l 515 1068 l 440 824 l 406 824 l 490 1068 z "},"ġ":{"ha":833,"x_min":125,"x_max":772,"o":"m 754 -87 q 668 -244 754 -194 q 422 -294 582 -294 q 195 -244 265 -294 q 125 -112 125 -194 q 162 -7 125 -49 q 265 56 199 35 l 265 60 q 209 95 226 71 q 192 153 192 119 q 228 231 192 201 q 310 275 264 261 l 310 279 q 217 360 250 306 q 183 494 183 414 q 247 668 183 603 q 424 733 311 733 q 578 686 515 733 l 578 742 q 618 779 578 779 l 772 779 l 772 753 l 604 753 l 604 663 q 648 590 632 632 q 664 494 664 547 q 647 396 664 440 q 597 320 629 351 q 522 272 565 289 q 424 256 478 256 q 385 258 403 256 q 346 265 367 261 q 219 154 219 232 q 224 125 219 139 q 243 101 229 111 q 281 83 257 90 q 340 76 304 76 l 528 76 q 701 32 649 76 q 754 -87 754 -12 m 724 -89 q 680 13 724 -24 q 524 49 636 49 l 308 49 q 200 -7 242 32 q 158 -114 158 -46 q 220 -228 158 -187 q 388 -268 282 -268 l 456 -268 q 565 -258 515 -268 q 649 -225 614 -247 q 704 -169 685 -203 q 724 -89 724 -135 m 424 282 q 577 335 524 282 q 631 468 631 389 l 631 521 q 577 653 631 600 q 424 707 524 707 q 270 653 324 707 q 217 521 217 600 l 217 468 q 272 335 217 389 q 424 282 326 282 m 424 901 q 392 910 401 901 q 383 933 383 919 l 383 944 q 392 967 383 958 q 424 976 401 976 q 455 967 446 976 q 464 944 464 958 l 464 933 q 455 910 464 919 q 424 901 446 901 z "},"ħ":{"ha":833,"x_min":76,"x_max":671,"o":"m 176 0 l 176 883 l 76 883 l 76 908 l 176 908 l 176 1028 l 206 1028 l 206 908 l 435 908 l 435 883 l 206 883 l 206 614 l 210 614 q 281 697 228 660 q 429 733 335 733 q 610 665 549 733 q 671 467 671 597 l 671 0 l 642 0 l 642 463 q 585 649 642 592 q 425 707 529 707 q 342 695 382 707 q 272 660 303 683 q 224 600 242 636 q 206 517 206 564 l 206 0 l 176 0 z "},"ĥ":{"ha":833,"x_min":-3,"x_max":671,"o":"m 176 1028 l 206 1028 l 206 614 l 210 614 q 281 697 228 660 q 429 733 335 733 q 610 665 549 733 q 671 467 671 597 l 671 0 l 642 0 l 642 463 q 585 649 642 592 q 425 707 529 707 q 342 695 382 707 q 272 660 303 683 q 224 600 242 636 q 206 517 206 564 l 206 0 l 176 0 l 176 1028 m 208 1299 l 386 1114 l 367 1099 l 192 1275 l 17 1099 l -3 1114 l 175 1299 l 208 1299 z "},"ı":{"ha":833,"x_min":163,"x_max":743,"o":"m 163 26 l 447 26 l 447 690 l 163 690 l 163 717 l 476 717 l 476 26 l 743 26 l 743 0 l 163 0 l 163 26 z "},"í":{"ha":833,"x_min":163,"x_max":743,"o":"m 163 26 l 447 26 l 447 690 l 163 690 l 163 717 l 476 717 l 476 26 l 743 26 l 743 0 l 163 0 l 163 26 m 436 829 l 415 843 l 569 1057 l 596 1040 l 436 829 z "},"ĭ":{"ha":833,"x_min":163,"x_max":743,"o":"m 163 26 l 447 26 l 447 690 l 163 690 l 163 717 l 476 717 l 476 26 l 743 26 l 743 0 l 163 0 l 163 26 m 461 849 q 397 860 424 849 q 349 894 371 871 q 309 950 328 917 q 269 1028 290 983 l 290 1038 l 329 969 q 389 895 361 915 q 461 875 417 875 q 533 895 506 875 q 593 969 561 915 l 632 1038 l 653 1028 q 613 950 632 983 q 573 894 594 917 q 525 860 551 871 q 461 849 499 849 z "},"ǐ":{"ha":833,"x_min":163,"x_max":743,"o":"m 163 26 l 447 26 l 447 690 l 163 690 l 163 717 l 476 717 l 476 26 l 743 26 l 743 0 l 163 0 l 163 26 m 444 851 l 267 1036 l 286 1051 l 461 875 l 636 1051 l 656 1036 l 478 851 l 444 851 z "},"î":{"ha":833,"x_min":163,"x_max":743,"o":"m 163 26 l 447 26 l 447 690 l 163 690 l 163 717 l 476 717 l 476 26 l 743 26 l 743 0 l 163 0 l 163 26 m 478 1046 l 656 861 l 636 846 l 461 1022 l 286 846 l 267 861 l 444 1046 l 478 1046 z "},"ï":{"ha":833,"x_min":163,"x_max":743,"o":"m 163 26 l 447 26 l 447 690 l 163 690 l 163 717 l 476 717 l 476 26 l 743 26 l 743 0 l 163 0 l 163 26 m 335 901 q 303 910 313 901 q 294 933 294 919 l 294 944 q 303 967 294 958 q 335 976 313 976 q 366 967 357 976 q 375 944 375 958 l 375 933 q 366 910 375 919 q 335 901 357 901 m 588 901 q 556 910 565 901 q 547 933 547 919 l 547 944 q 556 967 547 958 q 588 976 565 976 q 619 967 610 976 q 628 944 628 958 l 628 933 q 619 910 628 919 q 588 901 610 901 z "},"ị":{"ha":833,"x_min":163,"x_max":743,"o":"m 461 960 q 430 969 439 960 q 421 992 421 978 l 421 1003 q 430 1026 421 1017 q 461 1035 439 1035 q 492 1026 483 1035 q 501 1003 501 1017 l 501 992 q 492 969 501 978 q 461 960 483 960 m 163 26 l 447 26 l 447 690 l 163 690 l 163 717 l 476 717 l 476 26 l 743 26 l 743 0 l 163 0 l 163 26 m 461 -190 q 430 -181 439 -190 q 421 -158 421 -172 l 421 -147 q 430 -124 421 -133 q 461 -115 439 -115 q 492 -124 483 -115 q 501 -147 501 -133 l 501 -158 q 492 -181 501 -172 q 461 -190 483 -190 z "},"ì":{"ha":833,"x_min":163,"x_max":743,"o":"m 163 26 l 447 26 l 447 690 l 163 690 l 163 717 l 476 717 l 476 26 l 743 26 l 743 0 l 163 0 l 163 26 m 325 1040 l 351 1057 l 506 843 l 485 829 l 325 1040 z "},"ỉ":{"ha":833,"x_min":163,"x_max":743,"o":"m 163 26 l 447 26 l 447 690 l 163 690 l 163 717 l 476 717 l 476 26 l 743 26 l 743 0 l 163 0 l 163 26 m 358 1038 l 549 1038 q 581 1013 581 1038 q 573 989 581 1004 q 538 932 565 974 l 469 826 l 447 838 l 554 1013 l 358 1013 l 358 1038 z "},"ī":{"ha":833,"x_min":163,"x_max":743,"o":"m 163 26 l 447 26 l 447 690 l 163 690 l 163 717 l 476 717 l 476 26 l 743 26 l 743 0 l 163 0 l 163 26 m 282 953 l 640 953 l 640 928 l 282 928 l 282 953 z "},"į":{"ha":833,"x_min":163,"x_max":763,"o":"m 658 -281 q 580 -257 611 -281 q 549 -186 549 -233 q 582 -100 549 -146 q 706 -3 615 -54 l 704 0 l 163 0 l 163 26 l 447 26 l 447 690 l 163 690 l 163 717 l 476 717 l 476 26 l 743 26 l 743 0 q 676 -45 706 -24 q 624 -89 646 -67 q 590 -134 601 -111 q 578 -185 578 -157 q 600 -240 578 -224 q 658 -256 622 -256 q 713 -244 693 -256 q 743 -221 732 -233 l 763 -236 q 722 -268 749 -256 q 658 -281 696 -281 m 461 960 q 430 969 439 960 q 421 992 421 978 l 421 1003 q 430 1026 421 1017 q 461 1035 439 1035 q 492 1026 483 1035 q 501 1003 501 1017 l 501 992 q 492 969 501 978 q 461 960 483 960 z "},"ĩ":{"ha":833,"x_min":163,"x_max":743,"o":"m 163 26 l 447 26 l 447 690 l 163 690 l 163 717 l 476 717 l 476 26 l 743 26 l 743 0 l 163 0 l 163 26 m 560 886 q 513 895 536 886 q 453 928 489 904 q 401 956 422 947 q 361 964 381 964 q 271 918 314 964 l 254 935 q 363 989 303 989 q 410 980 386 989 q 469 947 433 971 q 521 919 500 928 q 561 911 542 911 q 608 922 586 911 q 651 957 629 933 l 668 940 q 560 886 619 886 z "},"ĳ":{"ha":833,"x_min":157,"x_max":676,"o":"m 183 717 l 213 717 l 213 0 l 183 0 l 183 717 m 211 -251 l 621 -251 l 621 717 l 650 717 l 650 -237 q 610 -278 650 -278 l 211 -278 l 211 -251 m 197 960 q 157 992 157 960 l 157 1003 q 197 1035 157 1035 q 238 1003 238 1035 l 238 992 q 197 960 238 960 m 636 960 q 596 992 596 960 l 596 1003 q 636 1035 596 1035 q 676 1003 676 1035 l 676 992 q 636 960 676 960 z "},"ȷ":{"ha":833,"x_min":133,"x_max":593,"o":"m 154 -251 l 564 -251 l 564 690 l 133 690 l 133 717 l 593 717 l 593 -237 q 553 -278 593 -278 l 154 -278 l 154 -251 z "},"ĵ":{"ha":833,"x_min":133,"x_max":774,"o":"m 154 -251 l 564 -251 l 564 690 l 133 690 l 133 717 l 593 717 l 593 -237 q 553 -278 593 -278 l 154 -278 l 154 -251 m 596 1046 l 774 861 l 754 846 l 579 1022 l 404 846 l 385 861 l 563 1046 l 596 1046 z "},"ķ":{"ha":833,"x_min":193,"x_max":779,"o":"m 193 1028 l 222 1028 l 222 304 l 226 304 l 390 447 l 701 717 l 740 717 l 418 436 l 779 0 l 743 0 l 396 417 l 222 267 l 222 0 l 193 0 l 193 1028 m 453 -94 l 488 -94 l 417 -349 l 392 -349 l 453 -94 z "},"ĸ":{"ha":833,"x_min":193,"x_max":779,"o":"m 394 406 l 222 253 l 222 0 l 193 0 l 193 717 l 222 717 l 222 290 l 226 290 l 394 440 l 701 717 l 740 717 l 415 425 l 779 0 l 743 0 l 394 406 z "},"ĺ":{"ha":833,"x_min":126,"x_max":708,"o":"m 126 26 l 403 26 l 403 1001 l 126 1001 l 126 1028 l 432 1028 l 432 26 l 708 26 l 708 0 l 126 0 l 126 26 m 392 1082 l 371 1096 l 525 1310 l 551 1293 l 392 1082 z "},"ľ":{"ha":833,"x_min":126,"x_max":708,"o":"m 126 26 l 403 26 l 403 1001 l 126 1001 l 126 1028 l 432 1028 l 432 26 l 708 26 l 708 0 l 126 0 l 126 26 m 601 783 l 578 783 l 600 1028 l 635 1028 l 601 783 z "},"ļ":{"ha":833,"x_min":126,"x_max":708,"o":"m 126 26 l 403 26 l 403 1001 l 126 1001 l 126 1028 l 432 1028 l 432 26 l 708 26 l 708 0 l 126 0 l 126 26 m 401 -94 l 436 -94 l 365 -349 l 340 -349 l 401 -94 z "},"ŀ":{"ha":833,"x_min":126,"x_max":751,"o":"m 126 26 l 403 26 l 403 1001 l 126 1001 l 126 1028 l 432 1028 l 432 26 l 708 26 l 708 0 l 126 0 l 126 26 m 711 385 q 680 394 689 385 q 671 417 671 403 l 671 428 q 680 451 671 442 q 711 460 689 460 q 742 451 733 460 q 751 428 751 442 l 751 417 q 742 394 751 403 q 711 385 733 385 z "},"ł":{"ha":833,"x_min":126,"x_max":708,"o":"m 126 26 l 403 26 l 403 447 l 161 369 l 161 397 l 403 475 l 403 1001 l 126 1001 l 126 1028 l 432 1028 l 432 483 l 672 563 l 672 535 l 432 456 l 432 26 l 708 26 l 708 0 l 126 0 l 126 26 z "},"ń":{"ha":833,"x_min":176,"x_max":671,"o":"m 176 0 l 176 717 l 206 717 l 206 614 l 210 614 q 281 697 228 660 q 429 733 335 733 q 610 665 549 733 q 671 467 671 597 l 671 0 l 642 0 l 642 463 q 585 649 642 592 q 425 707 529 707 q 342 695 382 707 q 272 660 303 683 q 224 600 242 636 q 206 517 206 564 l 206 0 l 176 0 m 399 829 l 378 843 l 532 1057 l 558 1040 l 399 829 z "},"ň":{"ha":833,"x_min":176,"x_max":671,"o":"m 176 0 l 176 717 l 206 717 l 206 614 l 210 614 q 281 697 228 660 q 429 733 335 733 q 610 665 549 733 q 671 467 671 597 l 671 0 l 642 0 l 642 463 q 585 649 642 592 q 425 707 529 707 q 342 695 382 707 q 272 660 303 683 q 224 600 242 636 q 206 517 206 564 l 206 0 l 176 0 m 407 851 l 229 1036 l 249 1051 l 424 875 l 599 1051 l 618 1036 l 440 851 l 407 851 z "},"ņ":{"ha":833,"x_min":176,"x_max":671,"o":"m 176 0 l 176 717 l 206 717 l 206 614 l 210 614 q 281 697 228 660 q 429 733 335 733 q 610 665 549 733 q 671 467 671 597 l 671 0 l 642 0 l 642 463 q 585 649 642 592 q 425 707 529 707 q 342 695 382 707 q 272 660 303 683 q 224 600 242 636 q 206 517 206 564 l 206 0 l 176 0 m 408 -94 l 443 -94 l 372 -349 l 347 -349 l 408 -94 z "},"ñ":{"ha":833,"x_min":176,"x_max":671,"o":"m 176 0 l 176 717 l 206 717 l 206 614 l 210 614 q 281 697 228 660 q 429 733 335 733 q 610 665 549 733 q 671 467 671 597 l 671 0 l 642 0 l 642 463 q 585 649 642 592 q 425 707 529 707 q 342 695 382 707 q 272 660 303 683 q 224 600 242 636 q 206 517 206 564 l 206 0 l 176 0 m 522 886 q 475 895 499 886 q 415 928 451 904 q 364 956 385 947 q 324 964 343 964 q 233 918 276 964 l 217 935 q 325 989 265 989 q 372 980 349 989 q 432 947 396 971 q 483 919 463 928 q 524 911 504 911 q 570 922 549 911 q 614 957 592 933 l 631 940 q 522 886 582 886 z "},"ŉ":{"ha":833,"x_min":21,"x_max":671,"o":"m 176 717 l 206 717 l 206 614 l 210 614 q 281 697 228 660 q 429 733 335 733 q 610 665 549 733 q 671 467 671 597 l 671 0 l 642 0 l 642 463 q 585 649 642 592 q 425 707 529 707 q 342 695 382 707 q 272 660 303 683 q 224 600 242 636 q 206 517 206 564 l 206 0 l 176 0 l 176 717 m 61 1028 l 114 1028 l 44 771 l 21 771 l 61 1028 z "},"ŋ":{"ha":833,"x_min":176,"x_max":671,"o":"m 289 -251 l 642 -251 l 642 463 q 585 649 642 592 q 425 707 529 707 q 342 695 382 707 q 272 660 303 683 q 224 600 242 636 q 206 517 206 564 l 206 0 l 176 0 l 176 717 l 206 717 l 206 614 l 210 614 q 281 697 228 660 q 429 733 335 733 q 610 665 549 733 q 671 467 671 597 l 671 -237 q 631 -278 671 -278 l 289 -278 l 289 -251 z "},"ó":{"ha":833,"x_min":125,"x_max":708,"o":"m 417 -17 q 201 77 278 -17 q 125 358 125 171 q 201 640 125 546 q 417 733 278 733 q 632 640 556 733 q 708 358 708 546 q 632 77 708 171 q 417 -17 556 -17 m 417 10 q 610 94 543 10 q 676 325 676 178 l 676 392 q 610 623 676 539 q 417 707 543 707 q 224 623 290 707 q 157 392 157 539 l 157 325 q 224 94 157 178 q 417 10 290 10 m 392 829 l 371 843 l 525 1057 l 551 1040 l 392 829 z "},"ŏ":{"ha":833,"x_min":125,"x_max":708,"o":"m 417 -17 q 201 77 278 -17 q 125 358 125 171 q 201 640 125 546 q 417 733 278 733 q 632 640 556 733 q 708 358 708 546 q 632 77 708 171 q 417 -17 556 -17 m 417 10 q 610 94 543 10 q 676 325 676 178 l 676 392 q 610 623 676 539 q 417 707 543 707 q 224 623 290 707 q 157 392 157 539 l 157 325 q 224 94 157 178 q 417 10 290 10 m 417 849 q 353 860 379 849 q 305 894 326 871 q 265 950 283 917 q 225 1028 246 983 l 246 1038 l 285 969 q 344 895 317 915 q 417 875 372 875 q 489 895 461 875 q 549 969 517 915 l 588 1038 l 608 1028 q 569 950 588 983 q 528 894 550 917 q 481 860 507 871 q 417 849 454 849 z "},"ǒ":{"ha":833,"x_min":125,"x_max":708,"o":"m 417 -17 q 201 77 278 -17 q 125 358 125 171 q 201 640 125 546 q 417 733 278 733 q 632 640 556 733 q 708 358 708 546 q 632 77 708 171 q 417 -17 556 -17 m 417 10 q 610 94 543 10 q 676 325 676 178 l 676 392 q 610 623 676 539 q 417 707 543 707 q 224 623 290 707 q 157 392 157 539 l 157 325 q 224 94 157 178 q 417 10 290 10 m 400 851 l 222 1036 l 242 1051 l 417 875 l 592 1051 l 611 1036 l 433 851 l 400 851 z "},"ô":{"ha":833,"x_min":125,"x_max":708,"o":"m 417 -17 q 201 77 278 -17 q 125 358 125 171 q 201 640 125 546 q 417 733 278 733 q 632 640 556 733 q 708 358 708 546 q 632 77 708 171 q 417 -17 556 -17 m 417 10 q 610 94 543 10 q 676 325 676 178 l 676 392 q 610 623 676 539 q 417 707 543 707 q 224 623 290 707 q 157 392 157 539 l 157 325 q 224 94 157 178 q 417 10 290 10 m 433 1046 l 611 861 l 592 846 l 417 1022 l 242 846 l 222 861 l 400 1046 l 433 1046 z "},"ö":{"ha":833,"x_min":125,"x_max":708,"o":"m 417 -17 q 201 77 278 -17 q 125 358 125 171 q 201 640 125 546 q 417 733 278 733 q 632 640 556 733 q 708 358 708 546 q 632 77 708 171 q 417 -17 556 -17 m 417 10 q 610 94 543 10 q 676 325 676 178 l 676 392 q 610 623 676 539 q 417 707 543 707 q 224 623 290 707 q 157 392 157 539 l 157 325 q 224 94 157 178 q 417 10 290 10 m 290 901 q 259 910 268 901 q 250 933 250 919 l 250 944 q 259 967 250 958 q 290 976 268 976 q 322 967 313 976 q 331 944 331 958 l 331 933 q 322 910 331 919 q 290 901 313 901 m 543 901 q 512 910 521 901 q 503 933 503 919 l 503 944 q 512 967 503 958 q 543 976 521 976 q 574 967 565 976 q 583 944 583 958 l 583 933 q 574 910 583 919 q 543 901 565 901 z "},"ọ":{"ha":833,"x_min":125,"x_max":708,"o":"m 417 -17 q 201 77 278 -17 q 125 358 125 171 q 201 640 125 546 q 417 733 278 733 q 632 640 556 733 q 708 358 708 546 q 632 77 708 171 q 417 -17 556 -17 m 417 10 q 610 94 543 10 q 676 325 676 178 l 676 392 q 610 623 676 539 q 417 707 543 707 q 224 623 290 707 q 157 392 157 539 l 157 325 q 224 94 157 178 q 417 10 290 10 m 417 -190 q 385 -181 394 -190 q 376 -158 376 -172 l 376 -147 q 385 -124 376 -133 q 417 -115 394 -115 q 448 -124 439 -115 q 457 -147 457 -133 l 457 -158 q 448 -181 457 -172 q 417 -190 439 -190 z "},"ò":{"ha":833,"x_min":125,"x_max":708,"o":"m 417 -17 q 201 77 278 -17 q 125 358 125 171 q 201 640 125 546 q 417 733 278 733 q 632 640 556 733 q 708 358 708 546 q 632 77 708 171 q 417 -17 556 -17 m 417 10 q 610 94 543 10 q 676 325 676 178 l 676 392 q 610 623 676 539 q 417 707 543 707 q 224 623 290 707 q 157 392 157 539 l 157 325 q 224 94 157 178 q 417 10 290 10 m 281 1040 l 307 1057 l 461 843 l 440 829 l 281 1040 z "},"ỏ":{"ha":833,"x_min":125,"x_max":708,"o":"m 417 -17 q 201 77 278 -17 q 125 358 125 171 q 201 640 125 546 q 417 733 278 733 q 632 640 556 733 q 708 358 708 546 q 632 77 708 171 q 417 -17 556 -17 m 417 10 q 610 94 543 10 q 676 325 676 178 l 676 392 q 610 623 676 539 q 417 707 543 707 q 224 623 290 707 q 157 392 157 539 l 157 325 q 224 94 157 178 q 417 10 290 10 m 314 1038 l 504 1038 q 536 1013 536 1038 q 528 989 536 1004 q 493 932 521 974 l 425 826 l 403 838 l 510 1013 l 314 1013 l 314 1038 z "},"ő":{"ha":833,"x_min":125,"x_max":708,"o":"m 417 -17 q 201 77 278 -17 q 125 358 125 171 q 201 640 125 546 q 417 733 278 733 q 632 640 556 733 q 708 358 708 546 q 632 77 708 171 q 417 -17 556 -17 m 417 10 q 610 94 543 10 q 676 325 676 178 l 676 392 q 610 623 676 539 q 417 707 543 707 q 224 623 290 707 q 157 392 157 539 l 157 325 q 224 94 157 178 q 417 10 290 10 m 306 829 l 285 843 l 439 1057 l 465 1040 l 306 829 m 528 829 l 507 843 l 661 1057 l 688 1040 l 528 829 z "},"ō":{"ha":833,"x_min":125,"x_max":708,"o":"m 417 -17 q 201 77 278 -17 q 125 358 125 171 q 201 640 125 546 q 417 733 278 733 q 632 640 556 733 q 708 358 708 546 q 632 77 708 171 q 417 -17 556 -17 m 417 10 q 610 94 543 10 q 676 325 676 178 l 676 392 q 610 623 676 539 q 417 707 543 707 q 224 623 290 707 q 157 392 157 539 l 157 325 q 224 94 157 178 q 417 10 290 10 m 238 953 l 596 953 l 596 928 l 238 928 l 238 953 z "},"ø":{"ha":833,"x_min":93,"x_max":740,"o":"m 93 -21 l 189 96 q 125 358 125 192 q 201 640 125 546 q 417 733 278 733 q 629 640 554 733 l 721 753 l 740 738 l 644 621 q 708 358 708 525 q 632 77 708 171 q 417 -17 556 -17 q 204 76 279 -17 l 113 -36 l 93 -21 m 417 707 q 224 623 290 707 q 157 392 157 539 l 157 325 q 207 119 157 199 l 611 618 q 530 684 578 661 q 417 707 482 707 m 417 10 q 610 94 543 10 q 676 325 676 178 l 676 392 q 626 597 676 518 l 222 99 q 303 33 256 56 q 417 10 351 10 z "},"ǿ":{"ha":833,"x_min":93,"x_max":740,"o":"m 93 -21 l 189 96 q 125 358 125 192 q 201 640 125 546 q 417 733 278 733 q 629 640 554 733 l 721 753 l 740 738 l 644 621 q 708 358 708 525 q 632 77 708 171 q 417 -17 556 -17 q 204 76 279 -17 l 113 -36 l 93 -21 m 417 707 q 224 623 290 707 q 157 392 157 539 l 157 325 q 207 119 157 199 l 611 618 q 530 684 578 661 q 417 707 482 707 m 417 10 q 610 94 543 10 q 676 325 676 178 l 676 392 q 626 597 676 518 l 222 99 q 303 33 256 56 q 417 10 351 10 m 392 829 l 371 843 l 525 1057 l 551 1040 l 392 829 z "},"õ":{"ha":833,"x_min":125,"x_max":708,"o":"m 417 -17 q 201 77 278 -17 q 125 358 125 171 q 201 640 125 546 q 417 733 278 733 q 632 640 556 733 q 708 358 708 546 q 632 77 708 171 q 417 -17 556 -17 m 417 10 q 610 94 543 10 q 676 325 676 178 l 676 392 q 610 623 676 539 q 417 707 543 707 q 224 623 290 707 q 157 392 157 539 l 157 325 q 224 94 157 178 q 417 10 290 10 m 515 886 q 468 895 492 886 q 408 928 444 904 q 357 956 378 947 q 317 964 336 964 q 226 918 269 964 l 210 935 q 318 989 258 989 q 365 980 342 989 q 425 947 389 971 q 476 919 456 928 q 517 911 497 911 q 563 922 542 911 q 607 957 585 933 l 624 940 q 515 886 575 886 z "},"ơ":{"ha":833,"x_min":125,"x_max":708,"o":"m 694 871 l 694 733 q 654 692 694 692 l 572 692 q 674 567 639 650 q 708 358 708 483 q 632 77 708 171 q 417 -17 556 -17 q 201 77 278 -17 q 125 358 125 171 q 201 640 125 546 q 417 733 278 733 q 521 717 472 733 l 667 717 l 667 871 l 694 871 m 417 10 q 610 94 543 10 q 676 325 676 178 l 676 392 q 610 623 676 539 q 417 707 543 707 q 224 623 290 707 q 157 392 157 539 l 157 325 q 224 94 157 178 q 417 10 290 10 z "},"ớ":{"ha":833,"x_min":125,"x_max":708,"o":"m 694 871 l 694 733 q 654 692 694 692 l 572 692 q 674 567 639 650 q 708 358 708 483 q 632 77 708 171 q 417 -17 556 -17 q 201 77 278 -17 q 125 358 125 171 q 201 640 125 546 q 417 733 278 733 q 521 717 472 733 l 667 717 l 667 871 l 694 871 m 417 10 q 610 94 543 10 q 676 325 676 178 l 676 392 q 610 623 676 539 q 417 707 543 707 q 224 623 290 707 q 157 392 157 539 l 157 325 q 224 94 157 178 q 417 10 290 10 m 392 829 l 371 843 l 525 1057 l 551 1040 l 392 829 z "},"ợ":{"ha":833,"x_min":125,"x_max":708,"o":"m 694 871 l 694 733 q 654 692 694 692 l 572 692 q 674 567 639 650 q 708 358 708 483 q 632 77 708 171 q 417 -17 556 -17 q 201 77 278 -17 q 125 358 125 171 q 201 640 125 546 q 417 733 278 733 q 521 717 472 733 l 667 717 l 667 871 l 694 871 m 417 10 q 610 94 543 10 q 676 325 676 178 l 676 392 q 610 623 676 539 q 417 707 543 707 q 224 623 290 707 q 157 392 157 539 l 157 325 q 224 94 157 178 q 417 10 290 10 m 417 -190 q 385 -181 394 -190 q 376 -158 376 -172 l 376 -147 q 385 -124 376 -133 q 417 -115 394 -115 q 448 -124 439 -115 q 457 -147 457 -133 l 457 -158 q 448 -181 457 -172 q 417 -190 439 -190 z "},"ờ":{"ha":833,"x_min":125,"x_max":708,"o":"m 694 871 l 694 733 q 654 692 694 692 l 572 692 q 674 567 639 650 q 708 358 708 483 q 632 77 708 171 q 417 -17 556 -17 q 201 77 278 -17 q 125 358 125 171 q 201 640 125 546 q 417 733 278 733 q 521 717 472 733 l 667 717 l 667 871 l 694 871 m 417 10 q 610 94 543 10 q 676 325 676 178 l 676 392 q 610 623 676 539 q 417 707 543 707 q 224 623 290 707 q 157 392 157 539 l 157 325 q 224 94 157 178 q 417 10 290 10 m 281 1040 l 307 1057 l 461 843 l 440 829 l 281 1040 z "},"ở":{"ha":833,"x_min":125,"x_max":708,"o":"m 694 871 l 694 733 q 654 692 694 692 l 572 692 q 674 567 639 650 q 708 358 708 483 q 632 77 708 171 q 417 -17 556 -17 q 201 77 278 -17 q 125 358 125 171 q 201 640 125 546 q 417 733 278 733 q 521 717 472 733 l 667 717 l 667 871 l 694 871 m 417 10 q 610 94 543 10 q 676 325 676 178 l 676 392 q 610 623 676 539 q 417 707 543 707 q 224 623 290 707 q 157 392 157 539 l 157 325 q 224 94 157 178 q 417 10 290 10 m 314 1038 l 504 1038 q 536 1013 536 1038 q 528 989 536 1004 q 493 932 521 974 l 425 826 l 403 838 l 510 1013 l 314 1013 l 314 1038 z "},"ỡ":{"ha":833,"x_min":125,"x_max":708,"o":"m 694 871 l 694 733 q 654 692 694 692 l 572 692 q 674 567 639 650 q 708 358 708 483 q 632 77 708 171 q 417 -17 556 -17 q 201 77 278 -17 q 125 358 125 171 q 201 640 125 546 q 417 733 278 733 q 521 717 472 733 l 667 717 l 667 871 l 694 871 m 417 10 q 610 94 543 10 q 676 325 676 178 l 676 392 q 610 623 676 539 q 417 707 543 707 q 224 623 290 707 q 157 392 157 539 l 157 325 q 224 94 157 178 q 417 10 290 10 m 515 886 q 468 895 492 886 q 408 928 444 904 q 357 956 378 947 q 317 964 336 964 q 226 918 269 964 l 210 935 q 318 989 258 989 q 365 980 342 989 q 425 947 389 971 q 476 919 456 928 q 517 911 497 911 q 563 922 542 911 q 607 957 585 933 l 624 940 q 515 886 575 886 z "},"ố":{"ha":833,"x_min":125,"x_max":735,"o":"m 417 -17 q 201 77 278 -17 q 125 358 125 171 q 201 640 125 546 q 417 733 278 733 q 632 640 556 733 q 708 358 708 546 q 632 77 708 171 q 417 -17 556 -17 m 417 10 q 610 94 543 10 q 676 325 676 178 l 676 392 q 610 623 676 539 q 417 707 543 707 q 224 623 290 707 q 157 392 157 539 l 157 325 q 224 94 157 178 q 417 10 290 10 m 575 982 l 554 996 l 708 1210 l 735 1193 l 575 982 m 433 1035 l 611 850 l 592 835 l 417 1011 l 242 835 l 222 850 l 400 1035 l 433 1035 z "},"ộ":{"ha":833,"x_min":125,"x_max":708,"o":"m 417 -17 q 201 77 278 -17 q 125 358 125 171 q 201 640 125 546 q 417 733 278 733 q 632 640 556 733 q 708 358 708 546 q 632 77 708 171 q 417 -17 556 -17 m 417 10 q 610 94 543 10 q 676 325 676 178 l 676 392 q 610 623 676 539 q 417 707 543 707 q 224 623 290 707 q 157 392 157 539 l 157 325 q 224 94 157 178 q 417 10 290 10 m 433 1046 l 611 861 l 592 846 l 417 1022 l 242 846 l 222 861 l 400 1046 l 433 1046 m 417 -190 q 385 -181 394 -190 q 376 -158 376 -172 l 376 -147 q 385 -124 376 -133 q 417 -115 394 -115 q 448 -124 439 -115 q 457 -147 457 -133 l 457 -158 q 448 -181 457 -172 q 417 -190 439 -190 z "},"ồ":{"ha":833,"x_min":99,"x_max":708,"o":"m 417 -17 q 201 77 278 -17 q 125 358 125 171 q 201 640 125 546 q 417 733 278 733 q 632 640 556 733 q 708 358 708 546 q 632 77 708 171 q 417 -17 556 -17 m 417 10 q 610 94 543 10 q 676 325 676 178 l 676 392 q 610 623 676 539 q 417 707 543 707 q 224 623 290 707 q 157 392 157 539 l 157 325 q 224 94 157 178 q 417 10 290 10 m 99 1193 l 125 1210 l 279 996 l 258 982 l 99 1193 m 433 1035 l 611 850 l 592 835 l 417 1011 l 242 835 l 222 850 l 400 1035 l 433 1035 z "},"ổ":{"ha":833,"x_min":125,"x_max":708,"o":"m 417 -17 q 201 77 278 -17 q 125 358 125 171 q 201 640 125 546 q 417 733 278 733 q 632 640 556 733 q 708 358 708 546 q 632 77 708 171 q 417 -17 556 -17 m 417 10 q 610 94 543 10 q 676 325 676 178 l 676 392 q 610 623 676 539 q 417 707 543 707 q 224 623 290 707 q 157 392 157 539 l 157 325 q 224 94 157 178 q 417 10 290 10 m 471 1190 l 661 1190 q 693 1165 693 1190 q 685 1142 693 1157 q 650 1085 678 1126 l 582 979 l 560 990 l 667 1165 l 471 1165 l 471 1190 m 433 1035 l 611 850 l 592 835 l 417 1011 l 242 835 l 222 850 l 400 1035 l 433 1035 z "},"ỗ":{"ha":833,"x_min":125,"x_max":708,"o":"m 417 -17 q 201 77 278 -17 q 125 358 125 171 q 201 640 125 546 q 417 733 278 733 q 632 640 556 733 q 708 358 708 546 q 632 77 708 171 q 417 -17 556 -17 m 417 10 q 610 94 543 10 q 676 325 676 178 l 676 392 q 610 623 676 539 q 417 707 543 707 q 224 623 290 707 q 157 392 157 539 l 157 325 q 224 94 157 178 q 417 10 290 10 m 318 1190 q 365 1181 342 1190 q 425 1149 389 1172 q 476 1121 456 1129 q 517 1113 497 1113 q 563 1124 542 1113 q 607 1158 585 1135 l 624 1142 q 515 1088 575 1088 q 468 1097 492 1088 q 408 1129 444 1106 q 357 1157 378 1149 q 317 1165 336 1165 q 226 1119 269 1165 l 210 1136 q 318 1190 258 1190 m 433 1035 l 611 850 l 592 835 l 417 1011 l 242 835 l 222 850 l 400 1035 l 433 1035 z "},"œ":{"ha":833,"x_min":33,"x_max":799,"o":"m 233 10 q 355 86 307 10 q 403 319 403 163 l 403 397 q 355 631 403 554 q 233 707 307 707 q 112 631 160 707 q 64 397 64 554 l 64 319 q 112 86 64 163 q 233 10 160 10 m 769 382 l 769 435 q 757 566 769 514 q 723 649 744 618 q 672 694 701 681 q 608 707 643 707 q 479 638 526 707 q 432 414 432 568 l 432 382 l 769 382 m 597 -17 q 483 29 532 -17 q 417 183 433 75 l 413 183 q 347 31 397 78 q 232 -17 297 -17 q 151 4 188 -17 q 89 71 115 25 q 48 188 63 117 q 33 358 33 258 q 88 644 33 556 q 232 733 143 733 q 351 682 303 733 q 415 533 399 631 l 419 533 q 487 685 439 638 q 608 733 535 733 q 686 717 651 733 q 746 663 721 700 q 785 570 771 626 q 799 435 799 514 l 799 358 l 432 358 l 432 314 q 445 169 432 228 q 481 76 458 111 q 535 25 504 40 q 599 10 565 10 q 703 53 661 10 q 764 169 744 96 l 790 163 q 765 95 781 128 q 725 38 749 63 q 669 -2 701 13 q 597 -17 638 -17 z "},"ŕ":{"ha":833,"x_min":111,"x_max":772,"o":"m 111 26 l 358 26 l 358 690 l 111 690 l 111 717 l 388 717 l 388 578 l 392 578 q 422 632 404 607 q 465 676 439 657 q 528 706 492 694 q 613 717 564 717 l 772 717 l 772 690 l 607 690 q 524 676 564 690 q 454 634 485 663 q 406 563 424 606 q 388 460 388 519 l 388 26 l 701 26 l 701 0 l 111 0 l 111 26 m 500 829 l 479 843 l 633 1057 l 660 1040 l 500 829 z "},"ř":{"ha":833,"x_min":111,"x_max":772,"o":"m 111 26 l 358 26 l 358 690 l 111 690 l 111 717 l 388 717 l 388 578 l 392 578 q 422 632 404 607 q 465 676 439 657 q 528 706 492 694 q 613 717 564 717 l 772 717 l 772 690 l 607 690 q 524 676 564 690 q 454 634 485 663 q 406 563 424 606 q 388 460 388 519 l 388 26 l 701 26 l 701 0 l 111 0 l 111 26 m 508 851 l 331 1036 l 350 1051 l 525 875 l 700 1051 l 719 1036 l 542 851 l 508 851 z "},"ŗ":{"ha":833,"x_min":111,"x_max":772,"o":"m 111 26 l 358 26 l 358 690 l 111 690 l 111 717 l 388 717 l 388 578 l 392 578 q 422 632 404 607 q 465 676 439 657 q 528 706 492 694 q 613 717 564 717 l 772 717 l 772 690 l 607 690 q 524 676 564 690 q 454 634 485 663 q 406 563 424 606 q 388 460 388 519 l 388 26 l 701 26 l 701 0 l 111 0 l 111 26 m 358 -94 l 393 -94 l 322 -349 l 297 -349 l 358 -94 z "},"ś":{"ha":833,"x_min":126,"x_max":718,"o":"m 442 -17 q 126 125 239 -17 l 147 143 q 274 41 203 72 q 440 10 344 10 q 621 54 553 10 q 689 192 689 99 q 676 258 689 232 q 637 302 663 285 q 575 329 611 319 q 493 346 539 339 l 382 361 q 292 379 333 368 q 222 410 251 390 q 176 462 193 431 q 160 542 160 493 q 180 631 160 594 q 235 690 200 667 q 315 723 269 713 q 414 733 361 733 q 509 724 467 733 q 584 699 551 714 q 642 663 617 683 q 688 621 668 642 l 668 600 q 626 640 649 621 q 572 674 603 660 q 503 698 542 689 q 413 707 464 707 q 250 668 311 707 q 189 543 189 629 q 202 476 189 503 q 241 433 215 450 q 303 405 267 415 q 385 389 339 394 l 496 374 q 585 356 544 367 q 656 324 626 344 q 701 272 685 304 q 718 193 718 240 q 697 99 718 139 q 638 34 675 60 q 551 -4 601 8 q 442 -17 500 -17 m 389 829 l 368 843 l 522 1057 l 549 1040 l 389 829 z "},"š":{"ha":833,"x_min":126,"x_max":718,"o":"m 442 -17 q 126 125 239 -17 l 147 143 q 274 41 203 72 q 440 10 344 10 q 621 54 553 10 q 689 192 689 99 q 676 258 689 232 q 637 302 663 285 q 575 329 611 319 q 493 346 539 339 l 382 361 q 292 379 333 368 q 222 410 251 390 q 176 462 193 431 q 160 542 160 493 q 180 631 160 594 q 235 690 200 667 q 315 723 269 713 q 414 733 361 733 q 509 724 467 733 q 584 699 551 714 q 642 663 617 683 q 688 621 668 642 l 668 600 q 626 640 649 621 q 572 674 603 660 q 503 698 542 689 q 413 707 464 707 q 250 668 311 707 q 189 543 189 629 q 202 476 189 503 q 241 433 215 450 q 303 405 267 415 q 385 389 339 394 l 496 374 q 585 356 544 367 q 656 324 626 344 q 701 272 685 304 q 718 193 718 240 q 697 99 718 139 q 638 34 675 60 q 551 -4 601 8 q 442 -17 500 -17 m 397 851 l 219 1036 l 239 1051 l 414 875 l 589 1051 l 608 1036 l 431 851 l 397 851 z "},"ş":{"ha":833,"x_min":126,"x_max":718,"o":"m 442 -281 q 372 -267 401 -281 q 329 -236 342 -254 l 347 -218 q 442 -256 378 -256 q 503 -237 479 -256 q 526 -183 526 -219 q 508 -140 526 -157 q 442 -119 489 -122 l 390 -117 l 414 -17 q 126 125 231 -7 l 147 143 q 274 41 203 72 q 440 10 344 10 q 621 54 553 10 q 689 192 689 99 q 676 258 689 232 q 637 302 663 285 q 575 329 611 319 q 493 346 539 339 l 382 361 q 292 379 333 368 q 222 410 251 390 q 176 462 193 431 q 160 542 160 493 q 180 631 160 594 q 235 690 200 667 q 315 723 269 713 q 414 733 361 733 q 509 724 467 733 q 584 699 551 714 q 642 663 617 683 q 688 621 668 642 l 668 600 q 626 640 649 621 q 572 674 603 660 q 503 698 542 689 q 413 707 464 707 q 250 668 311 707 q 189 543 189 629 q 202 476 189 503 q 241 433 215 450 q 303 405 267 415 q 385 389 339 394 l 496 374 q 585 356 544 367 q 656 324 626 344 q 701 272 685 304 q 718 193 718 240 q 697 99 718 139 q 638 34 675 60 q 551 -4 601 8 q 442 -17 500 -17 l 439 -17 l 418 -101 l 421 -104 q 442 -101 431 -101 q 463 -100 453 -100 q 529 -122 503 -100 q 556 -182 556 -144 q 525 -251 556 -222 q 442 -281 494 -281 z "},"ŝ":{"ha":833,"x_min":126,"x_max":718,"o":"m 442 -17 q 126 125 239 -17 l 147 143 q 274 41 203 72 q 440 10 344 10 q 621 54 553 10 q 689 192 689 99 q 676 258 689 232 q 637 302 663 285 q 575 329 611 319 q 493 346 539 339 l 382 361 q 292 379 333 368 q 222 410 251 390 q 176 462 193 431 q 160 542 160 493 q 180 631 160 594 q 235 690 200 667 q 315 723 269 713 q 414 733 361 733 q 509 724 467 733 q 584 699 551 714 q 642 663 617 683 q 688 621 668 642 l 668 600 q 626 640 649 621 q 572 674 603 660 q 503 698 542 689 q 413 707 464 707 q 250 668 311 707 q 189 543 189 629 q 202 476 189 503 q 241 433 215 450 q 303 405 267 415 q 385 389 339 394 l 496 374 q 585 356 544 367 q 656 324 626 344 q 701 272 685 304 q 718 193 718 240 q 697 99 718 139 q 638 34 675 60 q 551 -4 601 8 q 442 -17 500 -17 m 431 1046 l 608 861 l 589 846 l 414 1022 l 239 846 l 219 861 l 397 1046 l 431 1046 z "},"ș":{"ha":833,"x_min":126,"x_max":718,"o":"m 442 -17 q 126 125 239 -17 l 147 143 q 274 41 203 72 q 440 10 344 10 q 621 54 553 10 q 689 192 689 99 q 676 258 689 232 q 637 302 663 285 q 575 329 611 319 q 493 346 539 339 l 382 361 q 292 379 333 368 q 222 410 251 390 q 176 462 193 431 q 160 542 160 493 q 180 631 160 594 q 235 690 200 667 q 315 723 269 713 q 414 733 361 733 q 509 724 467 733 q 584 699 551 714 q 642 663 617 683 q 688 621 668 642 l 668 600 q 626 640 649 621 q 572 674 603 660 q 503 698 542 689 q 413 707 464 707 q 250 668 311 707 q 189 543 189 629 q 202 476 189 503 q 241 433 215 450 q 303 405 267 415 q 385 389 339 394 l 496 374 q 585 356 544 367 q 656 324 626 344 q 701 272 685 304 q 718 193 718 240 q 697 99 718 139 q 638 34 675 60 q 551 -4 601 8 q 442 -17 500 -17 m 426 -94 l 461 -94 l 390 -349 l 365 -349 l 426 -94 z "},"ſ":{"ha":833,"x_min":117,"x_max":740,"o":"m 131 26 l 399 26 l 399 690 l 117 690 l 117 717 l 399 717 l 399 988 q 439 1028 399 1028 l 740 1028 l 740 1001 l 426 1001 l 426 26 l 708 26 l 708 0 l 131 0 l 131 26 z "},"ß":{"ha":833,"x_min":194,"x_max":785,"o":"m 194 0 l 194 988 q 235 1028 194 1028 l 536 1028 l 536 1001 l 224 1001 l 224 717 l 735 717 l 735 689 l 419 289 q 692 225 599 289 q 785 13 785 161 q 694 -206 785 -133 q 428 -278 604 -278 l 339 -278 l 339 -251 l 428 -251 q 671 -190 589 -251 q 753 -7 753 -128 l 753 36 q 730 140 753 97 q 664 210 707 183 q 560 250 621 238 q 425 263 500 263 l 388 263 l 388 290 l 703 690 l 224 690 l 224 0 l 194 0 z "},"ŧ":{"ha":833,"x_min":50,"x_max":725,"o":"m 725 0 l 369 0 q 329 40 329 0 l 329 393 l 149 393 l 149 418 l 329 418 l 329 690 l 50 690 l 50 717 l 289 717 q 329 757 329 717 l 329 969 l 358 969 l 358 717 l 725 717 l 725 690 l 358 690 l 358 418 l 626 418 l 626 393 l 358 393 l 358 26 l 725 26 l 725 0 z "},"ť":{"ha":833,"x_min":50,"x_max":725,"o":"m 369 0 q 329 40 329 0 l 329 690 l 50 690 l 50 717 l 289 717 q 329 757 329 717 l 329 969 l 358 969 l 358 717 l 725 717 l 725 690 l 358 690 l 358 26 l 725 26 l 725 0 l 369 0 m 564 811 l 540 811 l 563 1056 l 597 1056 l 564 811 z "},"ț":{"ha":833,"x_min":50,"x_max":725,"o":"m 369 0 q 329 40 329 0 l 329 690 l 50 690 l 50 717 l 289 717 q 329 757 329 717 l 329 969 l 358 969 l 358 717 l 725 717 l 725 690 l 358 690 l 358 26 l 725 26 l 725 0 l 369 0 m 510 -94 l 544 -94 l 474 -349 l 449 -349 l 510 -94 z "},"ţ":{"ha":833,"x_min":50,"x_max":725,"o":"m 539 -281 q 469 -267 499 -281 q 426 -236 439 -254 l 444 -218 q 539 -256 475 -256 q 600 -237 576 -256 q 624 -183 624 -219 q 605 -140 624 -157 q 539 -119 586 -122 l 488 -117 l 515 0 l 369 0 q 329 40 329 0 l 329 690 l 50 690 l 50 717 l 289 717 q 329 757 329 717 l 329 969 l 358 969 l 358 717 l 725 717 l 725 690 l 358 690 l 358 26 l 725 26 l 725 0 l 540 0 l 515 -101 l 518 -104 q 539 -101 528 -101 q 560 -100 550 -100 q 626 -122 600 -100 q 653 -182 653 -144 q 622 -251 653 -222 q 539 -281 592 -281 z "},"þ":{"ha":833,"x_min":174,"x_max":722,"o":"m 174 1028 l 203 1028 l 203 608 l 207 608 q 237 653 218 631 q 284 693 256 675 q 349 722 313 711 q 435 733 386 733 q 551 712 499 733 q 642 645 604 690 q 701 529 681 600 q 722 358 722 458 q 701 188 722 258 q 642 72 681 117 q 551 5 604 26 q 435 -17 499 -17 q 349 -6 386 -17 q 284 24 313 6 q 237 64 256 42 q 207 108 218 86 l 203 108 l 203 -278 l 174 -278 l 174 1028 m 432 10 q 619 88 547 10 q 690 319 690 167 l 690 397 q 619 628 690 550 q 432 707 549 707 q 345 693 386 707 q 272 654 304 679 q 222 594 240 629 q 203 518 203 560 l 203 199 q 222 122 203 157 q 272 63 240 88 q 345 24 304 38 q 432 10 386 10 z "},"ú":{"ha":833,"x_min":163,"x_max":657,"o":"m 628 103 l 624 103 q 597 58 614 79 q 552 19 579 36 q 488 -7 525 3 q 404 -17 451 -17 q 224 51 285 -17 q 163 250 163 119 l 163 717 l 192 717 l 192 254 q 248 67 192 125 q 408 10 304 10 q 491 22 451 10 q 561 57 531 33 q 610 116 592 81 q 628 200 628 151 l 628 717 l 657 717 l 657 0 l 628 0 l 628 103 m 388 829 l 367 843 l 521 1057 l 547 1040 l 388 829 z "},"ŭ":{"ha":833,"x_min":163,"x_max":657,"o":"m 628 103 l 624 103 q 597 58 614 79 q 552 19 579 36 q 488 -7 525 3 q 404 -17 451 -17 q 224 51 285 -17 q 163 250 163 119 l 163 717 l 192 717 l 192 254 q 248 67 192 125 q 408 10 304 10 q 491 22 451 10 q 561 57 531 33 q 610 116 592 81 q 628 200 628 151 l 628 717 l 657 717 l 657 0 l 628 0 l 628 103 m 413 849 q 349 860 375 849 q 301 894 322 871 q 260 950 279 917 q 221 1028 242 983 l 242 1038 l 281 969 q 340 895 313 915 q 413 875 368 875 q 485 895 457 875 q 544 969 513 915 l 583 1038 l 604 1028 q 565 950 583 983 q 524 894 546 917 q 476 860 503 871 q 413 849 450 849 z "},"ǔ":{"ha":833,"x_min":163,"x_max":657,"o":"m 628 103 l 624 103 q 597 58 614 79 q 552 19 579 36 q 488 -7 525 3 q 404 -17 451 -17 q 224 51 285 -17 q 163 250 163 119 l 163 717 l 192 717 l 192 254 q 248 67 192 125 q 408 10 304 10 q 491 22 451 10 q 561 57 531 33 q 610 116 592 81 q 628 200 628 151 l 628 717 l 657 717 l 657 0 l 628 0 l 628 103 m 396 851 l 218 1036 l 238 1051 l 413 875 l 588 1051 l 607 1036 l 429 851 l 396 851 z "},"û":{"ha":833,"x_min":163,"x_max":657,"o":"m 628 103 l 624 103 q 597 58 614 79 q 552 19 579 36 q 488 -7 525 3 q 404 -17 451 -17 q 224 51 285 -17 q 163 250 163 119 l 163 717 l 192 717 l 192 254 q 248 67 192 125 q 408 10 304 10 q 491 22 451 10 q 561 57 531 33 q 610 116 592 81 q 628 200 628 151 l 628 717 l 657 717 l 657 0 l 628 0 l 628 103 m 429 1046 l 607 861 l 588 846 l 413 1022 l 238 846 l 218 861 l 396 1046 l 429 1046 z "},"ü":{"ha":833,"x_min":163,"x_max":657,"o":"m 628 103 l 624 103 q 597 58 614 79 q 552 19 579 36 q 488 -7 525 3 q 404 -17 451 -17 q 224 51 285 -17 q 163 250 163 119 l 163 717 l 192 717 l 192 254 q 248 67 192 125 q 408 10 304 10 q 491 22 451 10 q 561 57 531 33 q 610 116 592 81 q 628 200 628 151 l 628 717 l 657 717 l 657 0 l 628 0 l 628 103 m 286 901 q 255 910 264 901 q 246 933 246 919 l 246 944 q 255 967 246 958 q 286 976 264 976 q 317 967 308 976 q 326 944 326 958 l 326 933 q 317 910 326 919 q 286 901 308 901 m 539 901 q 508 910 517 901 q 499 933 499 919 l 499 944 q 508 967 499 958 q 539 976 517 976 q 570 967 561 976 q 579 944 579 958 l 579 933 q 570 910 579 919 q 539 901 561 901 z "},"ụ":{"ha":833,"x_min":163,"x_max":657,"o":"m 628 103 l 624 103 q 597 58 614 79 q 552 19 579 36 q 488 -7 525 3 q 404 -17 451 -17 q 224 51 285 -17 q 163 250 163 119 l 163 717 l 192 717 l 192 254 q 248 67 192 125 q 408 10 304 10 q 491 22 451 10 q 561 57 531 33 q 610 116 592 81 q 628 200 628 151 l 628 717 l 657 717 l 657 0 l 628 0 l 628 103 m 411 -190 q 380 -181 389 -190 q 371 -158 371 -172 l 371 -147 q 380 -124 371 -133 q 411 -115 389 -115 q 442 -124 433 -115 q 451 -147 451 -133 l 451 -158 q 442 -181 451 -172 q 411 -190 433 -190 z "},"ù":{"ha":833,"x_min":163,"x_max":657,"o":"m 628 103 l 624 103 q 597 58 614 79 q 552 19 579 36 q 488 -7 525 3 q 404 -17 451 -17 q 224 51 285 -17 q 163 250 163 119 l 163 717 l 192 717 l 192 254 q 248 67 192 125 q 408 10 304 10 q 491 22 451 10 q 561 57 531 33 q 610 116 592 81 q 628 200 628 151 l 628 717 l 657 717 l 657 0 l 628 0 l 628 103 m 276 1040 l 303 1057 l 457 843 l 436 829 l 276 1040 z "},"ủ":{"ha":833,"x_min":163,"x_max":657,"o":"m 628 103 l 624 103 q 597 58 614 79 q 552 19 579 36 q 488 -7 525 3 q 404 -17 451 -17 q 224 51 285 -17 q 163 250 163 119 l 163 717 l 192 717 l 192 254 q 248 67 192 125 q 408 10 304 10 q 491 22 451 10 q 561 57 531 33 q 610 116 592 81 q 628 200 628 151 l 628 717 l 657 717 l 657 0 l 628 0 l 628 103 m 308 1038 l 499 1038 q 531 1013 531 1038 q 523 989 531 1004 q 488 932 515 974 l 419 826 l 397 838 l 504 1013 l 308 1013 l 308 1038 z "},"ű":{"ha":833,"x_min":163,"x_max":683,"o":"m 628 103 l 624 103 q 597 58 614 79 q 552 19 579 36 q 488 -7 525 3 q 404 -17 451 -17 q 224 51 285 -17 q 163 250 163 119 l 163 717 l 192 717 l 192 254 q 248 67 192 125 q 408 10 304 10 q 491 22 451 10 q 561 57 531 33 q 610 116 592 81 q 628 200 628 151 l 628 717 l 657 717 l 657 0 l 628 0 l 628 103 m 301 829 l 281 843 l 435 1057 l 461 1040 l 301 829 m 524 829 l 503 843 l 657 1057 l 683 1040 l 524 829 z "},"ū":{"ha":833,"x_min":163,"x_max":657,"o":"m 628 103 l 624 103 q 597 58 614 79 q 552 19 579 36 q 488 -7 525 3 q 404 -17 451 -17 q 224 51 285 -17 q 163 250 163 119 l 163 717 l 192 717 l 192 254 q 248 67 192 125 q 408 10 304 10 q 491 22 451 10 q 561 57 531 33 q 610 116 592 81 q 628 200 628 151 l 628 717 l 657 717 l 657 0 l 628 0 l 628 103 m 233 953 l 592 953 l 592 928 l 233 928 l 233 953 z "},"ų":{"ha":833,"x_min":163,"x_max":676,"o":"m 657 0 q 590 -45 619 -24 q 538 -89 560 -67 q 503 -134 515 -111 q 492 -185 492 -157 q 514 -240 492 -224 q 572 -256 536 -256 q 626 -244 607 -256 q 657 -221 646 -233 l 676 -236 q 636 -268 663 -256 q 572 -281 610 -281 q 494 -257 525 -281 q 463 -186 463 -233 q 470 -144 463 -165 q 497 -99 478 -122 q 547 -50 515 -75 q 628 3 579 -25 l 628 103 l 624 103 q 597 58 614 79 q 552 19 579 36 q 488 -7 525 3 q 404 -17 451 -17 q 224 51 285 -17 q 163 250 163 119 l 163 717 l 192 717 l 192 254 q 248 67 192 125 q 408 10 304 10 q 491 22 451 10 q 561 57 531 33 q 610 116 592 81 q 628 200 628 151 l 628 717 l 657 717 l 657 0 z "},"ů":{"ha":833,"x_min":163,"x_max":657,"o":"m 628 103 l 624 103 q 597 58 614 79 q 552 19 579 36 q 488 -7 525 3 q 404 -17 451 -17 q 224 51 285 -17 q 163 250 163 119 l 163 717 l 192 717 l 192 254 q 248 67 192 125 q 408 10 304 10 q 491 22 451 10 q 561 57 531 33 q 610 116 592 81 q 628 200 628 151 l 628 717 l 657 717 l 657 0 l 628 0 l 628 103 m 413 832 q 322 867 356 832 q 288 958 288 901 q 322 1050 288 1015 q 413 1085 356 1085 q 503 1050 469 1085 q 538 958 538 1015 q 503 867 538 901 q 413 832 469 832 m 413 857 q 483 883 457 857 q 510 951 510 908 l 510 965 q 483 1034 510 1008 q 413 1060 457 1060 q 342 1034 368 1060 q 315 965 315 1008 l 315 951 q 342 883 315 908 q 413 857 368 857 z "},"ũ":{"ha":833,"x_min":163,"x_max":657,"o":"m 628 103 l 624 103 q 597 58 614 79 q 552 19 579 36 q 488 -7 525 3 q 404 -17 451 -17 q 224 51 285 -17 q 163 250 163 119 l 163 717 l 192 717 l 192 254 q 248 67 192 125 q 408 10 304 10 q 491 22 451 10 q 561 57 531 33 q 610 116 592 81 q 628 200 628 151 l 628 717 l 657 717 l 657 0 l 628 0 l 628 103 m 511 886 q 464 895 488 886 q 404 928 440 904 q 353 956 374 947 q 313 964 332 964 q 222 918 265 964 l 206 935 q 314 989 254 989 q 361 980 338 989 q 421 947 385 971 q 472 919 451 928 q 513 911 493 911 q 559 922 538 911 q 603 957 581 933 l 619 940 q 511 886 571 886 z "},"ư":{"ha":833,"x_min":163,"x_max":790,"o":"m 790 732 q 750 692 790 692 l 657 692 l 657 0 l 628 0 l 628 103 l 624 103 q 597 58 614 79 q 552 19 579 36 q 488 -7 525 3 q 404 -17 451 -17 q 224 51 285 -17 q 163 250 163 119 l 163 717 l 192 717 l 192 254 q 248 67 192 125 q 408 10 304 10 q 491 22 451 10 q 561 57 531 33 q 610 116 592 81 q 628 200 628 151 l 628 717 l 763 717 l 763 871 l 790 871 l 790 732 z "},"ứ":{"ha":833,"x_min":163,"x_max":790,"o":"m 790 732 q 750 692 790 692 l 657 692 l 657 0 l 628 0 l 628 103 l 624 103 q 597 58 614 79 q 552 19 579 36 q 488 -7 525 3 q 404 -17 451 -17 q 224 51 285 -17 q 163 250 163 119 l 163 717 l 192 717 l 192 254 q 248 67 192 125 q 408 10 304 10 q 491 22 451 10 q 561 57 531 33 q 610 116 592 81 q 628 200 628 151 l 628 717 l 763 717 l 763 871 l 790 871 l 790 732 m 388 829 l 367 843 l 521 1057 l 547 1040 l 388 829 z "},"ự":{"ha":833,"x_min":163,"x_max":790,"o":"m 790 732 q 750 692 790 692 l 657 692 l 657 0 l 628 0 l 628 103 l 624 103 q 597 58 614 79 q 552 19 579 36 q 488 -7 525 3 q 404 -17 451 -17 q 224 51 285 -17 q 163 250 163 119 l 163 717 l 192 717 l 192 254 q 248 67 192 125 q 408 10 304 10 q 491 22 451 10 q 561 57 531 33 q 610 116 592 81 q 628 200 628 151 l 628 717 l 763 717 l 763 871 l 790 871 l 790 732 m 411 -190 q 380 -181 389 -190 q 371 -158 371 -172 l 371 -147 q 380 -124 371 -133 q 411 -115 389 -115 q 442 -124 433 -115 q 451 -147 451 -133 l 451 -158 q 442 -181 451 -172 q 411 -190 433 -190 z "},"ừ":{"ha":833,"x_min":163,"x_max":790,"o":"m 790 732 q 750 692 790 692 l 657 692 l 657 0 l 628 0 l 628 103 l 624 103 q 597 58 614 79 q 552 19 579 36 q 488 -7 525 3 q 404 -17 451 -17 q 224 51 285 -17 q 163 250 163 119 l 163 717 l 192 717 l 192 254 q 248 67 192 125 q 408 10 304 10 q 491 22 451 10 q 561 57 531 33 q 610 116 592 81 q 628 200 628 151 l 628 717 l 763 717 l 763 871 l 790 871 l 790 732 m 276 1040 l 303 1057 l 457 843 l 436 829 l 276 1040 z "},"ử":{"ha":833,"x_min":163,"x_max":790,"o":"m 790 732 q 750 692 790 692 l 657 692 l 657 0 l 628 0 l 628 103 l 624 103 q 597 58 614 79 q 552 19 579 36 q 488 -7 525 3 q 404 -17 451 -17 q 224 51 285 -17 q 163 250 163 119 l 163 717 l 192 717 l 192 254 q 248 67 192 125 q 408 10 304 10 q 491 22 451 10 q 561 57 531 33 q 610 116 592 81 q 628 200 628 151 l 628 717 l 763 717 l 763 871 l 790 871 l 790 732 m 308 1038 l 499 1038 q 531 1013 531 1038 q 523 989 531 1004 q 488 932 515 974 l 419 826 l 397 838 l 504 1013 l 308 1013 l 308 1038 z "},"ữ":{"ha":833,"x_min":163,"x_max":790,"o":"m 790 732 q 750 692 790 692 l 657 692 l 657 0 l 628 0 l 628 103 l 624 103 q 597 58 614 79 q 552 19 579 36 q 488 -7 525 3 q 404 -17 451 -17 q 224 51 285 -17 q 163 250 163 119 l 163 717 l 192 717 l 192 254 q 248 67 192 125 q 408 10 304 10 q 491 22 451 10 q 561 57 531 33 q 610 116 592 81 q 628 200 628 151 l 628 717 l 763 717 l 763 871 l 790 871 l 790 732 m 511 886 q 464 895 488 886 q 404 928 440 904 q 353 956 374 947 q 313 964 332 964 q 222 918 265 964 l 206 935 q 314 989 254 989 q 361 980 338 989 q 421 947 385 971 q 472 919 451 928 q 513 911 493 911 q 559 922 538 911 q 603 957 581 933 l 619 940 q 511 886 571 886 z "},"ǖ":{"ha":833,"x_min":163,"x_max":657,"o":"m 628 103 l 624 103 q 597 58 614 79 q 552 19 579 36 q 488 -7 525 3 q 404 -17 451 -17 q 224 51 285 -17 q 163 250 163 119 l 163 717 l 192 717 l 192 254 q 248 67 192 125 q 408 10 304 10 q 491 22 451 10 q 561 57 531 33 q 610 116 592 81 q 628 200 628 151 l 628 717 l 657 717 l 657 0 l 628 0 l 628 103 m 249 1119 l 574 1119 l 574 1094 l 249 1094 l 249 1119 m 285 890 q 253 899 263 890 q 244 922 244 908 l 244 933 q 253 956 244 947 q 285 965 263 965 q 316 956 307 965 q 325 933 325 947 l 325 922 q 316 899 325 908 q 285 890 307 890 m 538 890 q 506 899 515 890 q 497 922 497 908 l 497 933 q 506 956 497 947 q 538 965 515 965 q 569 956 560 965 q 578 933 578 947 l 578 922 q 569 899 578 908 q 538 890 560 890 z "},"ǘ":{"ha":833,"x_min":163,"x_max":657,"o":"m 628 103 l 624 103 q 597 58 614 79 q 552 19 579 36 q 488 -7 525 3 q 404 -17 451 -17 q 224 51 285 -17 q 163 250 163 119 l 163 717 l 192 717 l 192 254 q 248 67 192 125 q 408 10 304 10 q 491 22 451 10 q 561 57 531 33 q 610 116 592 81 q 628 200 628 151 l 628 717 l 657 717 l 657 0 l 628 0 l 628 103 m 421 982 l 400 996 l 554 1210 l 581 1193 l 421 982 m 285 890 q 253 899 263 890 q 244 922 244 908 l 244 933 q 253 956 244 947 q 285 965 263 965 q 316 956 307 965 q 325 933 325 947 l 325 922 q 316 899 325 908 q 285 890 307 890 m 538 890 q 506 899 515 890 q 497 922 497 908 l 497 933 q 506 956 497 947 q 538 965 515 965 q 569 956 560 965 q 578 933 578 947 l 578 922 q 569 899 578 908 q 538 890 560 890 z "},"ǜ":{"ha":833,"x_min":163,"x_max":657,"o":"m 628 103 l 624 103 q 597 58 614 79 q 552 19 579 36 q 488 -7 525 3 q 404 -17 451 -17 q 224 51 285 -17 q 163 250 163 119 l 163 717 l 192 717 l 192 254 q 248 67 192 125 q 408 10 304 10 q 491 22 451 10 q 561 57 531 33 q 610 116 592 81 q 628 200 628 151 l 628 717 l 657 717 l 657 0 l 628 0 l 628 103 m 242 1193 l 268 1210 l 422 996 l 401 982 l 242 1193 m 285 890 q 253 899 263 890 q 244 922 244 908 l 244 933 q 253 956 244 947 q 285 965 263 965 q 316 956 307 965 q 325 933 325 947 l 325 922 q 316 899 325 908 q 285 890 307 890 m 538 890 q 506 899 515 890 q 497 922 497 908 l 497 933 q 506 956 497 947 q 538 965 515 965 q 569 956 560 965 q 578 933 578 947 l 578 922 q 569 899 578 908 q 538 890 560 890 z "},"ǚ":{"ha":833,"x_min":163,"x_max":657,"o":"m 628 103 l 624 103 q 597 58 614 79 q 552 19 579 36 q 488 -7 525 3 q 404 -17 451 -17 q 224 51 285 -17 q 163 250 163 119 l 163 717 l 192 717 l 192 254 q 248 67 192 125 q 408 10 304 10 q 491 22 451 10 q 561 57 531 33 q 610 116 592 81 q 628 200 628 151 l 628 717 l 657 717 l 657 0 l 628 0 l 628 103 m 394 992 l 217 1176 l 236 1192 l 411 1015 l 586 1192 l 606 1176 l 428 992 l 394 992 m 285 890 q 253 899 263 890 q 244 922 244 908 l 244 933 q 253 956 244 947 q 285 965 263 965 q 316 956 307 965 q 325 933 325 947 l 325 922 q 316 899 325 908 q 285 890 307 890 m 538 890 q 506 899 515 890 q 497 922 497 908 l 497 933 q 506 956 497 947 q 538 965 515 965 q 569 956 560 965 q 578 933 578 947 l 578 922 q 569 899 578 908 q 538 890 560 890 z "},"ẃ":{"ha":833,"x_min":53,"x_max":781,"o":"m 53 717 l 81 717 l 211 26 l 215 26 l 396 717 l 439 717 l 619 26 l 624 26 l 754 717 l 781 717 l 646 0 l 599 0 l 419 689 l 415 689 l 235 0 l 188 0 l 53 717 m 392 829 l 371 843 l 525 1057 l 551 1040 l 392 829 z "},"ŵ":{"ha":833,"x_min":53,"x_max":781,"o":"m 53 717 l 81 717 l 211 26 l 215 26 l 396 717 l 439 717 l 619 26 l 624 26 l 754 717 l 781 717 l 646 0 l 599 0 l 419 689 l 415 689 l 235 0 l 188 0 l 53 717 m 433 1046 l 611 861 l 592 846 l 417 1022 l 242 846 l 222 861 l 400 1046 l 433 1046 z "},"ẅ":{"ha":833,"x_min":53,"x_max":781,"o":"m 53 717 l 81 717 l 211 26 l 215 26 l 396 717 l 439 717 l 619 26 l 624 26 l 754 717 l 781 717 l 646 0 l 599 0 l 419 689 l 415 689 l 235 0 l 188 0 l 53 717 m 290 901 q 259 910 268 901 q 250 933 250 919 l 250 944 q 259 967 250 958 q 290 976 268 976 q 322 967 313 976 q 331 944 331 958 l 331 933 q 322 910 331 919 q 290 901 313 901 m 543 901 q 512 910 521 901 q 503 933 503 919 l 503 944 q 512 967 503 958 q 543 976 521 976 q 574 967 565 976 q 583 944 583 958 l 583 933 q 574 910 583 919 q 543 901 565 901 z "},"ẁ":{"ha":833,"x_min":53,"x_max":781,"o":"m 53 717 l 81 717 l 211 26 l 215 26 l 396 717 l 439 717 l 619 26 l 624 26 l 754 717 l 781 717 l 646 0 l 599 0 l 419 689 l 415 689 l 235 0 l 188 0 l 53 717 m 281 1040 l 307 1057 l 461 843 l 440 829 l 281 1040 z "},"ý":{"ha":833,"x_min":115,"x_max":718,"o":"m 688 717 l 718 717 l 315 -251 q 272 -278 303 -278 l 131 -278 l 131 -251 l 285 -251 l 401 26 l 115 717 l 147 717 l 415 68 l 419 68 l 688 717 m 389 829 l 368 843 l 522 1057 l 549 1040 l 389 829 z "},"ŷ":{"ha":833,"x_min":115,"x_max":718,"o":"m 688 717 l 718 717 l 315 -251 q 272 -278 303 -278 l 131 -278 l 131 -251 l 285 -251 l 401 26 l 115 717 l 147 717 l 415 68 l 419 68 l 688 717 m 431 1046 l 608 861 l 589 846 l 414 1022 l 239 846 l 219 861 l 397 1046 l 431 1046 z "},"ÿ":{"ha":833,"x_min":115,"x_max":718,"o":"m 688 717 l 718 717 l 315 -251 q 272 -278 303 -278 l 131 -278 l 131 -251 l 285 -251 l 401 26 l 115 717 l 147 717 l 415 68 l 419 68 l 688 717 m 288 901 q 256 910 265 901 q 247 933 247 919 l 247 944 q 256 967 247 958 q 288 976 265 976 q 319 967 310 976 q 328 944 328 958 l 328 933 q 319 910 328 919 q 288 901 310 901 m 540 901 q 509 910 518 901 q 500 933 500 919 l 500 944 q 509 967 500 958 q 540 976 518 976 q 572 967 563 976 q 581 944 581 958 l 581 933 q 572 910 581 919 q 540 901 563 901 z "},"ỵ":{"ha":833,"x_min":115,"x_max":718,"o":"m 688 717 l 718 717 l 315 -251 q 272 -278 303 -278 l 131 -278 l 131 -251 l 285 -251 l 401 26 l 115 717 l 147 717 l 415 68 l 419 68 l 688 717 m 611 -190 q 580 -181 589 -190 q 571 -158 571 -172 l 571 -147 q 580 -124 571 -133 q 611 -115 589 -115 q 642 -124 633 -115 q 651 -147 651 -133 l 651 -158 q 642 -181 651 -172 q 611 -190 633 -190 z "},"ỳ":{"ha":833,"x_min":115,"x_max":718,"o":"m 688 717 l 718 717 l 315 -251 q 272 -278 303 -278 l 131 -278 l 131 -251 l 285 -251 l 401 26 l 115 717 l 147 717 l 415 68 l 419 68 l 688 717 m 278 1040 l 304 1057 l 458 843 l 438 829 l 278 1040 z "},"ỷ":{"ha":833,"x_min":115,"x_max":718,"o":"m 688 717 l 718 717 l 315 -251 q 272 -278 303 -278 l 131 -278 l 131 -251 l 285 -251 l 401 26 l 115 717 l 147 717 l 415 68 l 419 68 l 688 717 m 310 1038 l 500 1038 q 532 1013 532 1038 q 524 989 532 1004 q 489 932 517 974 l 421 826 l 399 838 l 506 1013 l 310 1013 l 310 1038 z "},"ỹ":{"ha":833,"x_min":115,"x_max":718,"o":"m 688 717 l 718 717 l 315 -251 q 272 -278 303 -278 l 131 -278 l 131 -251 l 285 -251 l 401 26 l 115 717 l 147 717 l 415 68 l 419 68 l 688 717 m 513 886 q 465 895 489 886 q 406 928 442 904 q 354 956 375 947 q 314 964 333 964 q 224 918 267 964 l 207 935 q 315 989 256 989 q 363 980 339 989 q 422 947 386 971 q 474 919 453 928 q 514 911 494 911 q 560 922 539 911 q 604 957 582 933 l 621 940 q 513 886 572 886 z "},"ź":{"ha":833,"x_min":142,"x_max":692,"o":"m 142 0 l 142 29 l 646 690 l 156 690 l 156 717 l 678 717 l 678 688 l 174 26 l 692 26 l 692 0 l 142 0 m 392 829 l 371 843 l 525 1057 l 551 1040 l 392 829 z "},"ž":{"ha":833,"x_min":142,"x_max":692,"o":"m 142 0 l 142 29 l 646 690 l 156 690 l 156 717 l 678 717 l 678 688 l 174 26 l 692 26 l 692 0 l 142 0 m 400 851 l 222 1036 l 242 1051 l 417 875 l 592 1051 l 611 1036 l 433 851 l 400 851 z "},"ż":{"ha":833,"x_min":142,"x_max":692,"o":"m 142 0 l 142 29 l 646 690 l 156 690 l 156 717 l 678 717 l 678 688 l 174 26 l 692 26 l 692 0 l 142 0 m 417 901 q 385 910 394 901 q 376 933 376 919 l 376 944 q 385 967 376 958 q 417 976 394 976 q 448 967 439 976 q 457 944 457 958 l 457 933 q 448 910 457 919 q 417 901 439 901 z "},"Á":{"ha":833,"x_min":72,"x_max":761,"o":"m 729 0 l 621 325 l 213 325 l 104 0 l 72 0 l 396 969 l 438 969 l 761 0 l 729 0 m 418 935 l 414 935 l 221 351 l 613 351 l 418 935 m 392 1065 l 371 1079 l 525 1293 l 551 1276 l 392 1065 z "},"Ă":{"ha":833,"x_min":72,"x_max":761,"o":"m 729 0 l 621 325 l 213 325 l 104 0 l 72 0 l 396 969 l 438 969 l 761 0 l 729 0 m 418 935 l 414 935 l 221 351 l 613 351 l 418 935 m 417 1085 q 353 1096 379 1085 q 305 1130 326 1107 q 265 1186 283 1153 q 225 1264 246 1219 l 246 1274 l 285 1206 q 344 1131 317 1151 q 417 1111 372 1111 q 489 1131 461 1111 q 549 1206 517 1151 l 588 1274 l 608 1264 q 569 1186 588 1219 q 528 1130 550 1153 q 481 1096 507 1107 q 417 1085 454 1085 z "},"Ǎ":{"ha":833,"x_min":72,"x_max":761,"o":"m 729 0 l 621 325 l 213 325 l 104 0 l 72 0 l 396 969 l 438 969 l 761 0 l 729 0 m 418 935 l 414 935 l 221 351 l 613 351 l 418 935 m 400 1088 l 222 1272 l 242 1288 l 417 1111 l 592 1288 l 611 1272 l 433 1088 l 400 1088 z "},"Â":{"ha":833,"x_min":72,"x_max":761,"o":"m 729 0 l 621 325 l 213 325 l 104 0 l 72 0 l 396 969 l 438 969 l 761 0 l 729 0 m 418 935 l 414 935 l 221 351 l 613 351 l 418 935 m 433 1282 l 611 1097 l 592 1082 l 417 1258 l 242 1082 l 222 1097 l 400 1282 l 433 1282 z "},"Ä":{"ha":833,"x_min":72,"x_max":761,"o":"m 729 0 l 621 325 l 213 325 l 104 0 l 72 0 l 396 969 l 438 969 l 761 0 l 729 0 m 418 935 l 414 935 l 221 351 l 613 351 l 418 935 m 290 1138 q 259 1147 268 1138 q 250 1169 250 1156 l 250 1181 q 259 1203 250 1194 q 290 1213 268 1213 q 322 1203 313 1213 q 331 1181 331 1194 l 331 1169 q 322 1147 331 1156 q 290 1138 313 1138 m 543 1138 q 512 1147 521 1138 q 503 1169 503 1156 l 503 1181 q 512 1203 503 1194 q 543 1213 521 1213 q 574 1203 565 1213 q 583 1181 583 1194 l 583 1169 q 574 1147 583 1156 q 543 1138 565 1138 z "},"Ạ":{"ha":833,"x_min":72,"x_max":761,"o":"m 729 0 l 621 325 l 213 325 l 104 0 l 72 0 l 396 969 l 438 969 l 761 0 l 729 0 m 418 935 l 414 935 l 221 351 l 613 351 l 418 935 m 417 -190 q 385 -181 394 -190 q 376 -158 376 -172 l 376 -147 q 385 -124 376 -133 q 417 -115 394 -115 q 448 -124 439 -115 q 457 -147 457 -133 l 457 -158 q 448 -181 457 -172 q 417 -190 439 -190 z "},"À":{"ha":833,"x_min":72,"x_max":761,"o":"m 729 0 l 621 325 l 213 325 l 104 0 l 72 0 l 396 969 l 438 969 l 761 0 l 729 0 m 418 935 l 414 935 l 221 351 l 613 351 l 418 935 m 281 1276 l 307 1293 l 461 1079 l 440 1065 l 281 1276 z "},"Ả":{"ha":833,"x_min":72,"x_max":761,"o":"m 729 0 l 621 325 l 213 325 l 104 0 l 72 0 l 396 969 l 438 969 l 761 0 l 729 0 m 418 935 l 414 935 l 221 351 l 613 351 l 418 935 m 314 1274 l 504 1274 q 536 1249 536 1274 q 528 1225 536 1240 q 493 1168 521 1210 l 425 1063 l 403 1074 l 510 1249 l 314 1249 l 314 1274 z "},"Ā":{"ha":833,"x_min":72,"x_max":761,"o":"m 729 0 l 621 325 l 213 325 l 104 0 l 72 0 l 396 969 l 438 969 l 761 0 l 729 0 m 418 935 l 414 935 l 221 351 l 613 351 l 418 935 m 238 1189 l 596 1189 l 596 1164 l 238 1164 l 238 1189 z "},"Ą":{"ha":833,"x_min":72,"x_max":781,"o":"m 396 969 l 438 969 l 761 0 q 694 -45 724 -24 q 642 -89 664 -67 q 608 -134 619 -111 q 596 -185 596 -157 q 618 -240 596 -224 q 676 -256 640 -256 q 731 -244 711 -256 q 761 -221 750 -233 l 781 -236 q 740 -268 767 -256 q 676 -281 714 -281 q 598 -257 629 -281 q 567 -186 567 -233 q 600 -100 567 -146 q 729 1 633 -54 l 621 325 l 213 325 l 104 0 l 72 0 l 396 969 m 418 935 l 414 935 l 221 351 l 613 351 l 418 935 z "},"Å":{"ha":833,"x_min":72,"x_max":761,"o":"m 729 0 l 621 325 l 213 325 l 104 0 l 72 0 l 396 969 l 438 969 l 761 0 l 729 0 m 418 935 l 414 935 l 221 351 l 613 351 l 418 935 m 417 1068 q 326 1103 360 1068 q 292 1194 292 1138 q 326 1286 292 1251 q 417 1321 360 1321 q 508 1286 474 1321 q 542 1194 542 1251 q 508 1103 542 1138 q 417 1068 474 1068 m 417 1093 q 488 1119 461 1093 q 514 1188 514 1144 l 514 1201 q 488 1270 514 1244 q 417 1296 461 1296 q 346 1270 372 1296 q 319 1201 319 1244 l 319 1188 q 346 1119 319 1144 q 417 1093 372 1093 z "},"Ǻ":{"ha":833,"x_min":72,"x_max":761,"o":"m 729 0 l 621 325 l 213 325 l 104 0 l 72 0 l 396 969 l 438 969 l 761 0 l 729 0 m 418 935 l 414 935 l 221 351 l 613 351 l 418 935 m 417 1360 l 396 1372 l 507 1515 l 533 1497 l 417 1360 m 417 1068 q 326 1103 360 1068 q 292 1194 292 1138 q 326 1286 292 1251 q 417 1321 360 1321 q 508 1286 474 1321 q 542 1194 542 1251 q 508 1103 542 1138 q 417 1068 474 1068 m 417 1093 q 488 1119 461 1093 q 514 1188 514 1144 l 514 1201 q 488 1270 514 1244 q 417 1296 461 1296 q 346 1270 372 1296 q 319 1201 319 1244 l 319 1188 q 346 1119 319 1144 q 417 1093 372 1093 z "},"Ã":{"ha":833,"x_min":72,"x_max":761,"o":"m 729 0 l 621 325 l 213 325 l 104 0 l 72 0 l 396 969 l 438 969 l 761 0 l 729 0 m 418 935 l 414 935 l 221 351 l 613 351 l 418 935 m 515 1122 q 468 1131 492 1122 q 408 1164 444 1140 q 357 1192 378 1183 q 317 1200 336 1200 q 226 1154 269 1200 l 210 1171 q 318 1225 258 1225 q 365 1216 342 1225 q 425 1183 389 1207 q 476 1156 456 1164 q 517 1147 497 1147 q 563 1158 542 1147 q 607 1193 585 1169 l 624 1176 q 515 1122 575 1122 z "},"Ắ":{"ha":833,"x_min":72,"x_max":761,"o":"m 729 0 l 621 325 l 213 325 l 104 0 l 72 0 l 396 969 l 438 969 l 761 0 l 729 0 m 418 935 l 414 935 l 221 351 l 613 351 l 418 935 m 417 1074 q 353 1085 379 1074 q 305 1119 326 1096 q 265 1175 283 1142 q 225 1253 246 1208 l 246 1263 l 285 1194 q 344 1120 317 1140 q 417 1100 372 1100 q 489 1120 461 1100 q 549 1194 517 1140 l 588 1263 l 608 1253 q 569 1175 588 1208 q 528 1119 550 1142 q 481 1085 507 1096 q 417 1074 454 1074 m 404 1218 l 383 1232 l 538 1446 l 564 1429 l 404 1218 z "},"Ặ":{"ha":833,"x_min":72,"x_max":761,"o":"m 729 0 l 621 325 l 213 325 l 104 0 l 72 0 l 396 969 l 438 969 l 761 0 l 729 0 m 418 935 l 414 935 l 221 351 l 613 351 l 418 935 m 417 1085 q 353 1096 379 1085 q 305 1130 326 1107 q 265 1186 283 1153 q 225 1264 246 1219 l 246 1274 l 285 1206 q 344 1131 317 1151 q 417 1111 372 1111 q 489 1131 461 1111 q 549 1206 517 1151 l 588 1274 l 608 1264 q 569 1186 588 1219 q 528 1130 550 1153 q 481 1096 507 1107 q 417 1085 454 1085 m 417 -190 q 385 -181 394 -190 q 376 -158 376 -172 l 376 -147 q 385 -124 376 -133 q 417 -115 394 -115 q 448 -124 439 -115 q 457 -147 457 -133 l 457 -158 q 448 -181 457 -172 q 417 -190 439 -190 z "},"Ằ":{"ha":833,"x_min":72,"x_max":761,"o":"m 729 0 l 621 325 l 213 325 l 104 0 l 72 0 l 396 969 l 438 969 l 761 0 l 729 0 m 418 935 l 414 935 l 221 351 l 613 351 l 418 935 m 417 1074 q 353 1085 379 1074 q 305 1119 326 1096 q 265 1175 283 1142 q 225 1253 246 1208 l 246 1263 l 285 1194 q 344 1120 317 1140 q 417 1100 372 1100 q 489 1120 461 1100 q 549 1194 517 1140 l 588 1263 l 608 1253 q 569 1175 588 1208 q 528 1119 550 1142 q 481 1085 507 1096 q 417 1074 454 1074 m 269 1429 l 296 1446 l 450 1232 l 429 1218 l 269 1429 z "},"Ẳ":{"ha":833,"x_min":72,"x_max":761,"o":"m 729 0 l 621 325 l 213 325 l 104 0 l 72 0 l 396 969 l 438 969 l 761 0 l 729 0 m 418 935 l 414 935 l 221 351 l 613 351 l 418 935 m 314 1426 l 504 1426 q 536 1401 536 1426 q 528 1378 536 1393 q 493 1321 521 1363 l 425 1215 l 403 1226 l 510 1401 l 314 1401 l 314 1426 m 417 1074 q 353 1085 379 1074 q 305 1119 326 1096 q 265 1175 283 1142 q 225 1253 246 1208 l 246 1263 l 285 1194 q 344 1120 317 1140 q 417 1100 372 1100 q 489 1120 461 1100 q 549 1194 517 1140 l 588 1263 l 608 1253 q 569 1175 588 1208 q 528 1119 550 1142 q 481 1085 507 1096 q 417 1074 454 1074 z "},"Ẵ":{"ha":833,"x_min":72,"x_max":761,"o":"m 729 0 l 621 325 l 213 325 l 104 0 l 72 0 l 396 969 l 438 969 l 761 0 l 729 0 m 418 935 l 414 935 l 221 351 l 613 351 l 418 935 m 515 1310 q 468 1319 492 1310 q 408 1351 444 1328 q 357 1379 378 1371 q 317 1388 336 1388 q 226 1342 269 1388 l 210 1358 q 318 1413 258 1413 q 365 1403 342 1413 q 425 1371 389 1394 q 476 1343 456 1351 q 517 1335 497 1335 q 563 1346 542 1335 q 607 1381 585 1357 l 624 1364 q 515 1310 575 1310 m 417 1074 q 353 1085 379 1074 q 305 1119 326 1096 q 265 1175 283 1142 q 225 1253 246 1208 l 246 1263 l 285 1194 q 344 1120 317 1140 q 417 1100 372 1100 q 489 1120 461 1100 q 549 1194 517 1140 l 588 1263 l 608 1253 q 569 1175 588 1208 q 528 1119 550 1142 q 481 1085 507 1096 q 417 1074 454 1074 z "},"Ấ":{"ha":833,"x_min":72,"x_max":761,"o":"m 729 0 l 621 325 l 213 325 l 104 0 l 72 0 l 396 969 l 438 969 l 761 0 l 729 0 m 418 935 l 414 935 l 221 351 l 613 351 l 418 935 m 575 1218 l 554 1232 l 708 1446 l 735 1429 l 575 1218 m 433 1271 l 611 1086 l 592 1071 l 417 1247 l 242 1071 l 222 1086 l 400 1271 l 433 1271 z "},"Ậ":{"ha":833,"x_min":72,"x_max":761,"o":"m 729 0 l 621 325 l 213 325 l 104 0 l 72 0 l 396 969 l 438 969 l 761 0 l 729 0 m 418 935 l 414 935 l 221 351 l 613 351 l 418 935 m 433 1282 l 611 1097 l 592 1082 l 417 1258 l 242 1082 l 222 1097 l 400 1282 l 433 1282 m 417 -190 q 385 -181 394 -190 q 376 -158 376 -172 l 376 -147 q 385 -124 376 -133 q 417 -115 394 -115 q 448 -124 439 -115 q 457 -147 457 -133 l 457 -158 q 448 -181 457 -172 q 417 -190 439 -190 z "},"Ầ":{"ha":833,"x_min":72,"x_max":761,"o":"m 729 0 l 621 325 l 213 325 l 104 0 l 72 0 l 396 969 l 438 969 l 761 0 l 729 0 m 418 935 l 414 935 l 221 351 l 613 351 l 418 935 m 99 1429 l 125 1446 l 279 1232 l 258 1218 l 99 1429 m 433 1271 l 611 1086 l 592 1071 l 417 1247 l 242 1071 l 222 1086 l 400 1271 l 433 1271 z "},"Ẩ":{"ha":833,"x_min":72,"x_max":761,"o":"m 729 0 l 621 325 l 213 325 l 104 0 l 72 0 l 396 969 l 438 969 l 761 0 l 729 0 m 418 935 l 414 935 l 221 351 l 613 351 l 418 935 m 471 1426 l 661 1426 q 693 1401 693 1426 q 685 1378 693 1393 q 650 1321 678 1363 l 582 1215 l 560 1226 l 667 1401 l 471 1401 l 471 1426 m 433 1271 l 611 1086 l 592 1071 l 417 1247 l 242 1071 l 222 1086 l 400 1271 l 433 1271 z "},"Ẫ":{"ha":833,"x_min":72,"x_max":761,"o":"m 729 0 l 621 325 l 213 325 l 104 0 l 72 0 l 396 969 l 438 969 l 761 0 l 729 0 m 418 935 l 414 935 l 221 351 l 613 351 l 418 935 m 318 1426 q 365 1417 342 1426 q 425 1385 389 1408 q 476 1357 456 1365 q 517 1349 497 1349 q 563 1360 542 1349 q 607 1394 585 1371 l 624 1378 q 515 1324 575 1324 q 468 1333 492 1324 q 408 1365 444 1342 q 357 1393 378 1385 q 317 1401 336 1401 q 226 1356 269 1401 l 210 1372 q 318 1426 258 1426 m 433 1271 l 611 1086 l 592 1071 l 417 1247 l 242 1071 l 222 1086 l 400 1271 l 433 1271 z "},"Æ":{"ha":833,"x_min":54,"x_max":763,"o":"m 453 325 l 190 325 l 88 0 l 54 0 l 364 969 l 763 969 l 763 942 l 483 942 l 483 506 l 743 506 l 743 478 l 483 478 l 483 28 l 763 28 l 763 0 l 453 0 l 453 325 m 386 942 l 199 351 l 453 351 l 453 942 l 386 942 z "},"Ǽ":{"ha":833,"x_min":54,"x_max":763,"o":"m 453 325 l 190 325 l 88 0 l 54 0 l 364 969 l 763 969 l 763 942 l 483 942 l 483 506 l 743 506 l 743 478 l 483 478 l 483 28 l 763 28 l 763 0 l 453 0 l 453 325 m 386 942 l 199 351 l 453 351 l 453 942 l 386 942 m 521 1065 l 500 1079 l 654 1293 l 681 1276 l 521 1065 z "},"Ć":{"ha":833,"x_min":110,"x_max":719,"o":"m 451 -17 q 306 12 369 -17 q 198 101 242 40 q 132 256 154 161 q 110 485 110 351 q 132 713 110 618 q 198 869 154 808 q 306 958 242 929 q 451 986 369 986 q 619 933 550 986 q 719 790 688 881 l 693 781 q 603 911 665 864 q 451 958 540 958 q 222 851 300 958 q 143 529 143 744 l 143 440 q 222 118 143 225 q 451 11 300 11 q 603 58 540 11 q 693 189 665 106 l 719 179 q 619 36 688 89 q 451 -17 550 -17 m 426 1065 l 406 1079 l 560 1293 l 586 1276 l 426 1065 z "},"Č":{"ha":833,"x_min":110,"x_max":719,"o":"m 451 -17 q 306 12 369 -17 q 198 101 242 40 q 132 256 154 161 q 110 485 110 351 q 132 713 110 618 q 198 869 154 808 q 306 958 242 929 q 451 986 369 986 q 619 933 550 986 q 719 790 688 881 l 693 781 q 603 911 665 864 q 451 958 540 958 q 222 851 300 958 q 143 529 143 744 l 143 440 q 222 118 143 225 q 451 11 300 11 q 603 58 540 11 q 693 189 665 106 l 719 179 q 619 36 688 89 q 451 -17 550 -17 m 435 1088 l 257 1272 l 276 1288 l 451 1111 l 626 1288 l 646 1272 l 468 1088 l 435 1088 z "},"Ç":{"ha":833,"x_min":110,"x_max":719,"o":"m 451 958 q 222 851 300 958 q 143 529 143 744 l 143 440 q 222 118 143 225 q 451 11 300 11 q 603 58 540 11 q 693 189 665 106 l 719 179 q 619 36 688 89 q 451 -17 550 -17 l 446 -17 l 425 -101 l 428 -104 q 449 -101 438 -101 q 469 -100 460 -100 q 536 -122 510 -100 q 563 -182 563 -144 q 532 -251 563 -222 q 449 -281 501 -281 q 378 -267 408 -281 q 336 -236 349 -254 l 354 -218 q 449 -256 385 -256 q 510 -237 486 -256 q 533 -183 533 -219 q 515 -140 533 -157 q 449 -119 496 -122 l 397 -117 l 422 -15 q 289 20 347 -11 q 191 113 231 51 q 131 265 151 174 q 110 485 110 357 q 132 713 110 618 q 198 869 154 808 q 306 958 242 929 q 451 986 369 986 q 619 933 550 986 q 719 790 688 881 l 693 781 q 603 911 665 864 q 451 958 540 958 z "},"Ĉ":{"ha":833,"x_min":110,"x_max":719,"o":"m 451 -17 q 306 12 369 -17 q 198 101 242 40 q 132 256 154 161 q 110 485 110 351 q 132 713 110 618 q 198 869 154 808 q 306 958 242 929 q 451 986 369 986 q 619 933 550 986 q 719 790 688 881 l 693 781 q 603 911 665 864 q 451 958 540 958 q 222 851 300 958 q 143 529 143 744 l 143 440 q 222 118 143 225 q 451 11 300 11 q 603 58 540 11 q 693 189 665 106 l 719 179 q 619 36 688 89 q 451 -17 550 -17 m 468 1282 l 646 1097 l 626 1082 l 451 1258 l 276 1082 l 257 1097 l 435 1282 l 468 1282 z "},"Ċ":{"ha":833,"x_min":110,"x_max":719,"o":"m 451 -17 q 306 12 369 -17 q 198 101 242 40 q 132 256 154 161 q 110 485 110 351 q 132 713 110 618 q 198 869 154 808 q 306 958 242 929 q 451 986 369 986 q 619 933 550 986 q 719 790 688 881 l 693 781 q 603 911 665 864 q 451 958 540 958 q 222 851 300 958 q 143 529 143 744 l 143 440 q 222 118 143 225 q 451 11 300 11 q 603 58 540 11 q 693 189 665 106 l 719 179 q 619 36 688 89 q 451 -17 550 -17 m 451 1138 q 420 1147 429 1138 q 411 1169 411 1156 l 411 1181 q 420 1203 411 1194 q 451 1213 429 1213 q 483 1203 474 1213 q 492 1181 492 1194 l 492 1169 q 483 1147 492 1156 q 451 1138 474 1138 z "},"Ď":{"ha":833,"x_min":150,"x_max":733,"o":"m 150 969 l 403 969 q 656 848 578 969 q 733 485 733 726 q 656 122 733 243 q 403 0 578 0 l 150 0 l 150 969 m 404 28 q 538 56 482 28 q 629 138 593 85 q 683 267 665 190 q 700 440 700 344 l 700 529 q 683 702 700 625 q 629 832 665 779 q 538 913 593 885 q 404 942 482 942 l 181 942 l 181 28 l 404 28 m 369 1088 l 192 1272 l 211 1288 l 386 1111 l 561 1288 l 581 1272 l 403 1088 l 369 1088 z "},"Đ":{"ha":833,"x_min":46,"x_max":732,"o":"m 176 499 l 46 499 l 46 525 l 176 525 l 176 969 l 401 969 q 654 848 576 969 q 732 485 732 726 q 654 122 732 243 q 401 0 576 0 l 176 0 l 176 499 m 403 28 q 536 56 481 28 q 628 138 592 85 q 681 267 664 190 q 699 440 699 344 l 699 529 q 681 702 699 625 q 628 832 664 779 q 536 913 592 885 q 403 942 481 942 l 207 942 l 207 525 l 454 525 l 454 499 l 207 499 l 207 28 l 403 28 z "},"Ð":{"ha":833,"x_min":46,"x_max":732,"o":"m 176 499 l 46 499 l 46 525 l 176 525 l 176 969 l 401 969 q 654 848 576 969 q 732 485 732 726 q 654 122 732 243 q 401 0 576 0 l 176 0 l 176 499 m 403 28 q 536 56 481 28 q 628 138 592 85 q 681 267 664 190 q 699 440 699 344 l 699 529 q 681 702 699 625 q 628 832 664 779 q 536 913 592 885 q 403 942 481 942 l 207 942 l 207 525 l 454 525 l 454 499 l 207 499 l 207 28 l 403 28 z "},"É":{"ha":833,"x_min":150,"x_max":714,"o":"m 150 0 l 150 969 l 714 969 l 714 942 l 181 942 l 181 506 l 694 506 l 694 478 l 181 478 l 181 28 l 714 28 l 714 0 l 150 0 m 404 1065 l 383 1079 l 538 1293 l 564 1276 l 404 1065 z "},"Ĕ":{"ha":833,"x_min":150,"x_max":714,"o":"m 150 0 l 150 969 l 714 969 l 714 942 l 181 942 l 181 506 l 694 506 l 694 478 l 181 478 l 181 28 l 714 28 l 714 0 l 150 0 m 429 1085 q 365 1096 392 1085 q 317 1130 339 1107 q 277 1186 296 1153 q 238 1264 258 1219 l 258 1274 l 297 1206 q 357 1131 329 1151 q 429 1111 385 1111 q 501 1131 474 1111 q 561 1206 529 1151 l 600 1274 l 621 1264 q 581 1186 600 1219 q 541 1130 563 1153 q 493 1096 519 1107 q 429 1085 467 1085 z "},"Ě":{"ha":833,"x_min":150,"x_max":714,"o":"m 150 0 l 150 969 l 714 969 l 714 942 l 181 942 l 181 506 l 694 506 l 694 478 l 181 478 l 181 28 l 714 28 l 714 0 l 150 0 m 413 1088 l 235 1272 l 254 1288 l 429 1111 l 604 1288 l 624 1272 l 446 1088 l 413 1088 z "},"Ê":{"ha":833,"x_min":150,"x_max":714,"o":"m 150 0 l 150 969 l 714 969 l 714 942 l 181 942 l 181 506 l 694 506 l 694 478 l 181 478 l 181 28 l 714 28 l 714 0 l 150 0 m 446 1282 l 624 1097 l 604 1082 l 429 1258 l 254 1082 l 235 1097 l 413 1282 l 446 1282 z "},"Ë":{"ha":833,"x_min":150,"x_max":714,"o":"m 150 0 l 150 969 l 714 969 l 714 942 l 181 942 l 181 506 l 694 506 l 694 478 l 181 478 l 181 28 l 714 28 l 714 0 l 150 0 m 303 1138 q 272 1147 281 1138 q 263 1169 263 1156 l 263 1181 q 272 1203 263 1194 q 303 1213 281 1213 q 334 1203 325 1213 q 343 1181 343 1194 l 343 1169 q 334 1147 343 1156 q 303 1138 325 1138 m 556 1138 q 524 1147 533 1138 q 515 1169 515 1156 l 515 1181 q 524 1203 515 1194 q 556 1213 533 1213 q 587 1203 578 1213 q 596 1181 596 1194 l 596 1169 q 587 1147 596 1156 q 556 1138 578 1138 z "},"Ė":{"ha":833,"x_min":150,"x_max":714,"o":"m 150 0 l 150 969 l 714 969 l 714 942 l 181 942 l 181 506 l 694 506 l 694 478 l 181 478 l 181 28 l 714 28 l 714 0 l 150 0 m 429 1138 q 398 1147 407 1138 q 389 1169 389 1156 l 389 1181 q 398 1203 389 1194 q 429 1213 407 1213 q 460 1203 451 1213 q 469 1181 469 1194 l 469 1169 q 460 1147 469 1156 q 429 1138 451 1138 z "},"Ẹ":{"ha":833,"x_min":150,"x_max":714,"o":"m 150 0 l 150 969 l 714 969 l 714 942 l 181 942 l 181 506 l 694 506 l 694 478 l 181 478 l 181 28 l 714 28 l 714 0 l 150 0 m 426 -190 q 395 -181 404 -190 q 386 -158 386 -172 l 386 -147 q 395 -124 386 -133 q 426 -115 404 -115 q 458 -124 449 -115 q 467 -147 467 -133 l 467 -158 q 458 -181 467 -172 q 426 -190 449 -190 z "},"È":{"ha":833,"x_min":150,"x_max":714,"o":"m 150 0 l 150 969 l 714 969 l 714 942 l 181 942 l 181 506 l 694 506 l 694 478 l 181 478 l 181 28 l 714 28 l 714 0 l 150 0 m 293 1276 l 319 1293 l 474 1079 l 453 1065 l 293 1276 z "},"Ẻ":{"ha":833,"x_min":150,"x_max":714,"o":"m 150 0 l 150 969 l 714 969 l 714 942 l 181 942 l 181 506 l 694 506 l 694 478 l 181 478 l 181 28 l 714 28 l 714 0 l 150 0 m 326 1274 l 517 1274 q 549 1249 549 1274 q 541 1225 549 1240 q 506 1168 533 1210 l 438 1063 l 415 1074 l 522 1249 l 326 1249 l 326 1274 z "},"Ē":{"ha":833,"x_min":150,"x_max":714,"o":"m 150 0 l 150 969 l 714 969 l 714 942 l 181 942 l 181 506 l 694 506 l 694 478 l 181 478 l 181 28 l 714 28 l 714 0 l 150 0 m 250 1189 l 608 1189 l 608 1164 l 250 1164 l 250 1189 z "},"Ę":{"ha":833,"x_min":150,"x_max":733,"o":"m 150 969 l 714 969 l 714 942 l 181 942 l 181 506 l 694 506 l 694 478 l 181 478 l 181 28 l 714 28 l 714 0 q 647 -45 676 -24 q 594 -89 617 -67 q 560 -134 572 -111 q 549 -185 549 -157 q 571 -240 549 -224 q 629 -256 593 -256 q 683 -244 664 -256 q 714 -221 703 -233 l 733 -236 q 693 -268 719 -256 q 629 -281 667 -281 q 551 -257 582 -281 q 519 -186 519 -233 q 553 -100 519 -146 q 676 -3 586 -54 l 675 0 l 150 0 l 150 969 z "},"Ẽ":{"ha":833,"x_min":150,"x_max":714,"o":"m 150 0 l 150 969 l 714 969 l 714 942 l 181 942 l 181 506 l 694 506 l 694 478 l 181 478 l 181 28 l 714 28 l 714 0 l 150 0 m 528 1122 q 481 1131 504 1122 q 421 1164 457 1140 q 369 1192 390 1183 q 329 1200 349 1200 q 239 1154 282 1200 l 222 1171 q 331 1225 271 1225 q 378 1216 354 1225 q 438 1183 401 1207 q 489 1156 468 1164 q 529 1147 510 1147 q 576 1158 554 1147 q 619 1193 597 1169 l 636 1176 q 528 1122 588 1122 z "},"Ế":{"ha":833,"x_min":150,"x_max":747,"o":"m 150 0 l 150 969 l 714 969 l 714 942 l 181 942 l 181 506 l 694 506 l 694 478 l 181 478 l 181 28 l 714 28 l 714 0 l 150 0 m 588 1218 l 567 1232 l 721 1446 l 747 1429 l 588 1218 m 446 1271 l 624 1086 l 604 1071 l 429 1247 l 254 1071 l 235 1086 l 413 1271 l 446 1271 z "},"Ệ":{"ha":833,"x_min":150,"x_max":714,"o":"m 150 0 l 150 969 l 714 969 l 714 942 l 181 942 l 181 506 l 694 506 l 694 478 l 181 478 l 181 28 l 714 28 l 714 0 l 150 0 m 446 1282 l 624 1097 l 604 1082 l 429 1258 l 254 1082 l 235 1097 l 413 1282 l 446 1282 m 426 -190 q 395 -181 404 -190 q 386 -158 386 -172 l 386 -147 q 395 -124 386 -133 q 426 -115 404 -115 q 458 -124 449 -115 q 467 -147 467 -133 l 467 -158 q 458 -181 467 -172 q 426 -190 449 -190 z "},"Ề":{"ha":833,"x_min":111,"x_max":714,"o":"m 150 0 l 150 969 l 714 969 l 714 942 l 181 942 l 181 506 l 694 506 l 694 478 l 181 478 l 181 28 l 714 28 l 714 0 l 150 0 m 111 1429 l 138 1446 l 292 1232 l 271 1218 l 111 1429 m 446 1271 l 624 1086 l 604 1071 l 429 1247 l 254 1071 l 235 1086 l 413 1271 l 446 1271 z "},"Ể":{"ha":833,"x_min":150,"x_max":714,"o":"m 150 0 l 150 969 l 714 969 l 714 942 l 181 942 l 181 506 l 694 506 l 694 478 l 181 478 l 181 28 l 714 28 l 714 0 l 150 0 m 483 1426 l 674 1426 q 706 1401 706 1426 q 698 1378 706 1393 q 663 1321 690 1363 l 594 1215 l 572 1226 l 679 1401 l 483 1401 l 483 1426 m 446 1271 l 624 1086 l 604 1071 l 429 1247 l 254 1071 l 235 1086 l 413 1271 l 446 1271 z "},"Ễ":{"ha":833,"x_min":150,"x_max":714,"o":"m 150 0 l 150 969 l 714 969 l 714 942 l 181 942 l 181 506 l 694 506 l 694 478 l 181 478 l 181 28 l 714 28 l 714 0 l 150 0 m 331 1426 q 378 1417 354 1426 q 438 1385 401 1408 q 489 1357 468 1365 q 529 1349 510 1349 q 576 1360 554 1349 q 619 1394 597 1371 l 636 1378 q 528 1324 588 1324 q 481 1333 504 1324 q 421 1365 457 1342 q 369 1393 390 1385 q 329 1401 349 1401 q 239 1356 282 1401 l 222 1372 q 331 1426 271 1426 m 446 1271 l 624 1086 l 604 1071 l 429 1247 l 254 1071 l 235 1086 l 413 1271 l 446 1271 z "},"Ə":{"ha":833,"x_min":99,"x_max":735,"o":"m 417 -17 q 283 11 342 -17 q 184 98 225 39 q 122 249 143 157 q 99 472 100 342 l 701 472 l 701 528 q 628 851 701 743 q 417 958 556 958 q 151 739 210 958 l 122 746 q 233 928 158 869 q 417 986 308 986 q 552 958 493 986 q 651 869 611 929 q 713 713 692 808 q 735 485 735 618 q 713 256 735 351 q 651 101 692 161 q 552 12 611 40 q 417 -17 493 -17 m 417 11 q 628 119 556 11 q 701 439 701 226 l 701 444 l 131 444 l 131 439 q 204 119 131 228 q 417 11 278 11 z "},"Ğ":{"ha":833,"x_min":104,"x_max":713,"o":"m 682 143 l 678 143 q 644 81 664 110 q 597 30 625 51 q 528 -4 568 8 q 435 -17 489 -17 q 294 12 356 -17 q 190 101 232 40 q 126 256 149 161 q 104 485 104 351 q 126 713 104 618 q 190 869 149 808 q 294 958 232 929 q 435 986 356 986 q 599 933 531 986 q 699 790 668 881 l 672 781 q 583 911 644 864 q 435 958 522 958 q 213 851 289 958 q 138 529 138 744 l 138 440 q 213 118 138 225 q 435 11 289 11 q 539 31 493 11 q 617 84 585 50 q 665 166 649 118 q 682 271 682 214 l 682 410 l 435 410 l 435 438 l 713 438 l 713 0 l 682 0 l 682 143 m 435 1085 q 371 1096 397 1085 q 323 1130 344 1107 q 283 1186 301 1153 q 243 1264 264 1219 l 264 1274 l 303 1206 q 363 1131 335 1151 q 435 1111 390 1111 q 507 1131 479 1111 q 567 1206 535 1151 l 606 1274 l 626 1264 q 587 1186 606 1219 q 547 1130 568 1153 q 499 1096 525 1107 q 435 1085 472 1085 z "},"Ĝ":{"ha":833,"x_min":104,"x_max":713,"o":"m 682 143 l 678 143 q 644 81 664 110 q 597 30 625 51 q 528 -4 568 8 q 435 -17 489 -17 q 294 12 356 -17 q 190 101 232 40 q 126 256 149 161 q 104 485 104 351 q 126 713 104 618 q 190 869 149 808 q 294 958 232 929 q 435 986 356 986 q 599 933 531 986 q 699 790 668 881 l 672 781 q 583 911 644 864 q 435 958 522 958 q 213 851 289 958 q 138 529 138 744 l 138 440 q 213 118 138 225 q 435 11 289 11 q 539 31 493 11 q 617 84 585 50 q 665 166 649 118 q 682 271 682 214 l 682 410 l 435 410 l 435 438 l 713 438 l 713 0 l 682 0 l 682 143 m 451 1282 l 629 1097 l 610 1082 l 435 1258 l 260 1082 l 240 1097 l 418 1282 l 451 1282 z "},"Ģ":{"ha":833,"x_min":104,"x_max":713,"o":"m 682 143 l 678 143 q 644 81 664 110 q 597 30 625 51 q 528 -4 568 8 q 435 -17 489 -17 q 294 12 356 -17 q 190 101 232 40 q 126 256 149 161 q 104 485 104 351 q 126 713 104 618 q 190 869 149 808 q 294 958 232 929 q 435 986 356 986 q 599 933 531 986 q 699 790 668 881 l 672 781 q 583 911 644 864 q 435 958 522 958 q 213 851 289 958 q 138 529 138 744 l 138 440 q 213 118 138 225 q 435 11 289 11 q 539 31 493 11 q 617 84 585 50 q 665 166 649 118 q 682 271 682 214 l 682 410 l 435 410 l 435 438 l 713 438 l 713 0 l 682 0 l 682 143 m 407 -94 l 442 -94 l 371 -349 l 346 -349 l 407 -94 z "},"Ġ":{"ha":833,"x_min":104,"x_max":713,"o":"m 682 143 l 678 143 q 644 81 664 110 q 597 30 625 51 q 528 -4 568 8 q 435 -17 489 -17 q 294 12 356 -17 q 190 101 232 40 q 126 256 149 161 q 104 485 104 351 q 126 713 104 618 q 190 869 149 808 q 294 958 232 929 q 435 986 356 986 q 599 933 531 986 q 699 790 668 881 l 672 781 q 583 911 644 864 q 435 958 522 958 q 213 851 289 958 q 138 529 138 744 l 138 440 q 213 118 138 225 q 435 11 289 11 q 539 31 493 11 q 617 84 585 50 q 665 166 649 118 q 682 271 682 214 l 682 410 l 435 410 l 435 438 l 713 438 l 713 0 l 682 0 l 682 143 m 435 1138 q 403 1147 413 1138 q 394 1169 394 1156 l 394 1181 q 403 1203 394 1194 q 435 1213 413 1213 q 466 1203 457 1213 q 475 1181 475 1194 l 475 1169 q 466 1147 475 1156 q 435 1138 457 1138 z "},"Ħ":{"ha":833,"x_min":19,"x_max":814,"o":"m 667 478 l 167 478 l 167 0 l 136 0 l 136 746 l 19 746 l 19 772 l 136 772 l 136 969 l 167 969 l 167 772 l 667 772 l 667 969 l 697 969 l 697 772 l 814 772 l 814 746 l 697 746 l 697 0 l 667 0 l 667 478 m 667 506 l 667 746 l 167 746 l 167 506 l 667 506 z "},"Ĥ":{"ha":833,"x_min":136,"x_max":697,"o":"m 667 478 l 167 478 l 167 0 l 136 0 l 136 969 l 167 969 l 167 506 l 667 506 l 667 969 l 697 969 l 697 0 l 667 0 l 667 478 m 433 1282 l 611 1097 l 592 1082 l 417 1258 l 242 1082 l 222 1097 l 400 1282 l 433 1282 z "},"Í":{"ha":833,"x_min":128,"x_max":706,"o":"m 128 0 l 128 26 l 401 26 l 401 943 l 128 943 l 128 969 l 706 969 l 706 943 l 432 943 l 432 26 l 706 26 l 706 0 l 128 0 m 392 1065 l 371 1079 l 525 1293 l 551 1276 l 392 1065 z "},"Ĭ":{"ha":833,"x_min":128,"x_max":706,"o":"m 128 0 l 128 26 l 401 26 l 401 943 l 128 943 l 128 969 l 706 969 l 706 943 l 432 943 l 432 26 l 706 26 l 706 0 l 128 0 m 417 1085 q 353 1096 379 1085 q 305 1130 326 1107 q 265 1186 283 1153 q 225 1264 246 1219 l 246 1274 l 285 1206 q 344 1131 317 1151 q 417 1111 372 1111 q 489 1131 461 1111 q 549 1206 517 1151 l 588 1274 l 608 1264 q 569 1186 588 1219 q 528 1130 550 1153 q 481 1096 507 1107 q 417 1085 454 1085 z "},"Ǐ":{"ha":833,"x_min":128,"x_max":706,"o":"m 128 0 l 128 26 l 401 26 l 401 943 l 128 943 l 128 969 l 706 969 l 706 943 l 432 943 l 432 26 l 706 26 l 706 0 l 128 0 m 400 1088 l 222 1272 l 242 1288 l 417 1111 l 592 1288 l 611 1272 l 433 1088 l 400 1088 z "},"Î":{"ha":833,"x_min":128,"x_max":706,"o":"m 128 0 l 128 26 l 401 26 l 401 943 l 128 943 l 128 969 l 706 969 l 706 943 l 432 943 l 432 26 l 706 26 l 706 0 l 128 0 m 433 1282 l 611 1097 l 592 1082 l 417 1258 l 242 1082 l 222 1097 l 400 1282 l 433 1282 z "},"Ï":{"ha":833,"x_min":128,"x_max":706,"o":"m 128 0 l 128 26 l 401 26 l 401 943 l 128 943 l 128 969 l 706 969 l 706 943 l 432 943 l 432 26 l 706 26 l 706 0 l 128 0 m 290 1138 q 259 1147 268 1138 q 250 1169 250 1156 l 250 1181 q 259 1203 250 1194 q 290 1213 268 1213 q 322 1203 313 1213 q 331 1181 331 1194 l 331 1169 q 322 1147 331 1156 q 290 1138 313 1138 m 543 1138 q 512 1147 521 1138 q 503 1169 503 1156 l 503 1181 q 512 1203 503 1194 q 543 1213 521 1213 q 574 1203 565 1213 q 583 1181 583 1194 l 583 1169 q 574 1147 583 1156 q 543 1138 565 1138 z "},"İ":{"ha":833,"x_min":128,"x_max":706,"o":"m 128 0 l 128 26 l 401 26 l 401 943 l 128 943 l 128 969 l 706 969 l 706 943 l 432 943 l 432 26 l 706 26 l 706 0 l 128 0 m 417 1138 q 385 1147 394 1138 q 376 1169 376 1156 l 376 1181 q 385 1203 376 1194 q 417 1213 394 1213 q 448 1203 439 1213 q 457 1181 457 1194 l 457 1169 q 448 1147 457 1156 q 417 1138 439 1138 z "},"Ị":{"ha":833,"x_min":128,"x_max":706,"o":"m 128 0 l 128 26 l 401 26 l 401 943 l 128 943 l 128 969 l 706 969 l 706 943 l 432 943 l 432 26 l 706 26 l 706 0 l 128 0 m 417 -190 q 385 -181 394 -190 q 376 -158 376 -172 l 376 -147 q 385 -124 376 -133 q 417 -115 394 -115 q 448 -124 439 -115 q 457 -147 457 -133 l 457 -158 q 448 -181 457 -172 q 417 -190 439 -190 z "},"Ì":{"ha":833,"x_min":128,"x_max":706,"o":"m 128 0 l 128 26 l 401 26 l 401 943 l 128 943 l 128 969 l 706 969 l 706 943 l 432 943 l 432 26 l 706 26 l 706 0 l 128 0 m 281 1276 l 307 1293 l 461 1079 l 440 1065 l 281 1276 z "},"Ỉ":{"ha":833,"x_min":128,"x_max":706,"o":"m 128 0 l 128 26 l 401 26 l 401 943 l 128 943 l 128 969 l 706 969 l 706 943 l 432 943 l 432 26 l 706 26 l 706 0 l 128 0 m 314 1274 l 504 1274 q 536 1249 536 1274 q 528 1225 536 1240 q 493 1168 521 1210 l 425 1063 l 403 1074 l 510 1249 l 314 1249 l 314 1274 z "},"Ī":{"ha":833,"x_min":128,"x_max":706,"o":"m 128 0 l 128 26 l 401 26 l 401 943 l 128 943 l 128 969 l 706 969 l 706 943 l 432 943 l 432 26 l 706 26 l 706 0 l 128 0 m 238 1189 l 596 1189 l 596 1164 l 238 1164 l 238 1189 z "},"Į":{"ha":833,"x_min":128,"x_max":725,"o":"m 128 26 l 401 26 l 401 943 l 128 943 l 128 969 l 706 969 l 706 943 l 432 943 l 432 26 l 706 26 l 706 0 q 638 -45 668 -24 q 586 -89 608 -67 q 552 -134 564 -111 q 540 -185 540 -157 q 563 -240 540 -224 q 621 -256 585 -256 q 675 -244 656 -256 q 706 -221 694 -233 l 725 -236 q 685 -268 711 -256 q 621 -281 658 -281 q 542 -257 574 -281 q 511 -186 511 -233 q 544 -100 511 -146 q 668 -3 578 -54 l 667 0 l 128 0 l 128 26 z "},"Ĩ":{"ha":833,"x_min":128,"x_max":706,"o":"m 128 0 l 128 26 l 401 26 l 401 943 l 128 943 l 128 969 l 706 969 l 706 943 l 432 943 l 432 26 l 706 26 l 706 0 l 128 0 m 515 1122 q 468 1131 492 1122 q 408 1164 444 1140 q 357 1192 378 1183 q 317 1200 336 1200 q 226 1154 269 1200 l 210 1171 q 318 1225 258 1225 q 365 1216 342 1225 q 425 1183 389 1207 q 476 1156 456 1164 q 517 1147 497 1147 q 563 1158 542 1147 q 607 1193 585 1169 l 624 1176 q 515 1122 575 1122 z "},"Ĳ":{"ha":833,"x_min":161,"x_max":672,"o":"m 672 969 l 672 263 q 605 56 672 128 q 417 -17 538 -17 q 249 34 314 -17 q 165 176 185 85 l 194 183 q 268 58 214 104 q 417 11 322 11 q 583 76 525 11 q 642 265 642 142 l 642 969 l 672 969 m 161 969 l 192 969 l 192 376 l 161 376 l 161 969 z "},"Ĵ":{"ha":833,"x_min":133,"x_max":640,"o":"m 640 969 l 640 263 q 572 56 640 128 q 385 -17 503 -17 q 219 31 285 -17 q 133 165 153 79 l 163 172 q 235 54 181 97 q 385 11 290 11 q 551 76 492 11 q 610 265 610 142 l 610 942 l 218 942 l 218 969 l 640 969 m 442 1282 l 619 1097 l 600 1082 l 425 1258 l 250 1082 l 231 1097 l 408 1282 l 442 1282 z "},"Ķ":{"ha":833,"x_min":150,"x_max":761,"o":"m 367 538 l 181 332 l 181 0 l 150 0 l 150 969 l 181 969 l 181 374 l 183 374 l 374 585 l 721 969 l 757 969 l 389 560 l 761 0 l 725 0 l 367 538 m 433 -94 l 468 -94 l 397 -349 l 372 -349 l 433 -94 z "},"Ĺ":{"ha":833,"x_min":172,"x_max":733,"o":"m 203 0 l 203 969 l 233 969 l 233 28 l 733 28 l 733 0 l 203 0 m 193 1065 l 172 1079 l 326 1293 l 353 1276 l 193 1065 z "},"Ľ":{"ha":833,"x_min":203,"x_max":733,"o":"m 203 0 l 203 969 l 233 969 l 233 28 l 733 28 l 733 0 l 203 0 m 403 783 l 379 783 l 401 1028 l 436 1028 l 403 783 z "},"Ļ":{"ha":833,"x_min":203,"x_max":733,"o":"m 203 0 l 203 969 l 233 969 l 233 28 l 733 28 l 733 0 l 203 0 m 453 -94 l 488 -94 l 417 -349 l 392 -349 l 453 -94 z "},"Ŀ":{"ha":833,"x_min":203,"x_max":733,"o":"m 203 0 l 203 969 l 233 969 l 233 28 l 733 28 l 733 0 l 203 0 m 590 415 q 559 424 568 415 q 550 447 550 433 l 550 458 q 559 481 550 472 q 590 490 568 490 q 622 481 613 490 q 631 458 631 472 l 631 447 q 622 424 631 433 q 590 415 613 415 z "},"Ł":{"ha":833,"x_min":76,"x_max":733,"o":"m 733 0 l 203 0 l 203 418 l 76 378 l 76 406 l 203 446 l 203 969 l 233 969 l 233 454 l 558 557 l 558 529 l 233 426 l 233 28 l 733 28 l 733 0 z "},"Ń":{"ha":833,"x_min":136,"x_max":697,"o":"m 169 928 l 165 928 l 165 0 l 136 0 l 136 969 l 181 969 l 664 42 l 668 42 l 668 969 l 697 969 l 697 0 l 653 0 l 169 928 m 392 1065 l 371 1079 l 525 1293 l 551 1276 l 392 1065 z "},"Ň":{"ha":833,"x_min":136,"x_max":697,"o":"m 169 928 l 165 928 l 165 0 l 136 0 l 136 969 l 181 969 l 664 42 l 668 42 l 668 969 l 697 969 l 697 0 l 653 0 l 169 928 m 400 1088 l 222 1272 l 242 1288 l 417 1111 l 592 1288 l 611 1272 l 433 1088 l 400 1088 z "},"Ņ":{"ha":833,"x_min":136,"x_max":697,"o":"m 169 928 l 165 928 l 165 0 l 136 0 l 136 969 l 181 969 l 664 42 l 668 42 l 668 969 l 697 969 l 697 0 l 653 0 l 169 928 m 401 -94 l 436 -94 l 365 -349 l 340 -349 l 401 -94 z "},"Ñ":{"ha":833,"x_min":136,"x_max":697,"o":"m 169 928 l 165 928 l 165 0 l 136 0 l 136 969 l 181 969 l 664 42 l 668 42 l 668 969 l 697 969 l 697 0 l 653 0 l 169 928 m 515 1122 q 468 1131 492 1122 q 408 1164 444 1140 q 357 1192 378 1183 q 317 1200 336 1200 q 226 1154 269 1200 l 210 1171 q 318 1225 258 1225 q 365 1216 342 1225 q 425 1183 389 1207 q 476 1156 456 1164 q 517 1147 497 1147 q 563 1158 542 1147 q 607 1193 585 1169 l 624 1176 q 515 1122 575 1122 z "},"Ŋ":{"ha":833,"x_min":136,"x_max":697,"o":"m 136 0 l 136 969 l 181 969 l 664 42 l 668 42 l 668 969 l 697 969 l 697 -237 q 657 -278 697 -278 l 250 -278 l 250 -253 l 668 -253 l 668 0 l 653 0 l 169 928 l 165 928 l 165 0 l 136 0 z "},"Ó":{"ha":833,"x_min":99,"x_max":735,"o":"m 417 -17 q 281 12 340 -17 q 181 101 222 40 q 119 256 140 161 q 99 485 99 351 q 119 713 99 618 q 181 869 140 808 q 281 958 222 929 q 417 986 340 986 q 552 958 493 986 q 651 869 611 929 q 713 713 692 808 q 735 485 735 618 q 713 256 735 351 q 651 101 692 161 q 552 12 611 40 q 417 -17 493 -17 m 417 11 q 628 118 556 11 q 701 440 701 225 l 701 529 q 628 851 701 744 q 417 958 556 958 q 205 851 278 958 q 132 529 132 744 l 132 440 q 205 118 132 225 q 417 11 278 11 m 392 1065 l 371 1079 l 525 1293 l 551 1276 l 392 1065 z "},"Ŏ":{"ha":833,"x_min":99,"x_max":735,"o":"m 417 -17 q 281 12 340 -17 q 181 101 222 40 q 119 256 140 161 q 99 485 99 351 q 119 713 99 618 q 181 869 140 808 q 281 958 222 929 q 417 986 340 986 q 552 958 493 986 q 651 869 611 929 q 713 713 692 808 q 735 485 735 618 q 713 256 735 351 q 651 101 692 161 q 552 12 611 40 q 417 -17 493 -17 m 417 11 q 628 118 556 11 q 701 440 701 225 l 701 529 q 628 851 701 744 q 417 958 556 958 q 205 851 278 958 q 132 529 132 744 l 132 440 q 205 118 132 225 q 417 11 278 11 m 417 1085 q 353 1096 379 1085 q 305 1130 326 1107 q 265 1186 283 1153 q 225 1264 246 1219 l 246 1274 l 285 1206 q 344 1131 317 1151 q 417 1111 372 1111 q 489 1131 461 1111 q 549 1206 517 1151 l 588 1274 l 608 1264 q 569 1186 588 1219 q 528 1130 550 1153 q 481 1096 507 1107 q 417 1085 454 1085 z "},"Ǒ":{"ha":833,"x_min":99,"x_max":735,"o":"m 417 -17 q 281 12 340 -17 q 181 101 222 40 q 119 256 140 161 q 99 485 99 351 q 119 713 99 618 q 181 869 140 808 q 281 958 222 929 q 417 986 340 986 q 552 958 493 986 q 651 869 611 929 q 713 713 692 808 q 735 485 735 618 q 713 256 735 351 q 651 101 692 161 q 552 12 611 40 q 417 -17 493 -17 m 417 11 q 628 118 556 11 q 701 440 701 225 l 701 529 q 628 851 701 744 q 417 958 556 958 q 205 851 278 958 q 132 529 132 744 l 132 440 q 205 118 132 225 q 417 11 278 11 m 400 1088 l 222 1272 l 242 1288 l 417 1111 l 592 1288 l 611 1272 l 433 1088 l 400 1088 z "},"Ô":{"ha":833,"x_min":99,"x_max":735,"o":"m 417 -17 q 281 12 340 -17 q 181 101 222 40 q 119 256 140 161 q 99 485 99 351 q 119 713 99 618 q 181 869 140 808 q 281 958 222 929 q 417 986 340 986 q 552 958 493 986 q 651 869 611 929 q 713 713 692 808 q 735 485 735 618 q 713 256 735 351 q 651 101 692 161 q 552 12 611 40 q 417 -17 493 -17 m 417 11 q 628 118 556 11 q 701 440 701 225 l 701 529 q 628 851 701 744 q 417 958 556 958 q 205 851 278 958 q 132 529 132 744 l 132 440 q 205 118 132 225 q 417 11 278 11 m 433 1282 l 611 1097 l 592 1082 l 417 1258 l 242 1082 l 222 1097 l 400 1282 l 433 1282 z "},"Ö":{"ha":833,"x_min":99,"x_max":735,"o":"m 417 -17 q 281 12 340 -17 q 181 101 222 40 q 119 256 140 161 q 99 485 99 351 q 119 713 99 618 q 181 869 140 808 q 281 958 222 929 q 417 986 340 986 q 552 958 493 986 q 651 869 611 929 q 713 713 692 808 q 735 485 735 618 q 713 256 735 351 q 651 101 692 161 q 552 12 611 40 q 417 -17 493 -17 m 417 11 q 628 118 556 11 q 701 440 701 225 l 701 529 q 628 851 701 744 q 417 958 556 958 q 205 851 278 958 q 132 529 132 744 l 132 440 q 205 118 132 225 q 417 11 278 11 m 290 1138 q 259 1147 268 1138 q 250 1169 250 1156 l 250 1181 q 259 1203 250 1194 q 290 1213 268 1213 q 322 1203 313 1213 q 331 1181 331 1194 l 331 1169 q 322 1147 331 1156 q 290 1138 313 1138 m 543 1138 q 512 1147 521 1138 q 503 1169 503 1156 l 503 1181 q 512 1203 503 1194 q 543 1213 521 1213 q 574 1203 565 1213 q 583 1181 583 1194 l 583 1169 q 574 1147 583 1156 q 543 1138 565 1138 z "},"Ọ":{"ha":833,"x_min":99,"x_max":735,"o":"m 417 -17 q 281 12 340 -17 q 181 101 222 40 q 119 256 140 161 q 99 485 99 351 q 119 713 99 618 q 181 869 140 808 q 281 958 222 929 q 417 986 340 986 q 552 958 493 986 q 651 869 611 929 q 713 713 692 808 q 735 485 735 618 q 713 256 735 351 q 651 101 692 161 q 552 12 611 40 q 417 -17 493 -17 m 417 11 q 628 118 556 11 q 701 440 701 225 l 701 529 q 628 851 701 744 q 417 958 556 958 q 205 851 278 958 q 132 529 132 744 l 132 440 q 205 118 132 225 q 417 11 278 11 m 417 -190 q 385 -181 394 -190 q 376 -158 376 -172 l 376 -147 q 385 -124 376 -133 q 417 -115 394 -115 q 448 -124 439 -115 q 457 -147 457 -133 l 457 -158 q 448 -181 457 -172 q 417 -190 439 -190 z "},"Ò":{"ha":833,"x_min":99,"x_max":735,"o":"m 417 -17 q 281 12 340 -17 q 181 101 222 40 q 119 256 140 161 q 99 485 99 351 q 119 713 99 618 q 181 869 140 808 q 281 958 222 929 q 417 986 340 986 q 552 958 493 986 q 651 869 611 929 q 713 713 692 808 q 735 485 735 618 q 713 256 735 351 q 651 101 692 161 q 552 12 611 40 q 417 -17 493 -17 m 417 11 q 628 118 556 11 q 701 440 701 225 l 701 529 q 628 851 701 744 q 417 958 556 958 q 205 851 278 958 q 132 529 132 744 l 132 440 q 205 118 132 225 q 417 11 278 11 m 281 1276 l 307 1293 l 461 1079 l 440 1065 l 281 1276 z "},"Ỏ":{"ha":833,"x_min":99,"x_max":735,"o":"m 417 -17 q 281 12 340 -17 q 181 101 222 40 q 119 256 140 161 q 99 485 99 351 q 119 713 99 618 q 181 869 140 808 q 281 958 222 929 q 417 986 340 986 q 552 958 493 986 q 651 869 611 929 q 713 713 692 808 q 735 485 735 618 q 713 256 735 351 q 651 101 692 161 q 552 12 611 40 q 417 -17 493 -17 m 417 11 q 628 118 556 11 q 701 440 701 225 l 701 529 q 628 851 701 744 q 417 958 556 958 q 205 851 278 958 q 132 529 132 744 l 132 440 q 205 118 132 225 q 417 11 278 11 m 314 1274 l 504 1274 q 536 1249 536 1274 q 528 1225 536 1240 q 493 1168 521 1210 l 425 1063 l 403 1074 l 510 1249 l 314 1249 l 314 1274 z "},"Ő":{"ha":833,"x_min":99,"x_max":735,"o":"m 417 -17 q 281 12 340 -17 q 181 101 222 40 q 119 256 140 161 q 99 485 99 351 q 119 713 99 618 q 181 869 140 808 q 281 958 222 929 q 417 986 340 986 q 552 958 493 986 q 651 869 611 929 q 713 713 692 808 q 735 485 735 618 q 713 256 735 351 q 651 101 692 161 q 552 12 611 40 q 417 -17 493 -17 m 417 11 q 628 118 556 11 q 701 440 701 225 l 701 529 q 628 851 701 744 q 417 958 556 958 q 205 851 278 958 q 132 529 132 744 l 132 440 q 205 118 132 225 q 417 11 278 11 m 306 1065 l 285 1079 l 439 1293 l 465 1276 l 306 1065 m 528 1065 l 507 1079 l 661 1293 l 688 1276 l 528 1065 z "},"Ō":{"ha":833,"x_min":99,"x_max":735,"o":"m 417 -17 q 281 12 340 -17 q 181 101 222 40 q 119 256 140 161 q 99 485 99 351 q 119 713 99 618 q 181 869 140 808 q 281 958 222 929 q 417 986 340 986 q 552 958 493 986 q 651 869 611 929 q 713 713 692 808 q 735 485 735 618 q 713 256 735 351 q 651 101 692 161 q 552 12 611 40 q 417 -17 493 -17 m 417 11 q 628 118 556 11 q 701 440 701 225 l 701 529 q 628 851 701 744 q 417 958 556 958 q 205 851 278 958 q 132 529 132 744 l 132 440 q 205 118 132 225 q 417 11 278 11 m 238 1189 l 596 1189 l 596 1164 l 238 1164 l 238 1189 z "},"Ø":{"ha":833,"x_min":99,"x_max":735,"o":"m 417 -17 q 290 7 346 -17 q 194 82 235 31 l 132 -24 l 108 -11 l 178 107 q 119 261 139 168 q 99 485 99 354 q 119 713 99 618 q 181 869 140 808 q 281 958 222 929 q 417 986 340 986 q 543 963 488 986 q 639 888 599 939 l 701 993 l 725 981 l 656 863 q 715 708 694 801 q 735 485 735 615 q 713 256 735 351 q 651 101 692 161 q 552 12 611 40 q 417 -17 493 -17 m 132 440 q 194 135 132 243 l 622 860 q 417 958 551 958 q 205 851 278 958 q 132 529 132 744 l 132 440 m 417 11 q 628 118 556 11 q 701 440 701 225 l 701 529 q 639 835 701 726 l 211 110 q 417 11 282 11 z "},"Ǿ":{"ha":833,"x_min":99,"x_max":735,"o":"m 417 -17 q 290 7 346 -17 q 194 82 235 31 l 132 -24 l 108 -11 l 178 107 q 119 261 139 168 q 99 485 99 354 q 119 713 99 618 q 181 869 140 808 q 281 958 222 929 q 417 986 340 986 q 543 963 488 986 q 639 888 599 939 l 701 993 l 725 981 l 656 863 q 715 708 694 801 q 735 485 735 615 q 713 256 735 351 q 651 101 692 161 q 552 12 611 40 q 417 -17 493 -17 m 132 440 q 194 135 132 243 l 622 860 q 417 958 551 958 q 205 851 278 958 q 132 529 132 744 l 132 440 m 417 11 q 628 118 556 11 q 701 440 701 225 l 701 529 q 639 835 701 726 l 211 110 q 417 11 282 11 m 392 1065 l 371 1079 l 525 1293 l 551 1276 l 392 1065 z "},"Õ":{"ha":833,"x_min":99,"x_max":735,"o":"m 417 -17 q 281 12 340 -17 q 181 101 222 40 q 119 256 140 161 q 99 485 99 351 q 119 713 99 618 q 181 869 140 808 q 281 958 222 929 q 417 986 340 986 q 552 958 493 986 q 651 869 611 929 q 713 713 692 808 q 735 485 735 618 q 713 256 735 351 q 651 101 692 161 q 552 12 611 40 q 417 -17 493 -17 m 417 11 q 628 118 556 11 q 701 440 701 225 l 701 529 q 628 851 701 744 q 417 958 556 958 q 205 851 278 958 q 132 529 132 744 l 132 440 q 205 118 132 225 q 417 11 278 11 m 515 1122 q 468 1131 492 1122 q 408 1164 444 1140 q 357 1192 378 1183 q 317 1200 336 1200 q 226 1154 269 1200 l 210 1171 q 318 1225 258 1225 q 365 1216 342 1225 q 425 1183 389 1207 q 476 1156 456 1164 q 517 1147 497 1147 q 563 1158 542 1147 q 607 1193 585 1169 l 624 1176 q 515 1122 575 1122 z "},"Ơ":{"ha":833,"x_min":99,"x_max":735,"o":"m 706 985 q 665 944 706 944 l 574 944 q 694 783 653 896 q 735 485 735 671 q 713 256 735 351 q 651 101 692 161 q 552 12 611 40 q 417 -17 493 -17 q 281 12 340 -17 q 181 101 222 40 q 119 256 140 161 q 99 485 99 351 q 119 713 99 618 q 181 869 140 808 q 281 958 222 929 q 417 986 340 986 q 524 969 475 986 l 678 969 l 678 1124 l 706 1124 l 706 985 m 417 11 q 628 118 556 11 q 701 440 701 225 l 701 529 q 628 851 701 744 q 417 958 556 958 q 205 851 278 958 q 132 529 132 744 l 132 440 q 205 118 132 225 q 417 11 278 11 z "}}}
